<svg width="96" height="71" viewBox="0 0 96 71" fill="none" xmlns="http://www.w3.org/2000/svg">
<g clip-path="url(#clip0_4907_21548)">
<path d="M0.00872803 59.1421H8.01812V61.393H2.67579V63.4977H6.86699V65.7487H2.67579V70.1773H0.00872803V59.1421Z" fill="black"/>
<path d="M27.2188 59.1421H35.0257V61.393H29.8859V63.4407H34.3851V65.6836H29.8859V67.9343H35.1068V70.1773H27.2188V59.1421Z" fill="black"/>
<path d="M43.249 59.1421C45.1218 59.1421 46.581 60.052 46.581 62.0675C46.581 62.953 46.0298 63.9933 44.9759 64.3347C46.2082 64.6354 47.108 65.5698 47.108 67.1221C47.108 68.8121 45.9569 70.1776 43.4195 70.1776H38.7903V59.1424H43.2493L43.249 59.1421ZM39.7633 64.0745H43.1681C44.5059 64.0745 45.5841 63.3271 45.5841 62.0835C45.5841 60.9296 44.8789 60.0196 43.2819 60.0196H39.7635V64.0745H39.7633ZM39.7633 64.9197V69.2998H43.6464C45.0571 69.2998 46.1353 68.6093 46.1353 67.1303C46.1353 65.887 45.3734 64.92 43.6464 64.92H39.7633V64.9197Z" fill="black"/>
<path d="M47.8132 59.1421H48.9888L52.5477 64.7817L56.1066 59.1421H57.2821L53.0341 65.789V70.1773H52.0614V65.7973L47.8135 59.1418L47.8132 59.1421Z" fill="black"/>
<path d="M59.6485 59.1421H67.6579V61.393H62.3156V63.4977H66.5068V65.7487H62.3156V70.1773H59.6485V59.1421Z" fill="black"/>
<path d="M72.4504 70.1773H69.7833V59.1421H72.4504V70.1773Z" fill="black"/>
<path d="M74.2513 59.1421H77.1617L79.9181 67.4876L82.6501 59.1421H85.5606L81.6612 70.1773H78.1509L74.2515 59.1421H74.2513Z" fill="black"/>
<path d="M14.1306 59.1421H17.041L19.7974 67.4876L22.5295 59.1421H25.4399L21.5406 70.1773H18.0302L14.1309 59.1421H14.1306Z" fill="black"/>
<path d="M91.8409 68.9488C91.8409 68.5756 91.9215 68.2335 92.0641 67.9341H90.0283V65.6836H94.5275V63.4407H90.0283V61.393H95.1681V59.1421H87.3612V70.1773H92.1831C91.9649 69.8328 91.8409 69.4147 91.8409 68.9488Z" fill="black"/>
<path d="M94.0395 67.5431C94.8664 67.5431 95.4501 68.1122 95.4501 68.9489C95.4501 69.7855 94.8664 70.347 94.0395 70.347C93.2126 70.347 92.645 69.7778 92.645 68.9489C92.645 68.1199 93.2123 67.5431 94.0395 67.5431Z" fill="black"/>
<path d="M12.5227 70.1773H9.85565V59.1421H12.5227V70.1773Z" fill="black"/>
<path d="M70.879 16.8399C70.248 16.8399 69.6666 17.0507 69.2 17.4053L50.3543 3.69601C50.4537 3.4096 50.5084 3.10249 50.5084 2.78236C50.5084 1.24572 49.2642 0 47.7294 0C46.1947 0 44.9505 1.24572 44.9505 2.78236C44.9505 3.10249 45.0051 3.40987 45.1045 3.69601L26.2585 17.4053C25.7922 17.0507 25.2105 16.8399 24.5798 16.8399C23.0451 16.8399 21.8009 18.0856 21.8009 19.6223C21.8009 21.1589 23.0451 22.4046 24.5798 22.4046C24.5989 22.4046 24.6175 22.4036 24.6363 22.4033L31.8352 44.5863C31.1149 45.089 30.6433 45.9241 30.6433 46.8699C30.6433 48.4065 31.8875 49.6523 33.4222 49.6523C34.6773 49.6523 35.7375 48.8193 36.0824 47.6755H59.3765C59.7214 48.8193 60.7816 49.6523 62.0366 49.6523C63.5714 49.6523 64.8156 48.4065 64.8156 46.8699C64.8156 45.9241 64.3439 45.089 63.6236 44.5863L70.8223 22.4033C70.8411 22.4036 70.8599 22.4046 70.879 22.4046C72.4137 22.4046 73.6579 21.1589 73.6579 19.6223C73.6579 18.0856 72.4137 16.8399 70.879 16.8399ZM59.3765 46.064H36.0824C35.8769 45.3824 35.4172 44.8117 34.8135 44.4615L39.8311 30.3719L59.5649 45.5982C59.4889 45.7463 59.4252 45.9021 59.3762 46.0643L59.3765 46.064ZM27.327 19.1992C27.3012 19.0301 27.2596 18.866 27.2047 18.7084L46.0507 4.99907C46.517 5.3537 47.0987 5.56446 47.7294 5.56446C47.8254 5.56446 47.92 5.55968 48.0136 5.55013L52.2107 19.9302L27.327 19.1992ZM55.9663 29.2087L48.9786 5.26743C49.1303 5.19072 49.2742 5.101 49.4084 4.99907L68.2544 18.7084C68.1549 18.9948 68.1003 19.3019 68.1003 19.622C68.1003 20.0234 68.186 20.4048 68.3387 20.7493L55.9665 29.2084L55.9663 29.2087ZM26.1668 21.9056C26.7347 21.5093 27.1477 20.9065 27.2973 20.2054L42.228 20.6442L33.8668 44.1231C33.7221 44.0997 33.5739 44.0873 33.4225 44.0873C33.4034 44.0873 33.3848 44.0883 33.366 44.0886L26.1671 21.9056H26.1668ZM62.0931 44.0886C62.0743 44.0883 62.0554 44.0873 62.0366 44.0873C61.3224 44.0873 60.6713 44.3572 60.179 44.8008L48.3235 35.6534L68.9057 21.581C69.0243 21.7007 69.1536 21.8092 69.292 21.9059L62.0931 44.0889V44.0886Z" fill="black"/>
</g>
<defs>
<clipPath id="clip0_4907_21548">
<rect width="95.4414" height="70.3469" fill="white" transform="translate(0.00872803)"/>
</clipPath>
</defs>
</svg>
