<svg width="187" height="51" viewBox="0 0 187 51" fill="none" xmlns="http://www.w3.org/2000/svg">
<path fill-rule="evenodd" clip-rule="evenodd" d="M52.2189 7.10423L52.1717 14.2085L51.2674 13.4625C47.1623 10.0765 41.4851 10.1491 37.2521 13.6418C35.8259 14.8189 34.6836 16.3498 33.7166 18.3806C32.509 20.9164 32.2858 22.0216 32.2858 25.4638C32.2858 28.9787 32.5112 30.0502 33.8135 32.7264C34.8466 34.8494 36.158 36.3772 37.9358 37.5287C40.3318 39.0807 42.1211 39.5464 45.1622 39.4098C48.0465 39.2803 49.8307 38.4656 51.9858 36.2944L52.9868 35.2859L53.265 35.946C53.9786 37.6395 55.87 38.8817 57.9922 39.0506L59.1108 39.1395L59.4063 38.0849C59.5687 37.5048 59.7776 36.7961 59.8704 36.5103C60.1355 35.6924 60.0787 35.5429 59.4511 35.4085C58.4825 35.2012 57.5945 34.6697 57.3165 34.1305C57.0948 33.7005 57.0472 31.0589 57.0051 16.8115L56.9555 0H54.6109H52.2663L52.2189 7.10423ZM173.074 16.1104C173.074 31.6365 173.087 32.2717 173.436 33.6237C174.447 37.543 177.205 39.4551 181.838 39.4483C184.223 39.4449 187 38.8246 187 38.2953C187 38.1117 186.244 35.4625 186.019 34.8564C185.967 34.7174 185.619 34.7641 184.893 35.007C183.308 35.5377 181.302 35.5118 180.186 34.9468C179.026 34.3588 178.244 33.2056 177.977 31.6905C177.841 30.9104 177.776 25.6756 177.776 15.2726V0H175.425H173.074V16.1104ZM126.253 7.57639C126.028 9.57369 125.799 11.5104 125.744 11.8801L125.643 12.5526H123.225H120.807V14.6148V16.677H123.143H125.479L125.554 24.3431C125.618 30.897 125.673 32.1651 125.939 33.0851C126.445 34.839 127.06 35.9845 128.054 37.0266C129.757 38.8121 131.372 39.451 134.185 39.451C135.153 39.451 136.388 39.3309 136.974 39.1795C138.228 38.8557 140.701 37.8572 140.701 37.6746C140.701 37.5687 139.824 34.9043 139.532 34.1219C139.475 33.9684 139.1 34.0661 138.27 34.4513C136.854 35.1084 135.136 35.4292 133.969 35.2545C132.747 35.0718 131.507 34.1847 130.942 33.0903L130.482 32.1988L130.43 24.4379L130.378 16.677H134.183H137.988V14.6148V12.5526H134.19H130.392V8.24885V3.9451H128.527H126.663L126.253 7.57639ZM10.7023 11.1386C5.38726 12.0159 1.02772 16.8696 0.189815 22.8429C-0.849746 30.2537 2.44708 36.65 8.45114 38.8718C9.40787 39.226 10.1197 39.3413 11.7566 39.4078C15.3586 39.554 17.0829 38.9299 19.5968 36.5706L21.1011 35.1587L21.305 35.8335C21.815 37.5211 23.8205 38.894 25.9998 39.0472L27.2135 39.1325L27.6883 37.335L28.163 35.5375L27.5136 35.4166C26.5433 35.2362 25.8823 34.8381 25.4882 34.197C25.1482 33.6442 25.135 33.2169 25.1344 22.6395L25.1337 11.656H22.9634H20.7931V12.6423C20.7931 13.1847 20.7468 13.6285 20.69 13.6285C20.6334 13.6285 20.2249 13.3814 19.7821 13.0794C17.159 11.29 13.9463 10.6034 10.7023 11.1386ZM63.6561 11.8554C62.6116 12.334 61.6883 12.7497 61.6042 12.7793C61.5201 12.8088 63.8552 18.1966 66.793 24.7523L72.1346 36.6715L73.4114 36.7242C74.1137 36.7531 74.6883 36.8406 74.6883 36.9186C74.6883 36.9964 74.2768 38.0993 73.7739 39.3693C72.0093 43.8254 70.9733 45.3115 68.9398 46.3035C67.8212 46.8492 67.604 46.892 66.0104 46.88C64.6544 46.87 64.1053 46.785 63.4229 46.4799C62.7874 46.1959 62.5357 46.1516 62.4771 46.3135C62.4329 46.4349 62.1918 47.3009 61.9412 48.2378C61.4124 50.214 61.3984 50.1844 63.1135 50.7109C63.8356 50.9325 64.703 51.0114 66.2785 50.9987C68.1143 50.984 68.6786 50.9069 69.9408 50.4984C72.7629 49.5849 74.8187 47.5519 76.6694 43.8444C77.3644 42.4518 79.5761 36.7255 82.9371 27.6157C85.7938 19.8735 88.1655 13.3692 88.2077 13.1621C88.2733 12.8395 88.1062 12.7194 87.0476 12.3281C86.3674 12.0765 85.3991 11.7087 84.8956 11.5104L83.9803 11.1499L80.0129 22.333C77.8308 28.4838 75.9859 33.4572 75.913 33.3849C75.8402 33.3126 73.5393 28.2957 70.7999 22.236C68.0604 16.1764 65.7598 11.1661 65.6871 11.1019C65.6145 11.0379 64.7005 11.377 63.6561 11.8554ZM104.604 11.2048C102.473 11.6646 99.836 13.3741 98.5181 15.1506C98.1938 15.588 97.8674 15.949 97.7927 15.9527C97.718 15.9565 97.657 14.9914 97.657 13.8079V11.656H95.3963H93.1356V25.2845V38.9131H95.4867H97.8379V29.8755V20.838L98.8369 19.572C99.9906 18.1102 101.839 16.4943 103.054 15.8857C106.21 14.3048 109.464 15.2042 110.783 18.0219C111.497 19.5492 111.58 20.7977 111.581 30.0814L111.583 38.9131H113.944H116.304L116.247 28.6468L116.19 18.3806L115.714 16.9919C115.453 16.2282 114.983 15.2073 114.67 14.7231C113.915 13.5566 112.487 12.2531 111.482 11.8124C109.592 10.9833 106.781 10.7352 104.604 11.2048ZM152.956 11.1239C149.774 11.6551 146.94 13.5557 145.04 16.4324C143.261 19.1246 142.598 21.9396 142.743 26.1811C142.855 29.4437 143.115 30.6025 144.269 32.9954C145.784 36.135 148.779 38.4755 152.185 39.1822C153.86 39.5296 157.762 39.5262 159.791 39.1754C161.256 38.922 164.354 38.0139 164.905 37.6763C165.122 37.5437 164.933 36.6435 164.106 33.8633C164.026 33.5952 163.905 33.6094 162.894 34.0037C158.971 35.5343 154.758 35.7181 152.105 34.4745C150.16 33.5633 148.49 31.3879 147.843 28.9242C147.353 27.062 146.266 27.2571 157.135 27.2571H166.697L166.809 26.5846C166.871 26.2148 166.921 25.0245 166.921 23.9396C166.919 15.9687 162.276 10.8817 155.079 10.9661C154.383 10.9742 153.427 11.0452 152.956 11.1239ZM11.5015 15.2623C8.8163 15.8875 6.55722 18.1349 5.48311 21.2498C5.03802 22.5405 4.98793 22.9359 4.98341 25.1949C4.97907 27.4776 5.02356 27.8327 5.47425 29.1091C7.71271 35.4489 14.3293 37.3027 19.2374 32.9655L20.2506 32.0701V24.6449V17.2195L19.5724 16.7973C18.6379 16.2154 16.6514 15.4499 15.5288 15.2387C14.4029 15.0271 12.4633 15.0384 11.5015 15.2623ZM43.5351 15.2579C41.4657 15.7413 39.3671 17.5238 38.2749 19.7255C37.3225 21.6455 37.0134 23.2917 37.1306 25.8225C37.2735 28.909 38.0219 30.8312 39.8246 32.742C42.9692 36.0751 47.7333 36.1669 51.2694 32.9624L52.2621 32.0627V25.2908C52.2621 17.4653 52.4383 18.2093 50.2195 16.6645C48.1847 15.2475 45.7612 14.7376 43.5351 15.2579ZM152.986 15.297C150.04 16.1251 148.265 18.5336 147.507 22.7292L147.402 23.312H154.993H162.584L162.578 22.9085C162.561 21.8275 162.027 19.6862 161.532 18.7131C160.838 17.3516 159.472 16.1079 158.1 15.5894C156.821 15.1065 154.198 14.9564 152.986 15.297Z" fill="black"/>
</svg>
