<svg width="243" height="38" viewBox="0 0 243 38" fill="none" xmlns="http://www.w3.org/2000/svg">
<path fill-rule="evenodd" clip-rule="evenodd" d="M186.608 5.10769C186.608 10.1671 186.582 10.2061 183.978 9.21437C179.198 7.39511 176.306 8.05628 172.533 11.8344C169.18 15.1916 168.957 15.8066 169.459 20.2706C170.176 26.6442 173.627 29.7734 179.94 29.7734C182.413 29.7734 184.746 29.2714 185.125 28.6575C185.621 27.8536 186.126 27.8536 186.929 28.6575C187.542 29.2714 188.874 29.7734 189.889 29.7734C191.581 29.7734 191.734 28.5373 191.734 14.8867V0H189.171C186.78 0 186.608 0.343935 186.608 5.10769ZM213.266 5.24321C213.266 9.84474 213.046 10.392 211.472 9.71846C207.689 8.09838 204.192 8.08092 201.128 9.66713C197.123 11.741 195.835 14.1373 195.835 19.518C195.835 27.3443 204.363 32.4192 211.283 28.7108C212.65 27.9778 213.266 27.9778 213.266 28.7108C213.266 29.295 214.419 29.7734 215.829 29.7734H218.392V14.8867V0H215.829C213.43 0 213.266 0.334695 213.266 5.24321ZM126.287 2.04718C121.75 3.12005 117.092 7.74007 115.834 12.4176C114.839 16.1218 114.954 17.0746 117.102 22.8342C119.582 29.4798 132.719 32.5475 138.527 27.8382C140.562 26.1883 140.713 25.6596 139.556 24.2633C138.348 22.8054 137.958 22.7921 136.029 24.1452C133.486 25.9286 127.882 26.137 124.935 24.558C123.796 23.9471 122.189 21.8291 121.363 19.8496C119.555 15.5171 120.885 10.1476 124.37 7.70311C127.183 5.72985 133.231 5.71855 136.029 7.68155C137.958 9.0347 138.348 9.02135 139.556 7.56348C140.713 6.16721 140.562 5.63847 138.527 3.98861C137.214 2.92396 135.306 2.05334 134.287 2.05334C133.268 2.05334 131.819 1.87059 131.068 1.64678C130.317 1.42399 128.166 1.60366 126.287 2.04718ZM0 16.0099V29.9654L10.3454 29.6133C19.7609 29.2919 20.8662 29.0425 22.6492 26.8361C25.1602 23.7284 25.1449 20.0447 22.6093 17.5058C20.778 15.6721 20.737 15.2522 22.1151 12.4874C24.0385 8.62609 22.6308 4.47423 18.9202 3.06153C17.4632 2.50713 12.6104 2.05334 8.13589 2.05334H0V16.0099ZM5.12659 9.75337V13.3467H10.6407C17.0479 13.3467 19.2862 11.6856 17.4652 8.27907C16.5332 6.53476 15.3418 6.16002 10.7299 6.16002H5.12659V9.75337ZM28.7089 16.2173C28.7089 26.6647 30.6775 29.7734 37.2938 29.7734C39.6777 29.7734 42.1292 29.2714 42.7424 28.6575C43.5452 27.8536 44.0496 27.8536 44.5459 28.6575C44.9253 29.2714 46.1464 29.7734 47.2609 29.7734C49.166 29.7734 49.2695 29.1451 48.9948 19.2501C48.7241 9.50902 48.5498 8.7267 46.6519 8.7267C44.8268 8.7267 44.5674 9.51416 44.2937 15.8703C43.9451 23.9389 43.0049 25.6668 38.962 25.6668C34.9192 25.6668 33.979 23.9389 33.6304 15.8703C33.3495 9.35399 33.1208 8.69795 31.0158 8.39816C28.7899 8.08195 28.7089 8.35607 28.7089 16.2173ZM52.2891 8.9115C52.2881 9.37453 54.2239 14.2954 56.5893 19.8466C61.3416 30.9942 61.1888 33.4356 55.7495 33.2847C52.3773 33.1912 50.8772 34.7415 52.4757 36.6686C54.2669 38.8307 59.8846 38.2599 62.2572 35.6768C63.9992 33.7805 74.8481 10.4607 74.8481 8.61376C74.8481 8.315 73.8115 8.2185 72.5452 8.39816C70.753 8.65381 69.5749 10.3735 67.2218 16.1701C65.5598 20.2644 63.9428 23.6073 63.6291 23.599C63.3143 23.5919 61.6564 20.2418 59.9451 16.1557C57.5602 10.4618 56.3042 8.6497 54.5622 8.39816C53.3134 8.2185 52.2901 8.4495 52.2891 8.9115ZM80.7693 9.7585C77.1253 11.8108 75.8734 14.3056 75.8734 19.518C75.8734 22.8506 76.5224 24.4214 78.8704 26.7725C81.365 29.2704 82.7071 29.7734 86.8771 29.7734C92.1052 29.7734 96.1685 27.8156 94.9699 25.8741C94.528 25.1586 92.4087 24.9645 89.1923 25.3464C83.9355 25.9696 81 24.752 81 21.9482C81 20.863 82.9378 20.5334 89.3307 20.5334H97.6614L96.996 17.1967C95.5872 10.1363 87.0473 6.22162 80.7693 9.7585ZM101.165 8.89815C100.789 9.27391 100.481 14.1249 100.481 19.6782C100.481 29.7621 100.484 29.7734 103.044 29.7734C105.507 29.7734 105.608 29.5209 105.608 23.2962C105.608 16.4462 106.836 13.7502 110.222 13.166C111.421 12.9597 112.409 11.858 112.6 10.5131C112.96 7.98339 111.704 7.622 108.506 9.33551C106.992 10.1466 106.103 10.1466 105.293 9.33551C104.03 8.07066 102.186 7.87456 101.165 8.89815ZM149.696 8.93819C146.821 9.99053 143.653 13.5952 143.004 16.552C142.163 20.3876 144.141 26.2756 146.927 28.2304C149.458 30.0055 156.082 30.2693 158.992 28.7108C160.358 27.9778 160.975 27.9778 160.975 28.7108C160.975 29.295 161.897 29.7734 163.025 29.7734C164.946 29.7734 165.076 29.0887 165.076 18.9934C165.076 9.05421 164.923 8.21336 163.11 8.21336C162.03 8.21336 160.97 8.7421 160.755 9.38685C160.462 10.2677 159.817 10.2677 158.174 9.38685C155.89 8.16306 152.328 7.97518 149.696 8.93819ZM221.468 9.49465C221.468 10.2 223.375 15.1321 225.707 20.4544C230.419 31.2128 230.245 33.4777 224.726 33.2231C222.741 33.1307 221.378 33.6625 220.987 34.6809C219.677 38.1008 226.923 39.2445 230.555 36.1901C232.657 34.4232 243 12.2122 243 9.46796C243 7.66718 239.908 8.24724 238.742 10.2667C238.253 11.1137 236.64 14.5787 235.158 17.9667L232.464 24.1268L230.589 20.0201C229.557 17.7614 228.009 14.1814 227.15 12.0634C226.073 9.41251 224.945 8.21336 223.527 8.21336C222.395 8.21336 221.468 8.79035 221.468 9.49465ZM82.7943 13.4288C81.8069 14.0048 81 15.1454 81 15.9647C81 17.0848 82.3965 17.4534 86.6392 17.4534C92.4989 17.4534 93.3981 16.668 90.6677 13.9329C88.8375 12.1014 85.4437 11.8837 82.7943 13.4288ZM149.696 14.3734C145.474 18.6012 148.318 25.6668 154.242 25.6668C158.279 25.6668 160.291 23.6032 160.291 19.4657C160.291 13.2584 153.885 10.1794 149.696 14.3734ZM176.354 14.3734C172.143 18.5899 174.878 25.6668 180.719 25.6668C184.365 25.6668 186.608 23.1196 186.608 18.978C186.608 13.0942 180.412 10.3109 176.354 14.3734ZM202.488 14.3867C200.317 16.7881 200.036 21.7726 201.942 24.0723C203.76 26.2653 209.483 26.0969 211.569 23.789C213.871 21.2428 213.707 16.8682 211.215 14.3734C208.589 11.7441 204.871 11.7502 202.488 14.3867ZM5.12659 21.5601V25.6668H11.0734C17.2192 25.6668 19.481 24.5159 19.481 21.3907C19.481 18.8117 16.322 17.4534 10.3208 17.4534H5.12659V21.5601Z" fill="#1A1A1A"/>
</svg>
