<svg width="170" height="49" viewBox="0 0 170 49" fill="none" xmlns="http://www.w3.org/2000/svg">
<path d="M18.4113 7.98035V21.5723H5.92434V7.98035H0V40.4263H5.92594V27.2753H18.4097V40.4263H24.3373V7.98035H18.4113ZM43.3051 29.9392C43.3051 31.2397 42.7885 32.4869 41.8689 33.4065C40.9493 34.3261 39.7021 34.8428 38.4016 34.8428C37.1011 34.8428 35.8538 34.3261 34.9342 33.4065C34.0146 32.4869 33.498 31.2397 33.498 29.9392V16.0409H27.8768V29.9392C27.8768 32.7278 28.9846 35.4022 30.9564 37.374C32.9282 39.3458 35.6026 40.4536 38.3911 40.4536C41.1797 40.4536 43.8541 39.3458 45.8259 37.374C47.7977 35.4022 48.9055 32.7278 48.9055 29.9392V16.0409H43.3051V29.9392ZM84.9567 17.4731C84.9567 14.6232 86.8411 13.7203 88.9052 13.7203C90.5699 13.7203 92.7671 14.9872 94.2057 16.5236L97.8863 12.1838C96.0484 9.69799 92.3212 7.98035 89.2692 7.98035C83.1701 7.98035 78.7597 11.552 78.7597 17.4731C78.7597 28.4589 92.1865 24.9723 92.1865 31.1212C92.1865 33.0169 90.3454 34.6912 88.238 34.6912C84.9134 34.6912 83.8357 33.0666 82.3089 31.3473L78.2225 35.5957C80.8366 38.8033 84.0602 40.4327 87.9205 40.4327C93.7149 40.4327 98.3755 36.8178 98.3755 31.1661C98.3755 18.971 84.9471 22.7607 84.9471 17.4731M168.023 35.2429C164.701 35.2429 163.757 33.8059 163.757 31.6055V21.8626H168.921V16.9262H163.757V10.4133L158.057 12.9713V32.8164C158.057 37.8923 161.559 40.4503 166.361 40.4503C167.115 40.4632 167.869 40.4022 168.61 40.2707L170 35.1515C169.373 35.1948 168.653 35.2381 168.023 35.2381M64.7026 16.2029C61.9185 16.2029 59.9747 17.0112 58.0951 18.8539V8.1744H52.4659V27.9698C52.4659 35.3792 57.8225 40.4568 63.843 40.4568C70.5211 40.4568 76.3958 35.2894 76.3958 28.3322C76.3958 21.4617 70.9894 16.2077 64.7026 16.2077M64.6674 34.7906C63.8284 34.7906 62.9976 34.6254 62.2225 34.3043C61.4474 33.9833 60.7432 33.5127 60.1499 32.9194C59.5567 32.3262 59.0861 31.6219 58.765 30.8468C58.444 30.0717 58.2787 29.241 58.2787 28.402C58.2787 27.563 58.444 26.7323 58.765 25.9572C59.0861 25.1821 59.5567 24.4778 60.1499 23.8846C60.7432 23.2913 61.4474 22.8207 62.2225 22.4997C62.9976 22.1786 63.8284 22.0134 64.6674 22.0134C66.3617 22.0134 67.9867 22.6865 69.1848 23.8846C70.3829 25.0827 71.056 26.7076 71.056 28.402C71.056 30.0964 70.3829 31.7213 69.1848 32.9194C67.9867 34.1175 66.3617 34.7906 64.6674 34.7906ZM125.838 28.0371C125.838 21.0671 119.977 15.9126 113.286 15.9126C107.267 15.9126 101.909 20.9886 101.909 28.3996V48.2062H107.538V37.5122C109.414 39.3518 111.361 40.1633 114.142 40.1633C120.429 40.1633 125.838 34.9093 125.838 28.0371ZM120.508 27.9666C120.508 29.6609 119.834 31.2859 118.636 32.484C117.438 33.6821 115.813 34.3552 114.119 34.3552C112.425 34.3552 110.8 33.6821 109.601 32.484C108.403 31.2859 107.73 29.6609 107.73 27.9666C107.73 26.2722 108.403 24.6472 109.601 23.4491C110.8 22.251 112.425 21.5779 114.119 21.5779C115.813 21.5779 117.438 22.251 118.636 23.4491C119.834 24.6472 120.508 26.2722 120.508 27.9666Z" fill="black"/>
<path d="M144.029 15.64V9.98349C144.776 9.63414 145.409 9.07967 145.854 8.38462C146.298 7.68957 146.536 6.88254 146.54 6.05745V5.92755C146.54 3.52188 144.59 1.5717 142.184 1.5717H142.054C140.899 1.5717 139.791 2.03061 138.974 2.84749C138.157 3.66437 137.698 4.7723 137.698 5.92755V6.05745C137.702 6.88254 137.94 7.68957 138.385 8.38462C138.83 9.07967 139.463 9.63414 140.21 9.98349V15.64C138.062 15.9689 136.038 16.8597 134.345 18.2221L118.832 6.13924C118.942 5.7399 119 5.32934 119.007 4.91717C119.008 3.94641 118.722 2.9969 118.185 2.18873C117.647 1.38057 116.881 0.750054 115.985 0.37695C115.089 0.0038457 114.102 -0.0950877 113.15 0.0926637C112.197 0.280415 111.322 0.746416 110.634 1.43172C109.947 2.11703 109.478 2.99085 109.287 3.94266C109.096 4.89447 109.192 5.8815 109.562 6.77891C109.932 7.67632 110.56 8.44378 111.367 8.98423C112.173 9.52468 113.122 9.81382 114.093 9.81509C114.942 9.81109 115.775 9.58436 116.509 9.15755L131.785 21.0447C130.413 23.1179 129.697 25.5563 129.731 28.0423C129.765 30.5283 130.547 32.9464 131.975 34.9815L127.328 39.6292C126.953 39.5091 126.562 39.4454 126.167 39.44C125.371 39.4406 124.592 39.6775 123.929 40.1206C123.267 40.5637 122.751 41.1931 122.446 41.9294C122.142 42.6657 122.062 43.4758 122.218 44.2573C122.373 45.0388 122.757 45.7567 123.321 46.3201C123.884 46.8836 124.602 47.2674 125.383 47.423C126.165 47.5786 126.975 47.499 127.711 47.1944C128.448 46.8897 129.077 46.3737 129.52 45.7114C129.963 45.0491 130.2 44.2703 130.201 43.4735C130.196 43.0792 130.132 42.6879 130.012 42.3124L134.608 37.7143C136.107 38.8683 137.85 39.6638 139.704 40.04C141.558 40.4162 143.473 40.3631 145.303 39.8847C147.133 39.4063 148.829 38.5154 150.262 37.2802C151.695 36.045 152.825 34.4982 153.568 32.7584C154.31 31.0187 154.645 29.132 154.546 27.243C154.446 25.354 153.916 23.5128 152.995 21.8605C152.074 20.2081 150.788 18.7885 149.233 17.7102C147.679 16.632 145.899 15.9239 144.029 15.64ZM142.123 34.2438C141.274 34.2671 140.428 34.12 139.637 33.8111C138.845 33.5021 138.123 33.0377 137.514 32.4451C136.905 31.8525 136.421 31.1439 136.09 30.361C135.76 29.5782 135.589 28.737 135.589 27.8872C135.589 27.0374 135.76 26.1963 136.09 25.4134C136.421 24.6306 136.905 23.9219 137.514 23.3293C138.123 22.7368 138.845 22.2723 139.637 21.9633C140.428 21.6544 141.274 21.5073 142.123 21.5307C143.77 21.5883 145.329 22.2827 146.474 23.4675C147.619 24.6523 148.259 26.2351 148.26 27.8825C148.261 29.5299 147.622 31.1134 146.479 32.2993C145.335 33.4853 143.776 34.1812 142.13 34.2406" fill="black"/>
</svg>
