<svg width="178" height="38" viewBox="0 0 178 38" fill="none" xmlns="http://www.w3.org/2000/svg">
<path d="M77.5651 10.8175L68.6287 24.0036L77.8825 37.1896H71.1213L65.2481 28.8207L59.3748 37.1896H52.6137L61.8675 24.0036L52.7276 10.8175H59.3748L65.2481 19.1865L71.1213 10.8175H77.5651ZM43.0385 37.2978H48.7754V10.8175H43.0385V37.2978ZM43.0385 7.06636H48.7754V1.32939H43.0385V7.06636ZM30.4615 10.1281C25.6001 10.1281 22.8908 11.8998 21.7529 16.7096H21.4041C21.4041 16.7096 20.9687 13.2732 18.7174 11.5848C16.4662 9.89632 11.8832 9.57467 9.36394 11.1559C6.84467 12.7372 5.73696 15.9043 5.73696 15.9043L5.5517 10.8175H0V37.2978H5.73696V21.7034C5.73696 21.7034 5.7886 15.7959 9.14886 14.712C12.5091 13.628 16.1271 14.17 16.1271 21.9203V37.2768H22.0813V21.4083C22.0813 21.4083 22.0818 18.5544 23.3389 16.5499C24.5959 14.5454 27.1441 14.1037 28.639 14.5114C30.1339 14.9191 32.4046 16.3846 32.4046 21.9203V37.4903H38.4394V25.2484C38.4394 25.2484 38.4128 19.2331 37.836 16.7096C37.2592 14.1861 35.3228 10.1281 30.4615 10.1281ZM90.2261 11.3052C87.5808 13.4284 87.4615 16.2286 87.4577 16.6075V10.8176H81.7207V37.2979H87.4577V24.0577C87.4577 24.0577 87.4577 19.9882 88.8913 16.875C89.9755 14.5205 94.1272 15.0172 96.9421 15.0172V10.1191C96.9421 10.1191 92.2994 9.64109 90.2261 11.3052ZM120.783 13.9166C122.459 16.4929 121.975 20.4734 121.975 20.4734V36.8303H116.518L116.178 32.2411C116.178 32.2411 114.693 37.2978 108.178 37.2978C101.917 37.2978 99.3252 35.7443 98.453 31.105C97.6106 26.6244 99.6399 23.2945 102.856 21.763C106.072 20.2315 114.032 20.4201 116.178 20.4201C116.178 20.4201 117.229 13.4192 110.977 13.4192C104.726 13.4192 104.94 18.386 104.94 18.386H99.4592C99.4592 18.386 99.1594 14.2755 101.686 12.3059C104.212 10.3363 108.28 10.0553 111.02 10.0553C113.76 10.0553 118.63 10.6082 120.783 13.9166ZM116.178 23.6751H110.392C109.263 23.6751 108.14 23.9075 107.125 24.4022C106.347 24.7814 105.534 25.3471 104.969 26.1815C103.507 28.3376 104.12 32.0502 106.142 32.9274C108.812 34.0855 113.368 33.3006 114.514 31.6742C115.661 30.0477 116.178 29.0078 116.178 26.7415L116.178 23.6751ZM146.125 11.7807C143.413 9.67768 138.853 9.14703 135.396 11.1558C132.824 12.6503 131.769 16.3419 131.769 16.3419L131.584 10.8174H126.032V37.2977H131.769V21.7034C131.769 21.7034 131.95 15.87 135.551 14.7289C138.446 13.8116 143.711 14.1699 143.711 21.9202V37.2768H149.666V21.4082C149.666 17.4884 148.816 13.8668 146.125 11.7807ZM165.589 23.2399L176.876 10.8043H169.98L159.57 22.5152H159.161V0H153.424V37.2978H159.161V23.9648H159.57L171.08 36.9139H178L165.589 23.2399Z" fill="#101010"/>
</svg>
