<svg width="127" height="24" viewBox="0 0 127 24" fill="none" xmlns="http://www.w3.org/2000/svg">
<path d="M28.3442 4.40846C27.3064 3.76555 26.1542 3.44409 24.8868 3.44409C23.6928 3.44409 22.6692 3.738 21.8151 4.3258C21.2109 4.74217 20.7384 5.27793 20.3966 5.93207V3.77473H16.5667V23.255H20.3966V15.6421C20.7384 16.2973 21.2109 16.833 21.8151 17.2484C22.6692 17.8362 23.6928 18.1301 24.8868 18.1301C26.1542 18.1301 27.3064 17.8127 28.3442 17.179C29.3821 16.5452 30.1995 15.6686 30.7965 14.5481C31.3935 13.4276 31.6915 12.1785 31.6915 10.8009C31.6915 9.42319 31.3924 8.15165 30.7965 7.04033C30.1995 5.929 29.3821 5.0524 28.3442 4.40846ZM27.3247 12.7572C27.0033 13.345 26.5624 13.8042 26.0022 14.1348C25.4419 14.4655 24.8123 14.6308 24.1143 14.6308C23.4162 14.6308 22.7866 14.4655 22.2263 14.1348C21.6661 13.8042 21.2211 13.345 20.8905 12.7572C20.5599 12.1694 20.3945 11.5173 20.3945 10.8009C20.3945 10.0845 20.5599 9.40482 20.8905 8.81701C21.2211 8.22921 21.6661 7.76998 22.2263 7.43934C22.7866 7.1087 23.4152 6.94338 24.1143 6.94338C24.8133 6.94338 25.4409 7.1087 26.0022 7.43934C26.5624 7.76998 27.0033 8.22921 27.3247 8.81701C27.6462 9.40482 27.8074 10.0661 27.8074 10.8009C27.8074 11.5356 27.6462 12.1694 27.3247 12.7572Z" fill="#0A1C50"/>
<path d="M43.7385 4.54623C42.7006 3.81147 41.4556 3.44409 40.0055 3.44409C38.5554 3.44409 37.4022 3.77065 36.3276 4.42173C35.253 5.07383 34.4173 5.96064 33.8203 7.08115C33.2233 8.20165 32.9253 9.44156 32.9253 10.8009C32.9253 12.2704 33.2325 13.5562 33.8478 14.6583C34.4632 15.7605 35.3398 16.6146 36.4787 17.2208C37.6175 17.827 38.9217 18.1301 40.3913 18.1301C41.5669 18.1301 42.6231 17.9831 43.5599 17.6892C44.4967 17.3953 45.259 16.982 45.8468 16.4493V13.1705C45.1672 13.7399 44.4181 14.1899 43.6017 14.5206C42.7843 14.8512 41.9353 15.0165 41.0525 15.0165C40.0606 15.0165 39.1973 14.8329 38.4625 14.4655C37.7278 14.0981 37.1767 13.5838 36.8093 12.9225C36.5787 12.5082 36.4215 12.0581 36.3348 11.5724H46.3142C46.5163 10.0845 46.3969 8.72517 45.956 7.49445C45.5152 6.26373 44.7753 5.28099 43.7375 4.54623H43.7385ZM36.447 9.03744C36.5134 8.77824 36.597 8.53434 36.6991 8.30677C36.993 7.65467 37.4022 7.16279 37.9257 6.83317C38.4492 6.50252 39.0422 6.3372 39.7034 6.3372C40.2361 6.3372 40.7178 6.4566 41.1495 6.6954C41.5812 6.9342 41.9302 7.25565 42.1965 7.65977C42.4629 8.06389 42.6047 8.52311 42.6241 9.03744H36.4481H36.447Z" fill="#0A1C50"/>
<path d="M59.196 4.2013C58.3602 3.69615 57.3907 3.44409 56.2896 3.44409C55.6283 3.44409 55.0129 3.55941 54.4435 3.78902C53.8741 4.01863 53.3781 4.35438 52.9556 4.79421C52.6382 5.12485 52.3627 5.50142 52.129 5.92594V3.77473H48.2991V17.7994H52.129V10.4702C52.129 9.80894 52.2576 9.20787 52.5147 8.66496C52.7719 8.12308 53.125 7.70059 53.5761 7.3975C54.0261 7.09441 54.5353 6.94236 55.1048 6.94236C55.9681 6.94236 56.6661 7.23626 57.1988 7.82407C57.7315 8.41188 57.9979 9.19256 57.9979 10.1661V17.7984H61.8278V9.6426C61.8278 8.39351 61.5982 7.30055 61.139 6.36374C60.6798 5.42692 60.0317 4.70645 59.196 4.20028V4.2013Z" fill="#0A1C50"/>
<path d="M80.6234 3.4434C79.8703 3.4434 79.1855 3.5628 78.5712 3.8016C77.9558 4.04039 77.4047 4.38532 76.918 4.83434C76.6057 5.12314 76.3179 5.45991 76.0546 5.84361C75.9056 5.54563 75.7342 5.27316 75.5403 5.02722C74.7045 3.971 73.4687 3.4434 71.8349 3.4434C71.0817 3.4434 70.347 3.66383 69.6306 4.10469C68.9142 4.54554 68.3631 5.15172 67.9774 5.92321V3.77404H64.1475V17.7987H67.9774V10.2491C67.9774 9.23881 68.2162 8.43568 68.6938 7.83869C69.1714 7.2417 69.8051 6.94371 70.595 6.94371C71.3297 6.94371 71.9032 7.21516 72.3176 7.75603C72.7309 8.29791 72.937 9.03777 72.937 9.97357V17.7987H76.7945V10.2491C76.7945 9.22044 77.0282 8.41221 77.4966 7.8244C77.965 7.23659 78.6028 6.94269 79.4121 6.94269C80.1285 6.94269 80.6979 7.21414 81.1204 7.75501C81.5429 8.29689 81.7541 9.03675 81.7541 9.97255V17.7977H85.584V9.64191C85.584 7.65806 85.1473 6.12833 84.2747 5.05375C83.4022 3.97916 82.1848 3.44238 80.6244 3.44238L80.6234 3.4434Z" fill="#0A1C50"/>
<path d="M98.6741 5.90655C98.3241 5.26364 97.8516 4.73604 97.2546 4.3258C96.4004 3.738 95.3759 3.44409 94.1829 3.44409C92.9899 3.44409 91.7898 3.76555 90.753 4.40846C89.7152 5.05138 88.8926 5.929 88.2865 7.04033C87.6803 8.15165 87.3772 9.40584 87.3772 10.8009C87.3772 12.1959 87.6803 13.4276 88.2865 14.5481C88.8926 15.6686 89.7141 16.5452 90.753 17.179C91.7909 17.8127 92.9338 18.1301 94.1829 18.1301C95.432 18.1301 96.4004 17.8362 97.2546 17.2484C97.8506 16.8381 98.3231 16.3116 98.6741 15.6676V17.7994H102.532V3.77473H98.6741V5.90655ZM98.1914 12.7572C97.87 13.345 97.4291 13.8042 96.8689 14.1348C96.3086 14.4655 95.679 14.6308 94.9809 14.6308C94.2829 14.6308 93.6533 14.4655 93.093 14.1348C92.5328 13.8042 92.0878 13.345 91.7572 12.7572C91.4265 12.1694 91.2612 11.5173 91.2612 10.8009C91.2612 10.0845 91.4265 9.40482 91.7572 8.81701C92.0878 8.22921 92.5328 7.76998 93.093 7.43934C93.6533 7.1087 94.2819 6.94338 94.9809 6.94338C95.68 6.94338 96.3076 7.1087 96.8689 7.43934C97.4291 7.76998 97.87 8.22921 98.1914 8.81701C98.5129 9.40482 98.6741 10.0661 98.6741 10.8009C98.6741 11.5356 98.5129 12.1694 98.1914 12.7572Z" fill="#0A1C50"/>
<path d="M112.762 3.44409C112.156 3.44409 111.586 3.58186 111.054 3.85739C110.521 4.13293 110.066 4.51459 109.689 5.00137C109.313 5.48815 109.042 6.03412 108.877 6.64029V3.77473H105.047V17.7994H108.877V11.5173C108.895 10.6172 109.07 9.82731 109.401 9.14766C109.731 8.468 110.167 7.94449 110.71 7.57711C111.252 7.20973 111.862 7.02604 112.543 7.02604C112.965 7.02604 113.383 7.07196 113.796 7.16381C114.209 7.25565 114.581 7.41179 114.912 7.63222V3.96761C114.6 3.80229 114.255 3.6737 113.88 3.58186C113.503 3.49001 113.13 3.44409 112.763 3.44409H112.762Z" fill="#0A1C50"/>
<path d="M126.999 6.97053V3.77433H122.37V-0.000488281H118.513V3.77433H116.253V6.97053H118.513V12.1781C118.513 13.4823 118.751 14.5804 119.229 15.4713C119.707 16.3622 120.359 17.0275 121.185 17.4684C122.012 17.9093 122.958 18.1297 124.023 18.1297C124.482 18.1297 124.973 18.0746 125.497 17.9644C126.02 17.8541 126.52 17.7072 126.999 17.5235V14.162C126.668 14.364 126.324 14.5161 125.966 14.6171C125.608 14.7182 125.199 14.7682 124.74 14.7682C124.06 14.7682 123.495 14.5345 123.046 14.0661C122.596 13.5976 122.371 12.9047 122.371 11.9853V6.97053H127H126.999Z" fill="#0A1C50"/>
<path d="M7.17716 14.2303C5.18413 14.2303 3.56868 12.6148 3.56868 10.6218C3.56868 10.0319 3.71053 9.47474 3.96157 8.98286L0.780681 7.3623C0.281658 8.34096 0 9.4482 0 10.6218V17.7989H7.17716C8.35074 17.7989 9.45798 17.5173 10.4366 17.0183L8.81608 13.8374C8.3242 14.0884 7.76701 14.2303 7.17716 14.2303Z" fill="#0A1C50"/>
<path d="M7.17715 3.44312C6.0046 3.44312 4.89634 3.72477 3.9187 4.2238L5.53823 7.40469C6.03011 7.15365 6.58628 7.0118 7.17715 7.0118C9.17018 7.0118 10.7867 8.62827 10.7867 10.6213C10.7867 11.2122 10.6448 11.7683 10.3938 12.2602L13.5747 13.8808C14.0737 12.9021 14.3553 11.7949 14.3553 10.6213C14.3553 6.65666 11.1418 3.44312 7.17715 3.44312Z" fill="#0A1C50"/>
</svg>
