<svg width="275" height="41" viewBox="0 0 275 41" fill="none" xmlns="http://www.w3.org/2000/svg">
<path d="M272.918 19.3653L268.936 19.7997C268.824 19.3975 268.627 19.0194 268.345 18.6654C268.071 18.3115 267.701 18.0259 267.235 17.8087C266.768 17.5916 266.197 17.483 265.521 17.483C264.613 17.483 263.848 17.68 263.229 18.0742C262.618 18.4684 262.316 18.9792 262.324 19.6066C262.316 20.1456 262.513 20.584 262.915 20.9218C263.325 21.2597 264.001 21.5372 264.942 21.7544L268.104 22.4301C269.857 22.8082 271.16 23.4074 272.013 24.2279C272.874 25.0484 273.308 26.1223 273.316 27.4496C273.308 28.616 272.966 29.6457 272.291 30.5385C271.623 31.4234 270.694 32.1152 269.503 32.6139C268.313 33.1127 266.945 33.362 265.401 33.362C263.132 33.362 261.306 32.8874 259.923 31.9382C258.539 30.981 257.715 29.6497 257.449 27.9443L261.709 27.5341C261.902 28.3707 262.312 29.0021 262.939 29.4285C263.567 29.8548 264.383 30.068 265.389 30.068C266.426 30.068 267.259 29.8548 267.886 29.4285C268.522 29.0021 268.84 28.4752 268.84 27.8478C268.84 27.3169 268.635 26.8785 268.224 26.5326C267.822 26.1867 267.195 25.9212 266.342 25.7362L263.181 25.0726C261.403 24.7025 260.088 24.0791 259.235 23.2023C258.382 22.3175 257.96 21.1993 257.968 19.8479C257.96 18.7057 258.27 17.7162 258.897 16.8797C259.533 16.035 260.413 15.3834 261.54 14.9249C262.674 14.4584 263.981 14.2251 265.461 14.2251C267.633 14.2251 269.342 14.6876 270.589 15.6127C271.844 16.5378 272.62 17.7886 272.918 19.3653Z" fill="black"/>
<path d="M237.74 33V8.28845H242.108V17.5311H242.289C242.514 17.0807 242.832 16.602 243.242 16.0953C243.652 15.5804 244.207 15.142 244.907 14.78C245.607 14.41 246.5 14.225 247.586 14.225C249.018 14.225 250.309 14.591 251.459 15.323C252.617 16.047 253.534 17.1209 254.21 18.5447C254.894 19.9605 255.236 21.698 255.236 23.7573C255.236 25.7924 254.902 27.5219 254.234 28.9457C253.567 30.3695 252.658 31.4555 251.507 32.2036C250.357 32.9517 249.054 33.3257 247.598 33.3257C246.536 33.3257 245.655 33.1488 244.955 32.7948C244.255 32.4409 243.692 32.0146 243.266 31.5158C242.848 31.009 242.522 30.5304 242.289 30.0799H242.035V33H237.74ZM242.023 23.7331C242.023 24.9317 242.192 25.9815 242.53 26.8824C242.876 27.7833 243.371 28.4872 244.014 28.994C244.666 29.4927 245.454 29.7421 246.379 29.7421C247.344 29.7421 248.153 29.4847 248.804 28.9699C249.456 28.447 249.947 27.7351 250.276 26.8341C250.614 25.9252 250.783 24.8915 250.783 23.7331C250.783 22.5828 250.618 21.5612 250.289 20.6683C249.959 19.7754 249.468 19.0756 248.816 18.5688C248.165 18.062 247.352 17.8087 246.379 17.8087C245.446 17.8087 244.654 18.054 244.002 18.5447C243.351 19.0354 242.856 19.7232 242.518 20.608C242.188 21.4929 242.023 22.5346 242.023 23.7331Z" fill="black"/>
<path d="M224.049 33.3741C222.874 33.3741 221.816 33.1649 220.875 32.7467C219.942 32.3203 219.202 31.6929 218.655 30.8643C218.116 30.0358 217.847 29.0142 217.847 27.7995C217.847 26.7538 218.04 25.8891 218.426 25.2053C218.812 24.5216 219.339 23.9746 220.007 23.5643C220.674 23.1541 221.426 22.8444 222.263 22.6352C223.108 22.418 223.98 22.2612 224.881 22.1646C225.967 22.052 226.848 21.9515 227.524 21.863C228.199 21.7664 228.69 21.6217 228.996 21.4286C229.31 21.2275 229.466 20.9178 229.466 20.4995V20.4271C229.466 19.5181 229.197 18.8143 228.658 18.3155C228.119 17.8168 227.343 17.5674 226.329 17.5674C225.259 17.5674 224.411 17.8007 223.783 18.2673C223.164 18.7338 222.746 19.2848 222.528 19.9203L218.45 19.3411C218.772 18.215 219.303 17.2738 220.043 16.5177C220.783 15.7535 221.688 15.1823 222.758 14.8043C223.827 14.4182 225.01 14.2251 226.305 14.2251C227.198 14.2251 228.087 14.3297 228.972 14.5388C229.857 14.748 230.665 15.0939 231.397 15.5765C232.129 16.0511 232.716 16.6987 233.159 17.5192C233.609 18.3397 233.834 19.3653 233.834 20.596V33H229.635V30.4541H229.491C229.225 30.9689 228.851 31.4516 228.368 31.902C227.894 32.3445 227.294 32.7024 226.571 32.9759C225.855 33.2414 225.014 33.3741 224.049 33.3741ZM225.183 30.1645C226.06 30.1645 226.82 29.9915 227.463 29.6457C228.107 29.2917 228.602 28.8252 228.948 28.246C229.301 27.6668 229.478 27.0353 229.478 26.3516V24.1676C229.342 24.2802 229.108 24.3848 228.779 24.4813C228.457 24.5779 228.095 24.6623 227.693 24.7347C227.29 24.8071 226.892 24.8715 226.498 24.9278C226.104 24.9841 225.762 25.0324 225.472 25.0726C224.821 25.1611 224.238 25.3059 223.723 25.507C223.208 25.7081 222.802 25.9896 222.504 26.3516C222.207 26.7055 222.058 27.164 222.058 27.7271C222.058 28.5315 222.351 29.1389 222.939 29.5491C223.526 29.9594 224.274 30.1645 225.183 30.1645Z" fill="black"/>
<path d="M200.342 33V8.28845H204.819V29.2474H215.703V33H200.342Z" fill="black"/>
<path d="M178.903 33.3741C177.728 33.3741 176.67 33.1649 175.729 32.7467C174.796 32.3203 174.056 31.6929 173.509 30.8643C172.97 30.0358 172.701 29.0142 172.701 27.7995C172.701 26.7538 172.894 25.8891 173.28 25.2053C173.666 24.5216 174.193 23.9746 174.861 23.5643C175.528 23.1541 176.28 22.8444 177.117 22.6352C177.962 22.418 178.834 22.2612 179.735 22.1646C180.821 22.052 181.702 21.9515 182.378 21.863C183.053 21.7664 183.544 21.6217 183.85 21.4286C184.164 21.2275 184.32 20.9178 184.32 20.4995V20.4271C184.32 19.5181 184.051 18.8143 183.512 18.3155C182.973 17.8168 182.197 17.5674 181.183 17.5674C180.113 17.5674 179.265 17.8007 178.637 18.2673C178.018 18.7338 177.6 19.2848 177.382 19.9203L173.304 19.3411C173.626 18.215 174.157 17.2738 174.897 16.5177C175.637 15.7535 176.542 15.1823 177.612 14.8043C178.681 14.4182 179.864 14.2251 181.159 14.2251C182.052 14.2251 182.941 14.3297 183.826 14.5388C184.711 14.748 185.519 15.0939 186.251 15.5765C186.983 16.0511 187.57 16.6987 188.013 17.5192C188.463 18.3397 188.688 19.3653 188.688 20.596V33H184.489V30.4541H184.345C184.079 30.9689 183.705 31.4516 183.222 31.902C182.748 32.3445 182.148 32.7024 181.425 32.9759C180.709 33.2414 179.868 33.3741 178.903 33.3741ZM180.037 30.1645C180.914 30.1645 181.674 29.9915 182.317 29.6457C182.961 29.2917 183.456 28.8252 183.802 28.246C184.155 27.6668 184.332 27.0353 184.332 26.3516V24.1676C184.196 24.2802 183.962 24.3848 183.633 24.4813C183.311 24.5779 182.949 24.6623 182.547 24.7347C182.144 24.8071 181.746 24.8715 181.352 24.9278C180.958 24.9841 180.616 25.0324 180.326 25.0726C179.675 25.1611 179.092 25.3059 178.577 25.507C178.062 25.7081 177.656 25.9896 177.358 26.3516C177.061 26.7055 176.912 27.164 176.912 27.7271C176.912 28.5315 177.205 29.1389 177.793 29.5491C178.38 29.9594 179.128 30.1645 180.037 30.1645Z" fill="black"/>
<path d="M170.596 14.4663V17.8449H159.941V14.4663H170.596ZM162.572 10.026H166.94V27.4254C166.94 28.0126 167.028 28.4631 167.205 28.7768C167.39 29.0825 167.632 29.2916 167.929 29.4043C168.227 29.5169 168.557 29.5732 168.919 29.5732C169.192 29.5732 169.441 29.5531 169.667 29.5129C169.9 29.4726 170.077 29.4364 170.198 29.4043L170.934 32.819C170.7 32.8994 170.367 32.9879 169.932 33.0844C169.506 33.181 168.983 33.2373 168.364 33.2534C167.27 33.2855 166.284 33.1206 165.407 32.7587C164.531 32.3886 163.835 31.8175 163.32 31.0453C162.813 30.273 162.564 29.3077 162.572 28.1494V10.026Z" fill="black"/>
<path d="M147.843 33.3741C146.669 33.3741 145.611 33.1649 144.67 32.7467C143.737 32.3203 142.997 31.6929 142.45 30.8643C141.911 30.0358 141.641 29.0142 141.641 27.7995C141.641 26.7538 141.834 25.8891 142.22 25.2053C142.606 24.5216 143.133 23.9746 143.801 23.5643C144.469 23.1541 145.221 22.8444 146.057 22.6352C146.902 22.418 147.775 22.2612 148.676 22.1646C149.762 22.052 150.642 21.9515 151.318 21.863C151.994 21.7664 152.485 21.6217 152.79 21.4286C153.104 21.2275 153.261 20.9178 153.261 20.4995V20.4271C153.261 19.5181 152.991 18.8143 152.452 18.3155C151.913 17.8168 151.137 17.5674 150.124 17.5674C149.054 17.5674 148.205 17.8007 147.578 18.2673C146.958 18.7338 146.54 19.2848 146.323 19.9203L142.244 19.3411C142.566 18.215 143.097 17.2738 143.837 16.5177C144.577 15.7535 145.482 15.1823 146.552 14.8043C147.622 14.4182 148.804 14.2251 150.099 14.2251C150.992 14.2251 151.881 14.3297 152.766 14.5388C153.651 14.748 154.459 15.0939 155.191 15.5765C155.923 16.0511 156.511 16.6987 156.953 17.5192C157.404 18.3397 157.629 19.3653 157.629 20.596V33H153.43V30.4541H153.285C153.02 30.9689 152.645 31.4516 152.163 31.902C151.688 32.3445 151.089 32.7024 150.365 32.9759C149.649 33.2414 148.808 33.3741 147.843 33.3741ZM148.977 30.1645C149.854 30.1645 150.614 29.9915 151.258 29.6457C151.901 29.2917 152.396 28.8252 152.742 28.246C153.096 27.6668 153.273 27.0353 153.273 26.3516V24.1676C153.136 24.2802 152.903 24.3848 152.573 24.4813C152.251 24.5779 151.889 24.6623 151.487 24.7347C151.085 24.8071 150.687 24.8715 150.293 24.9278C149.898 24.9841 149.557 25.0324 149.267 25.0726C148.615 25.1611 148.032 25.3059 147.517 25.507C147.003 25.7081 146.596 25.9896 146.299 26.3516C146.001 26.7055 145.852 27.164 145.852 27.7271C145.852 28.5315 146.146 29.1389 146.733 29.5491C147.32 29.9594 148.068 30.1645 148.977 30.1645Z" fill="black"/>
<path d="M127.135 33H118.761V8.28845H127.304C129.758 8.28845 131.865 8.78316 133.627 9.77259C135.396 10.754 136.756 12.1657 137.705 14.0078C138.654 15.8499 139.129 18.054 139.129 20.6201C139.129 23.1942 138.65 25.4063 137.693 27.2565C136.744 29.1066 135.372 30.5264 133.578 31.5158C131.793 32.5052 129.645 33 127.135 33ZM123.238 29.1267H126.918C128.639 29.1267 130.075 28.813 131.226 28.1856C132.376 27.5501 133.241 26.6049 133.82 25.35C134.399 24.0871 134.689 22.5104 134.689 20.6201C134.689 18.7297 134.399 17.1611 133.82 15.9143C133.241 14.6594 132.384 13.7222 131.25 13.1029C130.124 12.4754 128.724 12.1617 127.051 12.1617H123.238V29.1267Z" fill="black"/>
<path d="M99.5629 33.362C97.7047 33.362 96.0999 32.9759 94.7485 32.2037C93.4051 31.4234 92.3715 30.3214 91.6475 28.8976C90.9235 27.4657 90.5615 25.7805 90.5615 23.8418C90.5615 21.9354 90.9235 20.2622 91.6475 18.8223C92.3795 17.3744 93.4011 16.2482 94.7123 15.4438C96.0235 14.6313 97.5639 14.2251 99.3336 14.2251C100.476 14.2251 101.554 14.4101 102.567 14.7801C103.589 15.1421 104.49 15.7052 105.27 16.4694C106.059 17.2336 106.678 18.2069 107.128 19.3894C107.579 20.5639 107.804 21.9635 107.804 23.5884V24.9278H92.6128V21.9836H103.617C103.609 21.1471 103.428 20.403 103.074 19.7514C102.72 19.0918 102.225 18.5729 101.59 18.1949C100.963 17.8168 100.231 17.6278 99.394 17.6278C98.5011 17.6278 97.7168 17.8449 97.0411 18.2793C96.3653 18.7057 95.8385 19.2688 95.4604 19.9686C95.0904 20.6604 94.9013 21.4206 94.8933 22.2491V24.8192C94.8933 25.8971 95.0904 26.8222 95.4845 27.5944C95.8787 28.3586 96.4297 28.9458 97.1376 29.3561C97.8455 29.7583 98.674 29.9594 99.6232 29.9594C100.259 29.9594 100.834 29.8709 101.349 29.6939C101.864 29.5089 102.31 29.2394 102.688 28.8855C103.066 28.5315 103.352 28.0931 103.545 27.5703L107.623 28.0288C107.366 29.1067 106.875 30.0479 106.151 30.8523C105.435 31.6486 104.518 32.268 103.4 32.7105C102.282 33.1448 101.003 33.362 99.5629 33.362Z" fill="black"/>
<path d="M87.5457 8.28845V33H83.1777V8.28845H87.5457Z" fill="black"/>
<path d="M62.6211 39.9502V14.4664H66.9166V17.5312H67.17C67.3953 17.0808 67.713 16.6021 68.1233 16.0954C68.5335 15.5805 69.0886 15.1421 69.7884 14.7801C70.4882 14.4101 71.3811 14.2251 72.4671 14.2251C73.8989 14.2251 75.19 14.5911 76.3403 15.3231C77.4987 16.0471 78.4157 17.121 79.0914 18.5448C79.7752 19.9605 80.117 21.6981 80.117 23.7574C80.117 25.7925 79.7832 27.522 79.1155 28.9458C78.4479 30.3696 77.5389 31.4556 76.3886 32.2037C75.2383 32.9518 73.9351 33.3258 72.4791 33.3258C71.4173 33.3258 70.5365 33.1489 69.8367 32.7949C69.1368 32.441 68.5737 32.0146 68.1474 31.5159C67.7291 31.0091 67.4033 30.5305 67.17 30.08H66.989V39.9502H62.6211ZM66.9046 23.7332C66.9046 24.9318 67.0735 25.9816 67.4114 26.8825C67.7573 27.7834 68.252 28.4873 68.8955 28.9941C69.5471 29.4928 70.3354 29.7422 71.2605 29.7422C72.2258 29.7422 73.0342 29.4848 73.6858 28.9699C74.3373 28.4471 74.828 27.7352 75.1578 26.8342C75.4957 25.9253 75.6646 24.8916 75.6646 23.7332C75.6646 22.5829 75.4997 21.5613 75.1699 20.6684C74.8401 19.7755 74.3494 19.0757 73.6978 18.5689C73.0463 18.0621 72.2338 17.8087 71.2605 17.8087C70.3274 17.8087 69.535 18.0541 68.8834 18.5448C68.2319 19.0355 67.7371 19.7232 67.3993 20.6081C67.0695 21.4929 66.9046 22.5347 66.9046 23.7332Z" fill="black"/>
<path d="M50.7122 33.362C48.9023 33.362 47.3337 32.9638 46.0064 32.1675C44.6792 31.3711 43.6495 30.257 42.9175 28.8252C42.1935 27.3933 41.8315 25.7201 41.8315 23.8056C41.8315 21.8911 42.1935 20.2139 42.9175 18.774C43.6495 17.3341 44.6792 16.216 46.0064 15.4196C47.3337 14.6233 48.9023 14.2251 50.7122 14.2251C52.5222 14.2251 54.0908 14.6233 55.418 15.4196C56.7453 16.216 57.7709 17.3341 58.4949 18.774C59.2269 20.2139 59.5929 21.8911 59.5929 23.8056C59.5929 25.7201 59.2269 27.3933 58.4949 28.8252C57.7709 30.257 56.7453 31.3711 55.418 32.1675C54.0908 32.9638 52.5222 33.362 50.7122 33.362ZM50.7364 29.8628C51.7178 29.8628 52.5383 29.5934 53.1979 29.0544C53.8575 28.5074 54.3482 27.7754 54.6699 26.8584C54.9997 25.9413 55.1646 24.9197 55.1646 23.7936C55.1646 22.6593 54.9997 21.6337 54.6699 20.7167C54.3482 19.7916 53.8575 19.0556 53.1979 18.5086C52.5383 17.9616 51.7178 17.6881 50.7364 17.6881C49.7309 17.6881 48.8943 17.9616 48.2266 18.5086C47.567 19.0556 47.0723 19.7916 46.7425 20.7167C46.4207 21.6337 46.2598 22.6593 46.2598 23.7936C46.2598 24.9197 46.4207 25.9413 46.7425 26.8584C47.0723 27.7754 47.567 28.5074 48.2266 29.0544C48.8943 29.5934 49.7309 29.8628 50.7364 29.8628Z" fill="black"/>
<path d="M31.371 33.362C29.5128 33.362 27.908 32.9759 26.5566 32.2037C25.2132 31.4234 24.1796 30.3214 23.4556 28.8976C22.7316 27.4657 22.3696 25.7805 22.3696 23.8418C22.3696 21.9354 22.7316 20.2622 23.4556 18.8223C24.1876 17.3744 25.2092 16.2482 26.5204 15.4438C27.8316 14.6313 29.372 14.2251 31.1417 14.2251C32.284 14.2251 33.3619 14.4101 34.3755 14.7801C35.3971 15.1421 36.298 15.7052 37.0783 16.4694C37.8666 17.2336 38.486 18.2069 38.9365 19.3894C39.3869 20.5639 39.6122 21.9635 39.6122 23.5884V24.9278H24.4209V21.9836H35.4252C35.4172 21.1471 35.2362 20.403 34.8822 19.7514C34.5283 19.0918 34.0336 18.5729 33.3981 18.1949C32.7707 17.8168 32.0386 17.6278 31.2021 17.6278C30.3092 17.6278 29.5249 17.8449 28.8492 18.2793C28.1735 18.7057 27.6466 19.2688 27.2685 19.9686C26.8985 20.6604 26.7094 21.4206 26.7014 22.2491V24.8192C26.7014 25.8971 26.8985 26.8222 27.2926 27.5944C27.6868 28.3586 28.2378 28.9458 28.9457 29.3561C29.6536 29.7583 30.4821 29.9594 31.4313 29.9594C32.0668 29.9594 32.642 29.8709 33.1568 29.6939C33.6716 29.5089 34.118 29.2394 34.4961 28.8855C34.8742 28.5315 35.1598 28.0931 35.3528 27.5703L39.4312 28.0288C39.1738 29.1067 38.6831 30.0479 37.9591 30.8523C37.2432 31.6486 36.3262 32.268 35.208 32.7105C34.0899 33.1448 32.8109 33.362 31.371 33.362Z" fill="black"/>
<path d="M2.4375 33V8.28845H11.7043C13.6027 8.28845 15.1955 8.64239 16.4825 9.35027C17.7776 10.0582 18.755 11.0315 19.4146 12.2703C20.0823 13.501 20.4161 14.9007 20.4161 16.4693C20.4161 18.054 20.0823 19.4617 19.4146 20.6925C18.7469 21.9232 17.7615 22.8925 16.4584 23.6004C15.1552 24.3003 13.5504 24.6502 11.644 24.6502H5.50231V20.97H11.0407C12.1508 20.97 13.0597 20.7769 13.7676 20.3908C14.4755 20.0047 14.9984 19.4738 15.3362 18.7981C15.6821 18.1224 15.8551 17.3461 15.8551 16.4693C15.8551 15.5925 15.6821 14.8203 15.3362 14.1526C14.9984 13.4849 14.4715 12.9661 13.7556 12.5961C13.0477 12.218 12.1347 12.029 11.0165 12.029H6.91405V33H2.4375Z" fill="black"/>
</svg>
