<svg width="231" height="33" viewBox="0 0 231 33" fill="none" xmlns="http://www.w3.org/2000/svg">
<path fill-rule="evenodd" clip-rule="evenodd" d="M84.8908 0.241984C83.4272 0.884023 82.6997 1.89881 82.7043 3.29221C82.71 4.92858 84.0053 6.29415 85.7218 6.47306C87.5782 6.66656 89.2703 5.37527 89.4668 3.61533C89.583 2.57489 89.2751 1.79703 88.4399 1.01951C87.3786 0.0317164 86.0393 -0.261552 84.8908 0.241984ZM122.054 1.57251C119.296 2.02977 117.167 3.10676 115.449 4.91382C114.186 6.24183 113.504 7.63607 113.24 9.43257C112.859 12.0343 113.639 14.4912 115.35 16.0696C117.043 17.6322 118.95 18.4823 123.111 19.5296C127.88 20.7297 129.111 21.3273 129.731 22.7418C130.497 24.4904 129.484 26.3003 127.263 27.1533C126.524 27.4368 125.92 27.5282 124.717 27.5386C121.357 27.5674 119.233 26.2123 118.702 23.702L118.545 22.9591H115.487H112.428V23.7623C112.428 24.204 112.541 25.0152 112.68 25.5649C113.632 29.3274 116.455 31.7763 120.897 32.6927C122.396 33.0019 123.014 33.0404 125.298 32.968C128.339 32.8714 129.448 32.6367 131.482 31.6581C135.345 29.8001 137.216 25.9324 136.252 21.8C135.919 20.3732 135.281 19.2201 134.246 18.1706C132.522 16.4239 130.533 15.5238 125.915 14.4012C121.894 13.4233 120.503 12.7003 119.979 11.3154C119.524 10.1127 119.748 9.14836 120.707 8.17969C121.756 7.12097 122.843 6.79835 125.03 6.89645C127.65 7.01399 129.224 8.00547 129.744 9.86636L129.959 10.6348L132.984 10.6806L136.009 10.7262L136.005 10.0099C135.985 6.35283 132.885 2.93338 128.585 1.82285C126.87 1.38001 123.901 1.26616 122.054 1.57251ZM0 4.51458V7.19743H4.64889H9.29762L9.3403 19.899L9.38282 32.6006H12.5381H15.6934L15.7359 19.899L15.7786 7.19743H20.4273H25.0762V4.51458V1.83174H12.5381H0V4.51458ZM29.8922 17.2581V32.6845H33.0474H36.2027V25.9163C36.2027 17.794 36.2999 17.073 37.5705 15.7607C38.341 14.9649 38.9732 14.6978 40.2902 14.6115C42.328 14.478 43.575 15.136 44.3186 16.7371L44.7552 17.6773L44.8075 25.1846L44.8598 32.6918L47.9628 32.6462L51.0658 32.6006L51.1113 24.8874C51.1586 16.875 51.0869 15.6522 50.4723 13.9937C49.7768 12.1166 48.1053 10.4355 46.2066 9.70321C44.8806 9.19162 42.47 9.07257 41.0227 9.44683C39.1169 9.9398 37.4604 11.2308 36.7009 12.8146C36.502 13.2296 36.2712 13.5692 36.188 13.5692C36.0998 13.5692 36.0367 11.1179 36.0367 7.70046V1.83174H32.9644H29.8922V17.2581ZM209.411 17.2581V32.6845H212.567H215.722V29.0011V25.3179L216.49 24.4319C216.912 23.9448 217.31 23.4875 217.374 23.4159C217.438 23.3443 218.902 25.4005 220.627 27.9851L223.763 32.6845H227.381C229.62 32.6845 231 32.6221 231 32.5211C231 32.4313 229.083 29.545 226.739 26.1075C224.396 22.6697 222.453 19.7439 222.421 19.6056C222.39 19.4673 223.491 18.0336 224.869 16.4197C226.247 14.8058 228.121 12.5988 229.032 11.5151L230.689 9.54492H227.049H223.409L219.773 13.9027C217.773 16.2997 216.044 18.2615 215.929 18.2623C215.766 18.2638 215.722 16.5101 215.722 10.048V1.83174H212.567H209.411V17.2581ZM143.113 6.73631L143.067 9.46108L141.531 9.50937L139.995 9.55749V11.8924V14.2273L141.531 14.2754L143.067 14.3237L143.153 21.45C143.247 29.2434 143.21 28.9483 144.289 30.4481C144.939 31.3501 145.982 32.0664 147.316 32.5267C148.159 32.8176 148.762 32.8944 150.208 32.8944C151.807 32.8944 153.764 32.5875 154.058 32.2909C154.102 32.246 153.93 31.193 153.675 29.9508L153.211 27.6925L151.952 27.7152C150.549 27.7406 149.902 27.4625 149.619 26.7123C149.529 26.4728 149.461 23.6889 149.461 20.2654V14.2399H151.62H153.779V11.8924V9.54492H151.62H149.461V6.77823V4.01155H146.31H143.159L143.113 6.73631ZM64.5173 9.44699C61.5365 10.1415 59.0737 11.9335 57.6553 14.4398C55.5338 18.1885 55.5391 24.1837 57.6675 27.9895C58.4848 29.4513 60.1791 31.0253 61.7999 31.829C63.756 32.7986 65.288 33.0797 68.0846 32.9816C70.5943 32.8936 72.1936 32.4732 73.8753 31.4594C75.5691 30.4384 77.336 28.1236 77.6564 26.506L77.752 26.0235L76.4487 25.9193C75.732 25.862 74.4353 25.7671 73.5671 25.7086L71.9885 25.6021L71.5743 26.2376C70.9487 27.1974 70.1142 27.7792 68.924 28.0859C66.5225 28.7048 64.0964 27.7836 63.0725 25.864C62.6121 25.001 62.1875 23.2643 62.3393 22.8651C62.4173 22.6598 63.5914 22.6238 70.1815 22.6238H77.9322L77.8392 20.3182C77.7317 17.6557 77.4788 16.5384 76.5495 14.6212C75.3895 12.2286 73.4238 10.5892 70.6618 9.71109C69.1753 9.23857 65.9981 9.10191 64.5173 9.44699ZM105.005 9.56219C103.854 10.0089 102.637 11.1429 102.083 12.2851C101.836 12.7954 101.633 13.2929 101.633 13.3909C101.633 13.489 101.559 13.5692 101.467 13.5692C101.366 13.5692 101.301 12.7866 101.301 11.5571V9.54492H98.2278H95.1544L95.1971 21.0728L95.2398 32.6006L98.3437 32.6462L101.448 32.6918L101.499 25.5077L101.55 18.3234L102.05 17.3369C102.993 15.4772 104.729 14.6178 107.191 14.7934C107.925 14.8457 108.656 14.9394 108.816 15.0013C109.085 15.1061 109.106 14.9096 109.106 12.2653C109.106 8.9619 109.268 9.20939 107.114 9.22063C106.28 9.22482 105.582 9.338 105.005 9.56219ZM165.486 9.4817C162.821 10.0431 160.331 11.7666 159.344 13.7327C158.883 14.6517 158.39 15.9344 158.468 16.0116C158.492 16.0351 159.558 16.138 160.836 16.2405C162.115 16.3427 163.397 16.4568 163.685 16.4937C164.157 16.5544 164.256 16.4828 164.705 15.7532C165.447 14.5471 166.434 14.0261 168.128 13.9451C169.287 13.8898 169.574 13.9346 170.209 14.2699C171.084 14.7315 171.516 15.2817 171.719 16.1923C172.12 17.9945 171.404 18.428 167.192 18.935C162.848 19.458 161.024 20.0571 159.523 21.4541C158.043 22.8312 157.403 24.9277 157.748 27.268C157.99 28.9105 158.387 29.7918 159.357 30.8388C160.816 32.4135 162.994 33.1303 165.862 32.9792C168.399 32.8454 170.071 32.0392 171.354 30.3321C171.664 29.9198 171.984 29.5573 172.065 29.5266C172.146 29.4957 172.212 30.1954 172.212 31.0815V32.6922L175.16 32.6464L178.107 32.6006L178.153 24.4682C178.192 17.5872 178.159 16.1523 177.94 15.143C177.319 12.2932 174.981 10.2581 171.494 9.5315C169.673 9.15205 167.151 9.13126 165.486 9.4817ZM191.82 9.392C186.077 10.5294 182.663 15.4551 183.063 22.0245C183.195 24.1958 183.528 25.5667 184.328 27.2349C185.521 29.7216 187.496 31.48 190.14 32.4076C191.355 32.8342 191.869 32.916 193.718 32.9786C197.397 33.1028 199.804 32.3033 201.848 30.2779C203.321 28.8186 204.429 26.4175 204.429 24.6845V24.1329H201.474H198.52L198.316 24.9005C197.466 28.1102 193.512 29.0653 191.194 26.6209C188.87 24.1701 188.893 17.9582 191.235 15.5235C192.077 14.6472 192.724 14.3641 194.087 14.2749C195.145 14.2057 195.395 14.25 196.206 14.6504C197.274 15.1777 197.891 15.9173 198.286 17.1409L198.567 18.0126L201.498 18.0584L204.429 18.1042L204.427 17.4716C204.422 15.769 203.421 13.5606 202.002 12.1223C200.735 10.8384 198.779 9.81672 196.9 9.45806C195.495 9.18978 193.004 9.15741 191.82 9.392ZM82.9081 21.0728L82.9508 32.6006L86.0645 32.6462L89.1783 32.6918V21.1184V9.54492H86.0218H82.8654L82.9081 21.0728ZM66.4036 14.0843C64.3504 14.4108 62.6043 16.1705 62.415 18.1039L62.3584 18.6834L67.1562 18.728L71.9541 18.7724L71.8568 17.9429C71.5547 15.3669 69.1296 13.651 66.4036 14.0843ZM171.133 22.2012C170.859 22.3228 169.663 22.5832 168.476 22.7801C165.012 23.3545 163.743 24.2119 163.743 25.9773C163.743 26.9604 164.232 27.7408 165.154 28.2264C165.67 28.498 166.12 28.5758 167.163 28.5742C168.327 28.5722 168.638 28.5042 169.481 28.0693C170.562 27.5111 171.431 26.5122 171.706 25.512C171.903 24.7959 171.943 21.9462 171.755 21.9668C171.687 21.9742 171.407 22.0798 171.133 22.2012Z" fill="black"/>
</svg>
