<svg width="249" height="30" viewBox="0 0 249 30" fill="none" xmlns="http://www.w3.org/2000/svg">
<path d="M0 0.000854492H20.838V5.857H6.93887V11.3328H17.8431V17.1892H6.93887V28.711H0V0.000854492Z" fill="black"/>
<path d="M70.792 0.000854492H91.1031V5.857H77.731V11.1845H89.4365V17.0198H77.731V22.8754H91.3141V28.711H70.792V0.000854492Z" fill="black"/>
<path d="M112.498 0.000854492C117.37 0.000854492 121.166 2.36813 121.166 7.61184C121.166 9.91564 119.732 12.6222 116.99 13.5104C120.197 14.2927 122.538 16.7237 122.538 20.7623C122.538 25.1592 119.543 28.7118 112.941 28.7118H100.897V0.00162862L112.498 0.000854492ZM103.429 12.8334H112.287C115.768 12.8334 118.573 10.8889 118.573 7.65346C118.573 4.65137 116.738 2.28383 112.583 2.28383H103.429L103.429 12.8334ZM103.429 15.0324V26.428H113.532C117.202 26.428 120.007 24.6316 120.007 20.7837C120.007 17.549 118.025 15.0332 113.532 15.0332L103.429 15.0324Z" fill="black"/>
<path d="M124.372 0.000784048H127.431L136.69 14.6733L145.949 0.000784048H149.007L137.955 17.294V28.711H135.425V17.3156L124.372 0.000784048Z" fill="black"/>
<path d="M155.164 0.000854492H176.002V5.857H162.103V11.3328H173.007V17.1892H162.103V28.711H155.164V0.000854492Z" fill="black"/>
<path d="M188.471 28.711H181.532V0.000854492H188.471V28.711Z" fill="black"/>
<path d="M193.156 0.000854492H200.728L207.9 21.7133L215.007 0.000854492H222.58L212.435 28.711H203.302L193.156 0.000854492Z" fill="black"/>
<path d="M36.7407 0.000854492H44.3127L51.484 21.7133L58.5921 0.000854492H66.164L56.0192 28.711H46.8863L36.7407 0.000854492Z" fill="black"/>
<path d="M238.919 25.5148C238.919 24.5439 239.129 23.6539 239.5 22.8749H234.203V17.0198H245.909V11.1845H234.203V5.857H247.575V0.000854492H227.264V28.711H239.809C239.242 27.8147 238.919 26.727 238.919 25.5148Z" fill="black"/>
<path d="M244.638 21.8575C246.79 21.8575 248.308 23.3382 248.308 25.515C248.308 27.6916 246.79 29.1524 244.638 29.1524C242.487 29.1524 241.01 27.6715 241.01 25.515C241.01 23.3582 242.486 21.8575 244.638 21.8575Z" fill="black"/>
<path d="M32.5575 28.711H25.6187V0.000854492H32.5575V28.711Z" fill="black"/>
</svg>
