<svg width="248" height="29" viewBox="0 0 248 29" fill="none" xmlns="http://www.w3.org/2000/svg">
<path fill-rule="evenodd" clip-rule="evenodd" d="M216.887 29C213.347 29 210.488 27.7746 208.446 25.3239V19.061C210.761 21.9202 213.756 23.554 217.296 23.554C219.61 23.554 221.108 22.3286 221.108 20.5587C221.108 19.1972 220.291 18.2441 218.521 17.5634L214.028 15.5211C210.624 14.0235 208.991 11.5728 208.991 8.16901C208.991 3.26761 212.803 0 218.113 0C221.244 0 223.831 0.953052 225.873 2.723V8.71361C223.967 6.53521 220.7 5.17371 218.249 5.17371C216.07 5.17371 214.845 6.12676 214.845 7.76056C214.845 8.98591 215.526 9.80282 217.16 10.4836L221.925 12.3897C225.329 13.7512 227.099 16.338 227.099 19.8779C226.826 25.5962 222.878 29 216.887 29Z" fill="black"/>
<path fill-rule="evenodd" clip-rule="evenodd" d="M230.775 28.3193V25.0517V3.94839V0.680786H247.793V5.85449H242.892H236.357V11.5728H241.939H245.751V16.7465H241.803H236.357V23.2817H242.347H247.793V28.4554H230.775V28.3193Z" fill="black"/>
<path fill-rule="evenodd" clip-rule="evenodd" d="M26.5493 28.3193V25.0517V3.94839V0.680786H43.5681V5.85449H38.6667H32.1315V11.5728H37.7136H41.5258V16.7465H37.5775H32.1315V23.2817H38.1221H43.5681V28.4554H26.5493V28.3193Z" fill="black"/>
<path fill-rule="evenodd" clip-rule="evenodd" d="M106.061 28.3193V25.0517V0.680786H111.371L123.216 18.7888V3.94839V0.680786H128.526V3.94839V28.3193H123.216L111.234 10.3475V25.0517V28.3193H106.061Z" fill="black"/>
<path fill-rule="evenodd" clip-rule="evenodd" d="M87.6809 22.3286H95.7138L96.3945 24.3709C96.5307 24.9155 96.803 25.4601 96.9391 26.0047C97.2114 26.8216 97.4837 27.6385 97.756 28.4554H103.747C103.338 27.3662 102.93 26.1408 102.521 24.9155C102.385 24.6432 102.249 24.2347 102.249 23.9624L93.6715 0.816895H87.9532L79.3757 23.8263C79.1034 24.6432 78.8311 25.3239 78.5588 26.1408C78.2865 26.9577 78.0142 27.6385 77.7419 28.4554H83.7326L84.9579 24.6432L85.6387 22.4648L87.2725 17.4272L90.8124 6.8075L94.3523 17.4272H92.7185C90.8124 17.4272 89.0424 18.7887 88.4978 20.6948L87.6809 22.3286Z" fill="black"/>
<path fill-rule="evenodd" clip-rule="evenodd" d="M190.883 22.3286H198.916L199.596 24.3709C199.733 24.9155 200.005 25.4601 200.141 26.0047C200.413 26.8216 200.686 27.6385 200.958 28.4554H206.948C206.54 27.3662 206.132 26.1408 205.723 24.9155C205.587 24.6432 205.451 24.2347 205.451 23.9624L196.873 0.816895H191.155L182.441 23.6901C182.169 24.507 181.897 25.1878 181.625 26.0047C181.352 26.8216 181.08 27.5023 180.808 28.3192H186.798L188.024 24.507L188.704 22.3286L190.338 17.2911L193.878 6.67135L197.418 17.2911H195.784C193.878 17.2911 192.108 18.6526 191.563 20.5587L190.883 22.3286Z" fill="black"/>
<path fill-rule="evenodd" clip-rule="evenodd" d="M47.6526 28.3193V25.0517V3.94839V0.680786H52.4178L61.2676 14.0235L70.1174 0.680786H74.8826V3.94839V25.0517V28.3193H69.7089V24.7794V10.2113L61.2676 23.554L52.8263 10.3475V25.1878V28.4554H47.6526V28.3193Z" fill="black"/>
<path fill-rule="evenodd" clip-rule="evenodd" d="M143.911 0.680786H134.108V28.3193H143.911C151.399 28.3193 157.39 23.4179 157.39 14.5681C157.39 5.5822 151.399 0.680786 143.911 0.680786ZM143.638 23.2817H139.554V5.85449H143.638C147.859 5.85449 151.671 8.71365 151.671 14.5681C151.671 20.4226 147.859 23.2817 143.638 23.2817Z" fill="black"/>
<path fill-rule="evenodd" clip-rule="evenodd" d="M174 13.6151C177.268 13.2066 179.038 10.3475 179.038 7.35215C179.038 3.13149 176.178 0.680786 171.141 0.680786H160.657V28.3193H171.005C176.587 28.3193 179.854 25.1878 179.854 20.1503C179.854 16.7465 177.676 14.0235 174 13.6151ZM166.239 5.03759H169.915C172.23 5.03759 173.455 6.3991 173.455 8.3052C173.455 10.2113 172.23 11.5728 169.915 11.5728H166.376V5.03759H166.239ZM170.188 23.6902H166.103V16.2019H170.052C172.502 16.2019 174.136 17.5634 174.136 20.0141C174.272 22.3287 172.638 23.6902 170.188 23.6902Z" fill="black"/>
<path fill-rule="evenodd" clip-rule="evenodd" d="M0 0.680786H9.80282C17.1549 0.680786 23.1455 5.5822 23.1455 14.5681C23.1455 23.554 17.1549 28.3193 9.80282 28.3193H0V14.1597C0 11.0282 2.4507 8.44135 5.44601 8.44135V23.2817H9.53052C13.7512 23.2817 17.4272 20.4226 17.4272 14.5681C17.4272 8.71365 13.615 5.85449 9.53052 5.85449H4.76526C2.1784 5.85449 0 3.53994 0 0.680786Z" fill="black"/>
</svg>
