<svg width="304" height="33" viewBox="0 0 304 33" fill="none" xmlns="http://www.w3.org/2000/svg">
<path d="M23.4287 0.539562V5.57614H5.53112V14.1652H21.4053V19.2016H5.53112V32.0178H0V0.539562H23.4287ZM56.4024 0.539562V18.3923C56.4024 27.7907 51.0959 32.5126 42.8665 32.5126C34.6824 32.5126 29.466 27.7907 29.466 18.662V0.539562H34.9971V18.4371C34.9971 24.2832 38.01 27.431 42.9566 27.431C47.8581 27.431 50.871 24.463 50.871 18.662V0.539562H56.4024ZM64.4442 32.0178V0.539562H69.9756V26.9812H86.5242V32.0178H64.4442ZM92.736 32.0178V0.539562H98.2674V26.9812H114.816V32.0178H92.736ZM153.386 0.539562V5.4861H135.579V13.6705H151.362V18.617H135.579V27.0713H153.611V32.0178H130.048V0.539562H153.386ZM182.612 22.3046V0.539562H188.054V32.018H183.423L166.065 9.62363V32.018H160.623V0.539562H165.75L182.612 22.3046ZM223.312 32.0178H216.791L209.057 21.0454H202.132V32.0178H196.601V0.539562H210.631C217.871 0.539562 222.323 4.36196 222.323 10.5227C222.323 15.7391 219.219 18.8869 214.811 20.1011L223.312 32.0178ZM216.702 10.8374C216.702 7.3749 214.274 5.57614 210.181 5.57614H202.132V16.1438H210.227C214.182 16.1438 216.702 14.0752 216.702 10.8374ZM229.862 0.539562H235.393V32.018H229.862V0.539562ZM271.655 26.9812C268.372 30.3989 264.775 32.5574 258.883 32.5574C249.709 32.5574 242.876 25.4073 242.876 16.3237C242.876 7.32988 249.576 0 259.109 0C264.911 0 268.418 2.02363 271.43 4.90152L267.878 8.99381C265.359 6.65527 262.662 5.08138 259.063 5.08138C253.038 5.08138 248.676 10.0281 248.676 16.2337C248.676 22.4394 253.038 27.476 259.063 27.476C262.931 27.476 265.405 25.9021 268.103 23.3839L271.655 26.9812ZM298.469 18.7521H283.449V32.0178H277.918V0.539562H283.449V13.6254H298.469V0.539562H304V32.018H298.469V18.7523V18.7521Z" fill="black"/>
</svg>
