<svg width="189" height="33" viewBox="0 0 189 33" fill="none" xmlns="http://www.w3.org/2000/svg">
<path d="M0 32.4687V0.901978H6.23972V13.4385H21.4318V0.901978H27.6262V32.4687H21.4318V18.6695H6.23972V32.4687H0Z" fill="#040508"/>
<path d="M45.9601 32.4676L45.8696 29.5816C45.1161 30.6337 44.1062 31.4604 42.8403 32.0618C41.6044 32.6632 40.1274 32.9637 38.4091 32.9637C37.324 32.9637 36.2689 32.8133 35.2441 32.5128C34.2193 32.2122 33.2999 31.7612 32.4861 31.1599C31.7023 30.5587 31.0694 29.807 30.587 28.9052C30.1048 28.0033 29.8635 26.951 29.8635 25.7485C29.8635 23.2531 30.798 21.4795 32.6669 20.4272C34.566 19.345 37.0527 18.5632 40.1274 18.0822L45.4626 17.2254V16.9549C45.4626 15.4818 45.0708 14.4446 44.287 13.8433C43.5335 13.2121 42.4635 12.8964 41.0768 12.8964C39.6902 12.8964 38.575 13.2121 37.731 13.8433C36.917 14.4747 36.3895 15.3915 36.1484 16.594H30.6321C30.9637 14.1289 32.1243 12.1749 34.1138 10.7317C36.1032 9.28865 38.4996 8.56714 41.303 8.56714C44.2267 8.56714 46.6082 9.22857 48.4468 10.5514C50.2856 11.8741 51.1899 14.1439 51.1597 17.3607L51.0694 27.6424C51.0694 28.0333 51.0843 28.5895 51.1145 29.311C51.1446 30.0025 51.2049 31.0546 51.2954 32.4676H45.9601ZM35.5154 25.4779C35.5154 26.5 35.9073 27.2818 36.6911 27.8229C37.5048 28.3339 38.5148 28.5895 39.7204 28.5895C41.2879 28.5895 42.6292 28.1234 43.7446 27.1915C44.8899 26.2295 45.4626 24.8165 45.4626 22.9525V21.3291C41.966 21.7801 39.434 22.2762 37.8667 22.8173C36.2992 23.3283 35.5154 24.2151 35.5154 25.4779Z" fill="#040508"/>
<path d="M59.6438 19.8868V32.4683H53.8562V9.10914H59.5081V12.6715C59.7492 12.2808 60.0205 11.8899 60.3219 11.499C60.6235 11.1084 60.97 10.7626 61.3618 10.462C62.0553 9.92076 62.7636 9.53007 63.4869 9.28956C64.2104 9.04906 65.0846 8.92871 66.1095 8.92871C66.4108 8.92871 66.6973 8.94383 66.9686 8.97387C67.27 9.00391 67.5262 9.03394 67.7372 9.06398V14.5205C67.1645 14.4905 66.7124 14.4754 66.3808 14.4754C66.0492 14.4454 65.7327 14.4302 65.4312 14.4302C64.7982 14.4302 64.135 14.5054 63.4418 14.6558C62.7786 14.776 62.1607 15.0467 61.588 15.4674C61.0153 15.8583 60.5481 16.4145 60.1864 17.136C59.8246 17.8275 59.6438 18.7444 59.6438 19.8868Z" fill="#040508"/>
<path d="M75.5151 19.4803V32.4676H69.7275V9.10842H75.3795V11.8592C76.0727 10.8069 77.0072 9.99523 78.1828 9.42392C79.3583 8.8528 80.7147 8.56714 82.2521 8.56714C83.6386 8.56714 84.965 8.88284 86.2309 9.51423C87.4971 10.1154 88.5068 11.0925 89.2603 12.4454C90.044 11.1826 91.0991 10.2206 92.4253 9.55919C93.7817 8.89795 95.2738 8.56714 96.9016 8.56714C98.047 8.56714 99.1323 8.73245 100.157 9.06326C101.212 9.39388 102.131 9.92004 102.915 10.6415C103.699 11.3631 104.317 12.3101 104.769 13.4826C105.251 14.6251 105.492 16.0078 105.492 17.6312V32.4676H99.6598V18.5783C99.6598 16.8948 99.2377 15.632 98.3937 14.7904C97.5497 13.9485 96.5097 13.5276 95.2738 13.5276C94.038 13.5276 92.9228 14.0388 91.928 15.0609C90.9634 16.053 90.4811 17.526 90.4811 19.4803V32.4676H84.6937V18.5783C84.6937 16.8948 84.2716 15.632 83.4276 14.7904C82.5837 13.9485 81.5438 13.5276 80.3079 13.5276C79.072 13.5276 77.9567 14.0237 76.9619 15.0158C75.9973 16.0078 75.5151 17.496 75.5151 19.4803Z" fill="#040508"/>
<path d="M119.784 32.9637C118.066 32.9637 116.453 32.6781 114.946 32.107C113.439 31.5356 112.128 30.724 111.012 29.6717C109.927 28.5895 109.053 27.2967 108.39 25.7936C107.757 24.2603 107.44 22.5467 107.44 20.6527C107.44 18.8188 107.757 17.1654 108.39 15.6923C109.053 14.189 109.942 12.9113 111.057 11.8592C112.173 10.8069 113.484 9.99523 114.991 9.42392C116.498 8.8528 118.096 8.56714 119.784 8.56714C121.472 8.56714 123.069 8.8528 124.577 9.42392C126.084 9.99523 127.38 10.8069 128.464 11.8592C129.579 12.8813 130.455 14.1439 131.087 15.6471C131.751 17.1202 132.083 18.7888 132.083 20.6527C132.083 22.5167 131.751 24.2151 131.087 25.7485C130.455 27.2515 129.579 28.5444 128.464 29.6267C127.35 30.6789 126.038 31.5056 124.531 32.107C123.054 32.6781 121.472 32.9637 119.784 32.9637ZM119.784 28.0934C121.653 28.0934 123.175 27.4171 124.351 26.0642C125.526 24.6812 126.114 22.8773 126.114 20.6527C126.114 18.5483 125.526 16.8196 124.351 15.4667C123.175 14.1138 121.653 13.4375 119.784 13.4375C117.885 13.4375 116.347 14.1138 115.172 15.4667C113.996 16.7896 113.409 18.5183 113.409 20.6527C113.409 22.8473 113.996 24.6361 115.172 26.019C116.347 27.4019 117.885 28.0934 119.784 28.0934Z" fill="#040508"/>
<path d="M177.788 32.9637C176.129 32.9637 174.562 32.6781 173.086 32.107C171.639 31.5056 170.372 30.6789 169.287 29.6267C168.203 28.5444 167.343 27.2515 166.711 25.7485C166.106 24.2151 165.806 22.5167 165.806 20.6527C165.806 18.8789 166.122 17.2555 166.756 15.7824C167.418 14.2793 168.293 13.0016 169.377 11.9493C170.463 10.8671 171.745 10.0402 173.221 9.46907C174.697 8.86772 176.25 8.56714 177.878 8.56714C179.295 8.56714 180.636 8.79272 181.903 9.24369C183.198 9.66442 184.343 10.2658 185.338 11.0474C186.334 11.7989 187.147 12.7309 187.781 13.8433C188.442 14.9557 188.851 16.1733 189 17.496H183.259C182.957 16.2334 182.293 15.2413 181.269 14.5198C180.275 13.7983 179.129 13.4375 177.833 13.4375C176.054 13.4375 174.591 14.1138 173.447 15.4667C172.332 16.8196 171.774 18.5483 171.774 20.6527C171.774 22.8173 172.347 24.606 173.492 26.019C174.668 27.4019 176.115 28.0934 177.833 28.0934C179.099 28.0934 180.23 27.7477 181.223 27.0562C182.219 26.3347 182.896 25.3126 183.259 23.9897H189C188.79 25.4027 188.338 26.6653 187.643 27.7777C186.95 28.8901 186.106 29.8372 185.113 30.6188C184.117 31.3703 182.986 31.9566 181.722 32.3775C180.456 32.7684 179.144 32.9637 177.788 32.9637Z" fill="#040508"/>
<path d="M157.98 5.41151V0H163.859V5.41151H157.98ZM158.026 32.4686V9.10916H163.811V32.4686H158.026Z" fill="#040508"/>
<path d="M139.863 19.796V32.4676H134.075V9.10842H139.773V11.9041C140.525 10.852 141.504 10.0402 142.712 9.46907C143.947 8.86772 145.303 8.56714 146.78 8.56714C149.342 8.56714 151.391 9.36384 152.929 10.9572C154.497 12.5506 155.281 14.8656 155.281 17.902V32.4676H149.493V18.7588C149.493 17.1654 149.086 15.9028 148.272 14.9708C147.459 14.0086 146.312 13.5276 144.836 13.5276C143.509 13.5276 142.348 14.0537 141.355 15.1061C140.36 16.1282 139.863 17.6915 139.863 19.796Z" fill="#040508"/>
</svg>
