<svg width="197" height="28" viewBox="0 0 197 28" fill="none" xmlns="http://www.w3.org/2000/svg">
<path fill-rule="evenodd" clip-rule="evenodd" d="M181.686 27.9998C189.683 27.9998 196.165 21.7313 196.165 13.9999C196.165 6.26846 189.683 0 181.686 0C173.691 0 167.21 6.26846 167.21 13.9999C167.21 21.7313 173.691 27.9998 181.686 27.9998ZM181.686 25.1998C188.083 25.1998 193.269 20.1861 193.269 13.9999C193.269 7.8137 188.083 2.79998 181.686 2.79998C175.291 2.79998 170.105 7.8137 170.105 13.9999C170.105 20.1861 175.291 25.1998 181.686 25.1998Z" fill="black"/>
<path d="M161.421 0.700056C161.421 0.315059 161.746 6.05106e-05 162.146 6.05106e-05H163.594C163.993 6.05106e-05 164.317 0.315059 164.317 0.700056V27.2999C164.317 27.6849 163.993 27.9999 163.594 27.9999H162.146C162.052 28.0013 161.959 27.9843 161.872 27.9498C161.784 27.9154 161.705 27.8642 161.638 27.7992C161.57 27.7342 161.517 27.6567 161.48 27.571C161.442 27.4853 161.423 27.3932 161.421 27.2999V0.700056ZM155.629 25.8999C155.629 25.5149 155.954 25.1999 156.353 25.1999H157.802C158.201 25.1999 158.524 25.5149 158.524 25.8999V27.2999C158.524 27.6866 158.201 27.9999 157.802 27.9999H156.353C156.259 28.0013 156.166 27.9843 156.079 27.9498C155.992 27.9154 155.913 27.8642 155.845 27.7992C155.778 27.7342 155.724 27.6567 155.687 27.571C155.65 27.4853 155.63 27.3932 155.629 27.2999V25.8999ZM129.571 14V27.2999C129.571 27.6849 129.247 27.9999 128.847 27.9999H124.505C124.411 28.0013 124.318 27.9843 124.231 27.9498C124.143 27.9154 124.064 27.8642 123.997 27.7992C123.929 27.7342 123.876 27.6567 123.839 27.571C123.801 27.4853 123.782 27.3932 123.78 27.2999V0.700056C123.78 0.315059 124.104 6.05106e-05 124.505 6.05106e-05H127.05C127.708 6.05106e-05 128.309 0.358808 128.604 0.927555L129.416 2.49904C129.436 2.53588 129.464 2.56807 129.498 2.5935C129.531 2.61893 129.569 2.63703 129.61 2.64662C129.651 2.6562 129.694 2.65705 129.735 2.64911C129.777 2.64117 129.816 2.62462 129.85 2.60054C132.32 0.899016 135.254 -0.00853601 138.257 6.05106e-05C146.254 6.05106e-05 152.735 6.26852 152.735 14V27.2999C152.735 27.6849 152.41 27.9999 152.011 27.9999H147.667C147.478 28.0022 147.296 27.9298 147.161 27.7986C147.025 27.6674 146.947 27.488 146.945 27.2999V14C146.945 9.36075 143.054 5.60002 138.257 5.60002C133.885 5.60002 130.267 8.7255 129.661 12.7925L129.571 14Z" fill="black"/>
<path fill-rule="evenodd" clip-rule="evenodd" d="M105.684 0C97.6888 0 91.2073 6.26846 91.2073 13.9999C91.2073 21.7314 97.6888 27.9998 105.684 27.9998C108.687 28.0084 111.621 27.1009 114.09 25.3993C114.125 25.3749 114.164 25.3581 114.206 25.35C114.247 25.3419 114.29 25.3427 114.331 25.3523C114.373 25.3619 114.411 25.3801 114.445 25.4057C114.479 25.4313 114.506 25.4637 114.526 25.5008L115.339 27.0706C115.487 27.3526 115.71 27.5886 115.984 27.7525C116.259 27.9164 116.573 28.002 116.893 27.9998H119.438C119.837 27.9998 120.161 27.6848 120.161 27.2998V13.9999C120.161 6.26846 113.679 0 105.684 0ZM96.9979 13.9999C96.9979 9.36069 100.886 5.59996 105.684 5.59996C110.481 5.59996 114.37 9.36069 114.37 13.9999C114.37 18.6391 110.481 22.3998 105.684 22.3998C100.886 22.3998 96.9979 18.6391 96.9979 13.9999ZM85.719 21.9973C85.7752 21.9175 85.813 21.8263 85.8297 21.7303C85.8464 21.6342 85.8415 21.5357 85.8155 21.4417C85.7895 21.3477 85.7429 21.2606 85.6791 21.1867C85.6153 21.1127 85.5359 21.0537 85.4465 21.0139L81.4964 19.1046C81.3394 19.0321 81.1626 19.0134 80.9938 19.0514C80.8249 19.0894 80.6734 19.1819 80.563 19.3146C79.7353 20.2864 78.704 21.0662 77.5415 21.5992C76.379 22.1321 75.1134 22.4054 73.8336 22.3998C69.9714 22.3998 66.6981 19.9621 65.5677 16.5916C65.5097 16.4166 65.6486 16.2399 65.8402 16.2399H86.8634C87.0509 16.2429 87.237 16.209 87.4113 16.1402C87.5856 16.0714 87.7445 15.9691 87.8789 15.839C88.0133 15.7089 88.1206 15.5537 88.1946 15.3823C88.2686 15.2108 88.3079 15.0265 88.3102 14.8399V13.9999C88.3102 6.26846 81.8287 0 73.8336 0C65.8385 0 59.3569 6.26846 59.3569 13.9999C59.3569 21.7314 65.8385 27.9998 73.8336 27.9998C78.7558 27.9998 83.1032 25.6251 85.719 21.9973ZM81.9025 11.7599C82.0888 11.7599 82.226 11.5937 82.1803 11.4204C81.2222 7.87495 78.2759 5.03997 73.8336 5.03997C69.3913 5.03997 66.4449 7.87495 65.4869 11.4204C65.4412 11.5937 65.5783 11.7599 65.7629 11.7599H81.9025Z" fill="black"/>
<path d="M56.8219 22.5048C56.9041 22.557 56.9737 22.6266 57.0257 22.7086C57.0778 22.7906 57.1111 22.883 57.1231 22.9792C57.1352 23.0755 57.1258 23.1732 57.0957 23.2654C57.0655 23.3577 57.0152 23.4421 56.9485 23.5128C55.5762 24.9386 53.927 26.0717 52.101 26.843C50.2751 27.6144 48.3106 28.008 46.327 27.9998C38.3302 27.9998 31.8486 21.7314 31.8486 13.9999C31.8486 6.26846 38.3302 0 46.327 0C50.5232 0 54.3045 1.72724 56.9485 4.48697C57.0152 4.55766 57.0655 4.64213 57.0957 4.73436C57.1258 4.82659 57.1352 4.92432 57.1231 5.02057C57.1111 5.11683 57.0778 5.20924 57.0257 5.29124C56.9737 5.37324 56.9041 5.4428 56.8219 5.49496L53.2129 7.93795C53.0659 8.03244 52.8917 8.07579 52.7174 8.06123C52.5431 8.04666 52.3786 7.975 52.2495 7.85745C50.6259 6.3971 48.5134 5.59213 46.3253 5.59996C41.5296 5.59996 37.641 9.36069 37.641 13.9999C37.641 18.6391 41.5296 22.3998 46.3253 22.3998C48.6159 22.3998 50.699 21.5424 52.2495 20.1424C52.3786 20.0248 52.5431 19.9531 52.7174 19.9386C52.8917 19.924 53.0659 19.9674 53.2129 20.0619L56.8219 22.5048Z" fill="black"/>
<path fill-rule="evenodd" clip-rule="evenodd" d="M14.4766 27.9998C22.4717 27.9998 28.955 21.7313 28.955 13.9999C28.955 6.26846 22.4735 0 14.4766 0C6.48152 0 0 6.26846 0 13.9999C0 21.7313 6.48152 27.9998 14.4766 27.9998ZM14.4766 22.3998C19.2758 22.3998 23.1626 18.6391 23.1626 13.9999C23.1626 9.36068 19.2741 5.59996 14.4784 5.59996C9.67922 5.59996 5.79065 9.36068 5.79065 13.9999C5.79065 18.6391 9.67922 22.3998 14.4766 22.3998Z" fill="black"/>
</svg>
