<svg width="164" height="39" viewBox="0 0 164 39" fill="none" xmlns="http://www.w3.org/2000/svg">
<path d="M0 30.3895H6.85798V19.015H12.5878C18.8818 19.015 22.9188 15.2814 22.9188 9.50748C22.9188 3.73351 18.8821 0 12.5878 0H0V30.3892V30.3895ZM6.85798 13.1543V5.86066H11.8934C14.4977 5.86066 16.0605 7.24964 16.0605 9.50715C16.0605 11.765 14.4977 13.154 11.8934 13.154H6.85798V13.1543ZM35.3267 30.7366C42.0114 30.7366 46.8728 25.9612 46.8728 19.449C46.8728 12.9372 42.0114 8.16184 35.3267 8.16184C28.5551 8.16184 23.7803 12.9372 23.7803 19.449C23.7803 25.9612 28.5551 30.7366 35.3267 30.7366ZM30.1176 19.449C30.1176 15.9759 32.2011 13.5884 35.3267 13.5884C38.4084 13.5884 40.4922 15.9759 40.4922 19.449C40.4922 22.9222 38.4084 25.31 35.3267 25.31C32.2011 25.31 30.1176 22.9222 30.1176 19.449ZM57.8483 30.7366C62.9704 30.7366 66.4431 27.5239 66.4431 23.747C66.4431 14.891 54.6796 17.756 54.6796 14.2829C54.6796 13.328 55.6777 12.7202 57.1105 12.7202C58.5863 12.7202 60.3662 13.6317 60.9302 15.6289L66.0524 13.5014C65.0543 10.3327 61.3643 8.16184 56.8935 8.16184C52.0751 8.16184 49.0801 11.0268 49.0801 14.4566C49.0801 22.7485 60.6699 20.4476 60.6699 23.8774C60.6699 25.093 59.5414 25.9178 57.8483 25.9178C55.4177 25.9178 53.7246 24.2248 53.2038 22.1843L48.0817 24.1811C49.2105 27.4805 52.5094 30.7366 57.8483 30.7366ZM82.9419 30.1725L82.5082 24.6589C81.7701 25.0496 80.815 25.1797 80.0339 25.1797C78.4711 25.1797 77.4294 24.0511 77.4294 22.0973V13.8054H82.7252V8.50892H77.4294V2.17082H71.0484V8.50892H67.5758V13.8054H71.0484V22.9222C71.0484 28.2187 74.6514 30.7366 79.3826 30.7366C80.685 30.7366 81.9004 30.5199 82.9422 30.1725H82.9419ZM105.19 0V11.8083H93.1228V0.000328184H86.2642V30.3892H93.1228V17.6693H105.19V30.3892H112.092V0H105.19ZM127.315 30.7366C133.999 30.7366 138.861 25.9612 138.861 19.449C138.861 12.9372 133.999 8.16184 127.315 8.16184C120.543 8.16184 115.768 12.9372 115.768 19.449C115.768 25.9612 120.543 30.7366 127.315 30.7366ZM122.106 19.449C122.106 15.9759 124.19 13.5884 127.315 13.5884C130.397 13.5884 132.48 15.9759 132.48 19.449C132.48 22.9222 130.397 25.31 127.315 25.31C124.19 25.31 122.106 22.9222 122.106 19.449ZM151.177 29.6947C153.565 29.6947 155.692 28.8698 156.82 27.4372V29.521C156.82 31.9522 154.867 33.6452 151.872 33.6452C149.745 33.6452 147.878 32.6033 147.574 30.8233L141.758 31.7351C142.539 35.8594 146.75 38.638 151.872 38.638C158.6 38.638 163.071 34.6871 163.071 28.8265V8.50892H156.777V10.3757C155.605 9.03003 153.608 8.16184 151.047 8.16184C144.97 8.16184 141.15 12.3294 141.15 18.9283C141.15 25.5271 144.97 29.6947 151.177 29.6947ZM147.357 18.9283C147.357 15.6722 149.267 13.5884 152.219 13.5884C155.214 13.5884 157.124 15.6722 157.124 18.9283C157.124 22.1843 155.214 24.2681 152.219 24.2681C149.267 24.2681 147.357 22.1843 147.357 18.9283Z" fill="black"/>
</svg>
