<svg width="187" height="45" viewBox="0 0 187 45" fill="none" xmlns="http://www.w3.org/2000/svg">
<path fill-rule="evenodd" clip-rule="evenodd" d="M15.7881 15.359L10.8573 14.2998C8.35402 13.7701 6.98857 12.2569 6.98857 9.98714C6.98857 7.11205 9.4919 4.99357 12.9055 4.99357C17.5329 4.99357 18.8983 8.39827 19.2776 9.45752C19.3535 9.83582 19.581 10.1385 19.9603 10.2898C20.2637 10.4411 20.643 10.4411 20.9465 10.3654L23.5257 9.45752C24.2084 9.23054 24.5118 8.5496 24.3601 7.86866C23.6774 5.52319 21.174 0 12.8296 0C6.60928 0 1.37507 4.76659 1.37507 10.3654C1.37507 15.2077 4.56111 18.7637 9.87118 19.8986L14.5744 20.9579C17.457 21.5631 19.1259 23.3033 19.1259 25.5731C19.1259 28.5239 16.6984 30.3397 12.8296 30.3397C8.27816 30.3397 6.07827 27.3133 5.47141 24.5139C5.31969 23.8329 4.63697 23.379 3.95425 23.4546C3.87839 23.4546 3.87838 23.4546 3.80253 23.5303L0.91992 24.4382C0.313054 24.6652 -0.06624 25.2705 0.00961819 25.8758C0.919916 30.5667 4.71283 35.4846 12.8296 35.4846C19.6569 35.4846 24.8152 31.0207 24.8152 25.1192C24.8152 20.2013 21.5533 16.5696 15.7881 15.359ZM45.2211 19.8986C45.2211 19.9743 45.2211 20.0499 45.1452 20.1256C45.0694 20.2013 44.9935 20.2013 44.9177 20.2013H34.3734C34.2975 20.2013 34.2217 20.1256 34.1458 20.1256C34.0699 20.0499 34.0699 19.9743 34.0699 19.8986C34.5251 17.7045 36.4215 15.5103 39.5317 15.5103C42.6419 15.4347 44.7659 17.0992 45.2211 19.8986ZM39.5317 10.5168C33.9941 10.5168 28.2289 15.132 28.2289 22.925C28.2289 26.6324 29.4426 29.8858 31.7942 32.1556C33.9182 34.274 36.8767 35.4846 40.0627 35.4846C44.8418 35.4846 48.7106 32.9878 50.3794 28.8265C50.5312 28.4482 50.5312 28.0699 50.3794 27.7673C50.2277 27.4646 49.9243 27.162 49.6209 27.0863L47.2693 26.2541C46.6624 26.0271 45.9038 26.3297 45.6762 26.935C44.6901 29.2805 42.7936 30.491 40.0627 30.491C36.8008 30.491 34.2975 28.2969 33.8424 25.0435C33.8424 24.9678 33.8424 24.8922 33.9182 24.8165C33.9182 24.8165 33.9941 24.7409 34.1458 24.7409H49.545C50.2277 24.7409 50.8346 24.2112 50.8346 23.5303V22.8494C50.9105 15.2833 46.5107 10.5168 39.5317 10.5168ZM65.7787 28.9778C62.0616 28.9778 59.7858 26.4054 59.7858 22.3197C59.7858 18.2341 62.1375 15.6616 65.7787 15.6616C69.2681 15.6616 71.6956 18.3098 71.6956 22.3197C71.6197 26.2541 69.2681 28.9778 65.7787 28.9778ZM75.5643 11.2734H72.7576C72.0749 11.2734 71.468 11.8786 71.468 12.6352C71.468 12.7109 71.3922 12.8622 71.3163 12.8622C71.2404 12.8622 71.1646 12.9379 71.0887 12.8622C69.6474 11.576 67.5992 10.8951 65.0959 10.8951C58.7997 10.8951 54.2482 15.7373 54.2482 22.3197C54.2482 28.9022 58.7997 33.7444 65.0959 33.7444C67.4475 33.7444 69.5716 32.9878 71.0129 31.6259C71.0887 31.5503 71.2404 31.5503 71.2404 31.5503C71.3163 31.5503 71.3921 31.6259 71.3921 31.7773V32.7608C71.3921 37.3761 69.344 39.4946 65.0201 39.4946C62.2892 39.4946 60.0893 37.8301 59.5583 35.182C59.4824 34.8037 59.2548 34.5767 58.9514 34.3497C58.648 34.1227 58.2687 34.1227 57.9653 34.1984L55.2344 34.8037C54.5516 34.955 54.0965 35.6359 54.2482 36.3925C55.2344 41.1591 59.5583 44.4125 65.0201 44.4125C69.1164 44.4125 72.2266 43.2019 74.2748 40.7052C75.9436 38.6623 76.8539 35.8629 76.8539 32.6095V12.5596C76.9298 11.8786 76.3229 11.2734 75.5643 11.2734ZM108.714 10.5924C105.604 10.5924 103.101 11.7273 101.432 13.9215C101.356 13.9971 101.28 14.0728 101.204 14.0728C101.129 14.0728 101.053 13.9971 101.053 13.9971C99.6872 11.8786 97.2598 10.5924 94.453 10.5924C92.2532 10.5924 90.0533 11.349 88.612 12.7109C88.5361 12.7866 88.3844 12.7866 88.3085 12.7866C88.2327 12.7109 88.1568 12.6352 88.1568 12.5596C88.1568 11.803 87.5499 11.2734 86.8672 11.2734H84.1363C83.4536 11.2734 82.8467 11.8786 82.8467 12.5596V33.4418C82.8467 34.1984 83.4536 34.728 84.1363 34.728H86.9431C87.6258 34.728 88.2327 34.1227 88.2327 33.4418V20.7309C88.2327 17.6288 90.1291 15.586 92.9359 15.586C96.6529 15.586 97.1839 18.4611 97.1839 20.2013V33.5174C97.1839 34.274 97.7908 34.8037 98.4735 34.8037H101.28C101.963 34.8037 102.57 34.1984 102.57 33.5174V20.6552C102.57 17.6288 104.466 15.5103 107.273 15.5103C110.99 15.5103 111.521 18.3854 111.521 20.1256V33.4418C111.521 34.1984 112.128 34.728 112.811 34.728H115.617C116.376 34.728 116.907 34.1227 116.907 33.4418V19.6716C116.983 13.3918 112.811 10.5924 108.714 10.5924ZM127.527 20.2013C127.451 20.2013 127.375 20.1256 127.3 20.1256C127.224 20.0499 127.224 19.9743 127.224 19.8986C127.679 17.7045 129.575 15.5103 132.686 15.5103C135.72 15.5103 137.844 17.1748 138.299 19.8986C138.299 19.9743 138.299 20.0499 138.223 20.1256C138.147 20.2013 138.071 20.2013 137.996 20.2013H127.527ZM132.686 10.5924C127.148 10.5924 121.383 15.2077 121.383 23.0007C121.383 26.708 122.596 29.9614 124.948 32.2312C127.072 34.3497 130.031 35.4846 133.217 35.4846C137.996 35.4846 141.789 32.9878 143.533 28.8265C143.685 28.4482 143.685 28.0699 143.533 27.7673C143.382 27.4646 143.078 27.162 142.775 27.0863L140.423 26.2541C139.74 26.0271 139.058 26.3297 138.83 26.935C137.844 29.2805 135.947 30.491 133.217 30.491C129.955 30.491 127.451 28.2969 126.996 25.0435C126.996 24.9678 126.996 24.8922 127.072 24.8165C127.072 24.8165 127.148 24.7409 127.3 24.7409H142.699C143.382 24.7409 143.988 24.2112 143.988 23.5303V22.8494C143.988 15.2833 139.664 10.5168 132.686 10.5924ZM160.601 10.5924C158.25 10.5924 156.202 11.4247 154.609 12.9379C154.533 13.0135 154.457 13.0135 154.305 13.0135C154.229 12.9379 154.153 12.8622 154.153 12.7866V12.6352C154.153 11.8786 153.547 11.349 152.864 11.349H150.133C149.374 11.349 148.843 11.9543 148.843 12.6352V33.5174C148.843 34.274 149.45 34.8037 150.133 34.8037H152.94C153.698 34.8037 154.229 34.1984 154.229 33.5174V21.2605C154.229 18.5367 155.443 15.586 158.932 15.586C162.043 15.586 163.636 17.3262 163.636 20.7309V33.4418C163.636 34.1984 164.243 34.728 164.925 34.728H167.732C168.491 34.728 169.022 34.1227 169.022 33.4418V20.0499C169.173 14.2241 165.911 10.5924 160.601 10.5924ZM182.373 16.2669H185.71C186.469 16.2669 187 15.6616 187 14.9807V12.5596C187 11.803 186.393 11.2734 185.71 11.2734H182.373C182.221 11.2734 182.069 11.122 182.069 11.0464V5.52319C182.069 4.76659 181.462 4.23697 180.78 4.23697H178.352C177.594 4.23697 177.063 4.84225 177.063 5.52319V8.39828C177.063 9.76016 176.532 11.349 174.104 11.349H173.649C172.89 11.349 172.359 11.9543 172.359 12.6352V15.0564C172.359 15.813 172.966 16.3426 173.649 16.3426H176.38C176.532 16.3426 176.683 16.4939 176.683 16.5696V28.1456C176.683 32.3825 179.262 35.0306 183.511 35.0306C184.648 35.0306 185.559 34.8793 186.014 34.8037C186.621 34.6523 187 34.1227 187 33.5174V31.3233C187 30.5667 186.393 30.0371 185.71 30.0371H185.559C185.255 30.0371 184.952 30.1127 184.724 30.1127C182.828 30.1127 182.069 29.4318 182.069 27.5403V16.5696C182.069 16.4183 182.221 16.2669 182.373 16.2669Z" fill="black"/>
</svg>
