<svg width="215" height="28" viewBox="0 0 215 28" fill="none" xmlns="http://www.w3.org/2000/svg">
<path fill-rule="evenodd" clip-rule="evenodd" d="M6.02994 0.956302C4.3799 1.59615 3.10374 2.48801 2.19998 3.63395C1.29772 4.78244 0.844968 6.10758 0.844968 7.6059C0.844968 10.6178 2.65784 12.9859 6.27823 14.7099C7.39295 15.2403 8.82381 15.7952 10.5781 16.3628C12.3309 16.9359 13.5576 17.4857 14.2532 18.02C14.9526 18.553 15.2985 19.295 15.2985 20.2511C15.2985 21.0938 14.9754 21.748 14.3293 22.2126C13.6822 22.6772 12.8043 22.9108 11.6887 22.9108C9.95024 22.9108 8.69079 22.5665 7.91726 21.8791C7.14141 21.1918 6.75523 20.1219 6.75523 18.6729H0C0 20.458 0.464584 22.0345 1.39096 23.4058C2.31874 24.7747 3.70181 25.8539 5.54007 26.6398C7.37474 27.428 9.42628 27.8221 11.6912 27.8221C14.9036 27.8221 17.4318 27.1487 19.2734 25.7971C21.1161 24.4419 22.0346 22.5815 22.0346 20.2145C22.0346 17.2528 20.527 14.9264 17.5059 13.2422C16.2658 12.5478 14.6797 11.8987 12.7453 11.2987C10.8164 10.696 9.46559 10.1156 8.69647 9.55027C7.92758 8.98634 7.5458 8.35669 7.5458 7.66108C7.5458 6.8688 7.8943 6.21446 8.59117 5.70095C9.28932 5.18594 10.2384 4.92779 11.4424 4.92779C12.6321 4.92779 13.5772 5.23242 14.274 5.84005C14.9696 6.44802 15.3208 7.30232 15.3208 8.40572H22.0346C22.0346 6.75879 21.5954 5.28899 20.7117 4.00789C19.8292 2.72471 18.5906 1.73641 16.9978 1.04208C15.4022 0.347051 13.6023 0 11.5937 0C9.53518 0 7.67998 0.318767 6.02994 0.956302ZM30.1526 0V27.8197H48.6721V22.6594H36.6335V16.0114H46.8269V11.0446H36.633V5.17759H48.708V0M56.826 0V27.8197H63.4152V17.9803H66.9785L71.8041 27.8197H78.8606V27.532L73.1566 16.2991C74.7947 15.5102 75.9967 14.4813 76.767 13.2084C77.5359 11.9345 77.9209 10.3303 77.9209 8.39795C77.9209 5.72494 77.007 3.65701 75.181 2.19416C73.3543 0.731426 70.8215 0 67.5824 0H56.826ZM63.4152 5.15905H67.5816C68.819 5.15905 69.7575 5.49845 70.3959 6.18397C71.0354 6.86671 71.3538 7.8091 71.3538 9.00883C71.3538 10.2086 71.0393 11.1428 70.4049 11.8128C69.7732 12.4851 68.8321 12.8201 67.5816 12.8201H63.4152V5.15905ZM85.8189 0V27.8197H92.5661V18.3795H96.877C100.283 18.3795 102.965 17.5679 104.921 15.9451C106.875 14.3223 107.853 12.1518 107.853 9.43899C107.853 7.60405 107.403 5.96385 106.496 4.51861C105.592 3.07199 104.318 1.95827 102.672 1.17608C101.023 0.391099 99.1287 0 96.9893 0H85.8189ZM92.5661 5.17759H97.067C98.2835 5.19081 99.2449 5.58596 99.9497 6.36155C100.654 7.1405 101.006 8.17679 101.006 9.47504C101.006 10.662 100.665 11.5789 99.9791 12.2292C99.2926 12.8795 98.2964 13.204 96.9894 13.204H92.5662L92.5661 5.17759Z" fill="black"/>
<path fill-rule="evenodd" clip-rule="evenodd" d="M118.518 0.956302C116.868 1.59615 115.593 2.48801 114.691 3.63395C113.786 4.78244 113.336 6.10758 113.336 7.6059C113.336 10.6178 115.146 12.9859 118.767 14.7099C119.881 15.2403 121.314 15.7952 123.067 16.3628C124.82 16.9359 126.044 17.4857 126.742 18.02C127.439 18.553 127.788 19.295 127.788 20.2511C127.788 21.0938 127.465 21.748 126.819 22.2126C126.171 22.6772 125.293 22.9108 124.18 22.9108C122.44 22.9108 121.185 22.5665 120.408 21.8791C119.635 21.1918 119.248 20.1219 119.248 18.6729H112.492C112.492 20.458 112.957 22.0345 113.883 23.4058C114.812 24.7747 116.194 25.8539 118.031 26.6398C119.864 27.428 121.915 27.8221 124.18 27.8221C127.392 27.8221 129.919 27.1487 131.762 25.7971C133.606 24.4419 134.527 22.5815 134.527 20.2145C134.527 17.2528 133.016 14.9261 129.998 13.2422C128.755 12.5478 127.168 11.8987 125.237 11.2986C123.305 10.6959 121.954 10.1155 121.188 9.55015C120.42 8.98564 120.036 8.35622 120.036 7.66073C120.036 6.86787 120.383 6.21411 121.081 5.7006C121.777 5.18478 122.728 4.92745 123.932 4.92745C125.121 4.92745 126.064 5.2323 126.765 5.8397C127.459 6.4471 127.808 7.30139 127.808 8.40491H134.524C134.524 6.75775 134.084 5.28794 133.201 4.00708C132.319 2.7239 131.08 1.73514 129.486 1.0408C127.893 0.346471 126.092 0 124.087 0C122.024 0 120.168 0.318767 118.518 0.956302ZM139.166 0V5.17759H147.343V27.8197H154.032V5.17759H162.36V0M173.678 0L163.52 27.8197H170.654L172.253 22.6223H181.403L183.021 27.8197H190.193L179.957 0H173.678ZM176.818 7.79485L179.805 17.4448H173.85L176.817 7.79485H176.818ZM191.353 0V5.17759H199.53V27.8197H206.219V5.17759H214.547V0" fill="black"/>
</svg>
