<svg width="196" height="37" viewBox="0 0 196 37" fill="none" xmlns="http://www.w3.org/2000/svg">
<path d="M179.633 36.1829V10.9528H186.198V17.5048C187.9 10.9528 191.888 9.68155 195.583 10.855V17.1136C190.283 15.2556 186.198 17.7004 186.198 22.052V36.1829H179.633Z" fill="black"/>
<path d="M148.976 23.5679C148.976 16.1359 154.666 10.464 162.156 10.464C170.568 10.464 176.453 17.5049 175.091 25.9149H155.736C156.611 28.8976 159.14 31 162.593 31C165.316 31 167.602 29.6798 168.818 27.4796L174.217 29.9244C172.028 33.8848 167.845 36.672 162.399 36.672C154.763 36.672 148.976 31 148.976 23.5679ZM155.833 20.8787H168.526C167.652 18.0427 165.267 16.1359 162.156 16.1359C159.189 16.1359 156.757 18.0427 155.833 20.8787Z" fill="black"/>
<path d="M120.361 36.1826V0H126.927V17.4067C128.24 13.1529 131.449 10.4636 135.632 10.4636C141.225 10.4636 144.872 14.8642 144.872 20.8783V36.1826H138.307V22.0519C138.307 18.7759 135.972 16.4777 132.86 16.4777C129.358 16.4777 126.927 18.7759 126.927 22.0519V36.1826H120.361Z" fill="black"/>
<path d="M90.9868 23.5679C90.9868 16.1359 96.7742 10.464 104.41 10.464C109.759 10.464 114.331 13.3488 116.471 18.4829L110.44 20.5853C109.321 17.9939 107.084 16.5271 104.41 16.5271C100.665 16.5271 97.7955 19.5585 97.7955 23.5679C97.7955 27.6263 100.665 30.6088 104.41 30.6088C107.084 30.6088 109.321 29.142 110.44 26.5506L116.471 28.653C114.331 33.787 109.759 36.672 104.41 36.672C96.7742 36.672 90.9868 31 90.9868 23.5679Z" fill="black"/>
<path d="M70.5896 16.7713V10.9527H75.6475V3.52064L82.2128 1.46704V10.9527H88.7297V16.7713H82.2128V26.7949C82.2128 29.2396 83.3314 30.3642 85.7631 30.3642H88.7297V36.1828H85.7631C78.8572 36.1828 75.6475 32.9556 75.6475 26.4037V16.7713H70.5896Z" fill="black"/>
<path d="M60.7095 36.1826V10.9526H67.275V36.1826H60.7095ZM60.0286 3.96052C60.0286 1.76023 61.828 0 64.0166 0C66.1565 0 67.9558 1.76023 67.9558 3.96052C67.9558 6.11193 66.1565 7.92106 64.0166 7.92106C61.828 7.92106 60.0286 6.11193 60.0286 3.96052Z" fill="black"/>
<path d="M31.1206 36.183V10.9529H37.686V17.4071C38.9991 13.1532 42.2089 10.464 46.3914 10.464C51.9842 10.464 55.6317 14.8646 55.6317 20.8787V36.183H49.0661V22.0523C49.0661 18.7763 46.7317 16.4781 43.6193 16.4781C40.1176 16.4781 37.686 18.7763 37.686 22.0523V36.183H31.1206Z" fill="black"/>
<path d="M7.0518 25.7191C7.58676 28.7507 9.77524 30.6087 13.5686 30.6087C16.973 30.6087 19.2101 28.8485 19.2101 26.6481C19.2101 20.0473 0.778129 24.2523 0.778129 11.5884C0.778129 5.81873 6.27366 1.46704 13.2768 1.46704C20.4745 1.46704 25.2892 5.42757 26.116 11.0016L19.0642 12.4196C18.5292 9.48589 16.3893 7.48118 13.0337 7.48118C10.0184 7.48118 7.97582 9.04583 7.97582 11.1972C7.97582 17.5047 26.4078 13.2997 26.4078 26.4527C26.4078 32.32 20.669 36.6718 13.3741 36.6718C5.98186 36.6718 0.875395 32.9068 0 27.1371L7.0518 25.7191Z" fill="black"/>
</svg>
