<svg width="90" height="40" viewBox="0 0 90 40" fill="none" xmlns="http://www.w3.org/2000/svg">
<g clip-path="url(#clip0_4917_31732)">
<mask id="mask0_4917_31732" style="mask-type:luminance" maskUnits="userSpaceOnUse" x="0" y="8" width="90" height="24">
<path d="M0 8H90V32H0V8Z" fill="white"/>
</mask>
<g mask="url(#mask0_4917_31732)">
<path d="M6.228 16.112C4.08 16.112 3.0276 18.0032 3.0276 20.5292V26.8592H0V13.502H2.9736V16.9676H3.0252C3.6612 14.8364 4.9272 13.1156 6.8796 13.1156C8.2524 13.1156 8.832 13.5944 8.832 13.5944L7.464 16.346C7.464 16.3436 7.0296 16.112 6.228 16.112ZM42.8232 17.9456V26.858H39.8736V19.0304C39.8736 16.784 39.1692 15.5936 37.368 15.5936C35.5044 15.5936 34.602 17.0984 34.602 19.9856V26.8568H31.68V19.0304C31.68 16.8704 30.984 15.5936 29.2008 15.5936C27.1668 15.5936 26.3832 17.3768 26.3832 19.9856V26.8568H23.4096V13.5008H26.3832V16.526H26.4096C26.8728 14.4332 28.1376 13.142 30.2712 13.142C32.388 13.142 33.7668 14.2784 34.29 16.2944C34.788 14.354 36.114 13.1408 38.1516 13.1408C40.9956 13.1408 42.8232 14.924 42.8232 17.9456ZM14.7816 13.1144C12.0456 13.1144 10.254 14.3996 9.438 16.7204L11.9568 17.636C12.4152 16.2368 13.3728 15.44 14.8344 15.44C16.4784 15.44 17.4444 16.1636 17.4444 17.2736C17.4444 18.41 16.6764 18.6476 14.9388 18.9284C13.0068 19.2392 8.4144 19.3412 8.4144 23.216C8.4144 25.4864 10.3128 27.194 13.164 27.194C15.3072 27.194 16.7676 26.318 17.4432 24.6872H17.4696V26.8592H20.418V18.6416C20.418 15.0476 18.6084 13.1144 14.7816 13.1144ZM17.5212 20.5712C17.5212 23.372 16.1352 25.1708 13.9212 25.1708C12.354 25.1708 11.4156 24.2924 11.4156 23.0252C11.4156 21.8372 12.3804 21.0116 14.2332 20.672C16.1292 20.324 17.0832 19.8944 17.5212 18.8636V20.5712ZM53.3124 13.1408C51.0564 13.1408 49.5672 14.3804 48.9288 16.2428V13.502H45.7968V32H48.9024V24.1184H48.9288C49.62 26.1356 51.0588 27.2456 53.3124 27.2456C56.8872 27.2456 59.4444 24.3008 59.4444 20.1404C59.4444 16.0088 56.8872 13.1408 53.3124 13.1408ZM52.542 24.7664C50.0664 24.7664 48.6936 22.97 48.6936 20.18C48.6936 17.39 50.2296 15.5936 52.542 15.5936C54.8532 15.5936 56.3916 17.4776 56.3916 20.18C56.3916 22.8836 54.8556 24.7664 52.542 24.7664ZM90.2064 26.798V26.882L78.0864 26.8856V26.798C79.8348 25.8104 81.0408 24.806 82.1268 23.7548H87.1032L90.2064 26.798ZM87.204 11.012L84.132 8H84.042C84.042 8 84.0936 13.616 78.936 18.7232C73.8888 23.7224 67.9536 23.7332 67.9536 23.7332V23.8208L71.0832 26.8868C71.0832 26.8868 76.932 26.9444 82.0992 21.8768C87.2472 16.8248 87.204 11.012 87.204 11.012Z" fill="#696F81"/>
</g>
</g>
<defs>
<clipPath id="clip0_4917_31732">
<rect width="90" height="24" fill="white" transform="translate(0 8)"/>
</clipPath>
</defs>
</svg>
