<svg width="161" height="38" viewBox="0 0 161 38" fill="none" xmlns="http://www.w3.org/2000/svg">
<path d="M0 30.1954V29.0809C0 27.9056 0.133722 26.8902 0.40191 26.0342C0.669725 25.1786 1.00682 24.4915 1.41283 23.9728C1.81921 23.4545 2.38576 23.0226 3.11173 22.6768C3.8377 22.3313 4.54467 22.116 5.23265 22.0314L7.83742 21.7113L13.7942 20.9802C16.2354 20.6802 17.912 20.4745 18.8234 20.362V19.0018C18.8234 16.7265 18.3835 15.1741 17.5037 14.3439C16.6239 13.514 15.1318 13.0993 13.0276 13.0993C10.4396 13.0993 8.19724 13.4134 6.29944 14.0417L5.98916 17.3272H1.84119V10.5609C3.51587 10.085 5.46247 9.70605 7.68098 9.42397C9.89949 9.14188 11.8114 9.00103 13.4176 9.00103H15.4376C21.3764 9.00103 24.3466 12.2076 24.3466 18.6203V32.8687C24.9515 32.903 26.2042 33.0051 28.1061 33.175V37.4551H18.8242V33.307C16.9543 34.8031 15.2711 35.8942 13.7737 36.5809C12.2763 37.2677 10.5156 37.6109 8.49039 37.6109H7.52975C6.11022 37.6109 4.96781 37.5245 4.10253 37.3523C3.23725 37.1794 2.47552 36.8295 1.81772 36.3022C1.15991 35.7749 0.692819 35.0229 0.415692 34.0463C0.138191 33.0692 0 31.7862 0 30.1954ZM5.78206 29.6477C5.78206 31.1203 6.0793 32.1328 6.67453 32.6847C7.26976 33.2365 8.3697 33.5127 9.97399 33.5127H10.802C12.1817 33.5127 13.5018 33.1937 14.7611 32.5557C16.0201 31.917 17.3749 30.9765 18.8238 29.7334V23.535C15.3176 23.883 12.4331 24.2221 10.171 24.5526C8.48405 24.7535 7.33085 25.1343 6.71178 25.6948C6.09197 26.2552 5.78243 27.2464 5.78243 28.6684L5.78206 29.6477ZM29.2809 27.9619V18.131C29.2809 15.2091 29.9849 12.9737 31.394 11.4261C32.8027 9.87858 34.6998 9.10462 37.0852 9.10462H37.9929C40.1533 9.10462 41.8429 9.29056 43.0617 9.66245C44.2801 10.0343 46.0304 10.8515 48.3118 12.1137V3.89107C47.8794 3.80499 46.4967 3.66637 44.1635 3.47595V0H53.8347V32.9418C54.5089 32.9675 55.7615 33.0454 57.5941 33.175V36.8064H48.3122V32.9939C46.3243 34.5676 44.5699 35.7302 43.049 36.4822C41.5278 37.2345 39.7734 37.6105 37.7858 37.6105H36.8263C34.4409 37.6105 32.5875 36.8284 31.2651 35.2629C29.9417 33.6986 29.2809 31.2645 29.2809 27.9619ZM34.8034 26.3543C34.8034 28.6967 35.1576 30.3676 35.8664 31.3659C36.5749 32.3649 37.7676 32.8643 39.4445 32.8643H40.2744C41.6917 32.8643 42.9879 32.6146 44.1635 32.1153C45.3387 31.6159 46.7213 30.7891 48.3118 29.635V15.8914C46.4967 14.8756 45.11 14.2429 44.1505 13.9932C43.1913 13.7436 41.8992 13.6184 40.2744 13.6184H39.3149C37.7076 13.6184 36.5537 14.1095 35.8538 15.0914C35.1539 16.0733 34.8037 17.537 34.8037 19.4829L34.8034 26.3543ZM56.3318 3.94286V0H65.4066V12.2977C67.5324 11.0185 69.2648 10.1499 70.605 9.69003C71.9444 9.2302 73.6597 9.00065 75.7516 9.00065H76.7107C79.0957 9.00065 80.976 9.73959 82.3494 11.2182C83.7242 12.6968 84.4111 14.8887 84.4111 17.7937V27.9619C84.4111 34.3947 81.4893 37.6109 75.6473 37.6109H74.8695C71.5678 37.6109 66.5728 37.387 59.8834 36.9405V4.30246C58.3279 4.16533 57.1438 4.04571 56.3318 3.94286ZM65.4066 33.0748C67.8605 33.3666 70.4273 33.5127 73.1069 33.5127H73.9625C75.6566 33.5127 76.9011 33.0066 77.6959 31.9942C78.4908 30.9817 78.8886 29.3261 78.8886 27.0269V20.438C78.8886 18.0013 78.5556 16.2384 77.8904 15.1488C77.2247 14.0596 76.0883 13.5144 74.481 13.5144H73.4697C71.931 13.5144 70.6087 13.6817 69.5028 14.0167C68.3969 14.3517 67.0306 15.0161 65.4066 16.0111V33.0748ZM87.4271 26.0424V20.2584C87.4271 16.5234 88.4439 13.7134 90.477 11.8282C92.5096 9.94379 95.498 9.00103 99.4426 9.00103H101.162C105.002 9.00103 107.847 9.87858 109.697 11.6337C111.548 13.3888 112.474 16.0822 112.474 19.7136V25.9388H92.9495V27.8456C92.9495 29.8038 93.5023 31.2683 94.6067 32.2386C95.7104 33.209 97.2636 33.6941 99.265 33.6941H101.491C104.441 33.6941 106.331 32.7752 107.159 30.9374L107.366 30.1127H111.722V33.747C110.558 35.0602 109.046 36.0634 107.186 36.755C105.327 37.4462 103.354 37.7924 101.269 37.7924H99.4441C95.2209 37.7924 92.1625 36.8586 90.2687 34.9909C88.3743 33.1236 87.4271 30.1407 87.4271 26.0424ZM92.9495 21.996H107.521V18.6598C107.521 16.7973 106.956 15.3794 105.826 14.405C104.695 13.4309 103.129 12.9435 101.128 12.9435H99.5231C97.4532 12.9435 95.8396 13.4652 94.6838 14.5082C93.5272 15.5516 92.9495 17.0649 92.9495 19.0477V21.996ZM115.541 30.1954V29.0809C115.541 27.9056 115.674 26.8902 115.943 26.0342C116.211 25.1786 116.547 24.4915 116.954 23.9728C117.36 23.4545 117.927 23.0226 118.653 22.6768C119.379 22.3313 120.086 22.116 120.774 22.0314L123.378 21.7113L129.336 20.9802C131.776 20.6802 133.453 20.4745 134.365 20.362V19.0018C134.365 16.7265 133.925 15.1741 133.044 14.3439C132.165 13.514 130.673 13.0993 128.569 13.0993C125.98 13.0993 123.738 13.4134 121.84 14.0417L121.53 17.3272H117.381V10.5609C119.056 10.085 121.003 9.70605 123.221 9.42397C125.439 9.14188 127.352 9.00103 128.957 9.00103H130.978C136.916 9.00103 139.887 12.2076 139.887 18.6203V32.8687C140.491 32.903 141.744 33.0051 143.646 33.175V37.4551H134.364V33.307C132.495 34.8031 130.811 35.8942 129.314 36.5809C127.816 37.2677 126.055 37.6109 124.031 37.6109H123.07C121.65 37.6109 120.508 37.5245 119.642 37.3523C118.778 37.1794 118.016 36.8295 117.357 36.3022C116.699 35.7749 116.232 35.0229 115.955 34.0463C115.678 33.0696 115.541 31.7862 115.541 30.1954ZM121.323 29.6477C121.323 31.1203 121.621 32.1328 122.216 32.6847C122.81 33.2365 123.911 33.5127 125.515 33.5127H126.343C127.723 33.5127 129.042 33.1937 130.302 32.5557C131.561 31.917 132.915 30.9765 134.365 29.7334V23.535C130.858 23.883 127.974 24.2221 125.711 24.5526C124.025 24.7535 122.872 25.1343 122.253 25.6948C121.632 26.2552 121.323 27.2464 121.323 28.6684V29.6477ZM143.033 13.7216V9.62333H145.464C145.874 9.62333 146.154 9.5365 146.306 9.36211C146.457 9.18846 146.533 8.88402 146.533 8.44878V1.9746C148.506 1.67873 150.347 1.5047 152.056 1.45254V9.62296H159.704V13.7212H152.056V27.7536C152.056 29.8981 152.276 31.3163 152.717 32.0076C153.157 32.6992 154.078 33.045 155.478 33.045H155.945C158.035 33.045 159.721 32.9932 161 32.8892V36.1133C158.563 37.2319 155.979 37.7916 153.247 37.7916H152.651C150.559 37.7916 149.017 37.1977 148.023 36.0116C147.029 34.824 146.532 32.9481 146.532 30.3833V13.7208H143.033V13.7216Z" fill="#1A1A1A"/>
</svg>
