<svg xmlns="http://www.w3.org/2000/svg" width="438.23" height="107.42" viewBox="0 0 438.23001 107.42"><g fill="#1a1a1a"><path d="M6 87.033v-2.991c0-3.154.359-5.879 1.079-8.176.719-2.296 1.624-4.14 2.714-5.532 1.091-1.391 2.612-2.55 4.561-3.478 1.949-.927 3.847-1.505 5.694-1.732l6.993-.859 15.992-1.962c6.554-.805 11.055-1.357 13.502-1.659v-3.65c0-6.106-1.181-10.272-3.543-12.5-2.362-2.227-6.368-3.34-12.017-3.34-6.948 0-12.968.843-18.063 2.529l-.833 8.817H10.943V34.342c4.496-1.277 9.722-2.294 15.678-3.051 5.956-.757 11.089-1.135 15.401-1.135h5.423c15.944 0 23.918 8.605 23.918 25.814v38.237c1.624.092 4.987.366 10.093.822v11.486H56.537V95.383c-5.02 4.015-9.539 6.943-13.559 8.786s-8.747 2.764-14.184 2.764h-2.579c-3.811 0-6.878-.232-9.201-.694-2.323-.464-4.368-1.403-6.134-2.818s-3.02-3.433-3.764-6.054C6.371 94.745 6 91.302 6 87.033zm15.523-1.47c0 3.952.798 6.669 2.396 8.15 1.598 1.481 4.551 2.222 8.858 2.222H35c3.704 0 7.248-.856 10.629-2.568 3.38-1.714 7.017-4.238 10.907-7.574V69.159c-9.413.934-17.157 1.844-23.23 2.731-4.529.539-7.625 1.561-9.287 3.065-1.664 1.504-2.495 4.164-2.495 7.98v2.628zM84.61 81.039V54.657c0-7.841 1.89-13.84 5.673-17.993 3.782-4.153 8.875-6.23 15.279-6.23h2.437c5.8 0 10.336.499 13.608 1.497 3.271.998 7.97 3.191 14.095 6.578V16.443c-1.161-.231-4.873-.603-11.137-1.114V6.001h25.964v88.402c1.81.069 5.173.278 10.093.626v9.745h-24.919V94.543c-5.337 4.223-10.047 7.343-14.13 9.361-4.084 2.019-8.794 3.028-14.13 3.028h-2.576c-6.404 0-11.38-2.099-14.93-6.3-3.553-4.198-5.327-10.73-5.327-19.593zm14.826-4.314c0 6.286.951 10.77 2.854 13.449 1.902 2.681 5.104 4.021 9.606 4.021h2.228c3.805 0 7.285-.67 10.441-2.01 3.155-1.34 6.867-3.559 11.137-6.656V48.647c-4.873-2.726-8.596-4.424-11.172-5.094-2.575-.67-6.044-1.006-10.406-1.006h-2.576c-4.315 0-7.413 1.318-9.292 3.953-1.879 2.635-2.819 6.563-2.819 11.785v18.44zM157.233 16.582V6.001h24.363v33.002c5.707-3.433 10.358-5.764 13.956-6.998 3.596-1.234 8.201-1.85 13.817-1.85h2.575c6.403 0 11.451 1.983 15.138 5.951 3.691 3.968 5.535 9.85 5.535 17.646v27.287c0 17.263-7.844 25.894-23.528 25.894h-2.088c-8.864 0-22.274-.601-40.233-1.799V17.547c-4.176-.368-7.355-.689-9.535-.965zm24.363 78.178c6.588.783 13.479 1.175 20.673 1.175h2.297c4.548 0 7.889-1.358 10.023-4.075 2.134-2.717 3.202-7.16 3.202-13.33V60.848c0-6.539-.894-11.27-2.68-14.194-1.787-2.923-4.838-4.386-9.153-4.386h-2.715c-4.131 0-7.681.449-10.65 1.348-2.969.899-6.637 2.682-10.997 5.352V94.76zM240.714 75.888V60.366c0-10.023 2.73-17.564 8.188-22.623 5.457-5.057 13.48-7.587 24.07-7.587h4.615c10.311 0 17.947 2.355 22.916 7.065 4.969 4.71 7.453 11.938 7.453 21.683V75.61H255.54v5.117c0 5.255 1.484 9.185 4.449 11.789 2.963 2.604 7.133 3.906 12.506 3.906h5.977c7.92 0 12.992-2.466 15.217-7.398l.555-2.213h11.693v9.753c-3.125 3.524-7.184 6.216-12.176 8.072-4.992 1.855-10.287 2.784-15.887 2.784h-4.898c-11.338 0-19.549-2.506-24.633-7.518-5.086-5.011-7.629-13.016-7.629-24.014zm14.826-10.859h39.121v-8.953c0-4.998-1.518-8.803-4.553-11.418-3.035-2.614-7.238-3.922-12.611-3.922h-4.309c-5.557 0-9.889 1.4-12.992 4.199-3.105 2.8-4.656 6.861-4.656 12.182v7.912zM316.192 87.033v-2.991c0-3.154.357-5.879 1.078-8.176.719-2.296 1.623-4.14 2.715-5.532 1.09-1.391 2.611-2.55 4.561-3.478 1.949-.927 3.846-1.505 5.693-1.732l6.992-.859 15.994-1.962c6.553-.805 11.055-1.357 13.502-1.659v-3.65c0-6.106-1.182-10.272-3.545-12.5-2.361-2.227-6.367-3.34-12.016-3.34-6.949 0-12.969.843-18.063 2.529l-.834 8.817h-11.137V34.342c4.496-1.277 9.723-2.294 15.678-3.051 5.955-.757 11.09-1.135 15.4-1.135h5.424c15.943 0 23.918 8.605 23.918 25.814v38.237c1.623.092 4.986.366 10.092.822v11.486h-24.918V95.383c-5.02 4.015-9.539 6.943-13.559 8.786-4.021 1.843-8.748 2.764-14.184 2.764h-2.58c-3.811 0-6.877-.232-9.201-.694-2.322-.464-4.367-1.403-6.135-2.818-1.766-1.415-3.02-3.433-3.764-6.054-.744-2.621-1.111-6.065-1.111-10.334zm15.522-1.47c0 3.952.799 6.669 2.396 8.15 1.597 1.481 4.551 2.222 8.857 2.222h2.223c3.705 0 7.248-.856 10.629-2.568 3.381-1.714 7.016-4.238 10.908-7.574V69.159c-9.414.934-17.158 1.844-23.232 2.731-4.527.539-7.623 1.561-9.285 3.065-1.666 1.504-2.496 4.164-2.496 7.98v2.628zM389.997 42.824V31.826h6.529c1.1 0 1.852-.233 2.258-.701.408-.466.611-1.283.611-2.451V11.3c5.297-.794 10.24-1.261 14.826-1.401v21.926h20.533v10.998h-20.533V80.48c0 5.755.592 9.561 1.775 11.416 1.182 1.856 3.654 2.784 7.412 2.784h1.254c5.613 0 10.139-.139 13.572-.418v8.652c-6.543 3.002-13.48 4.504-20.813 4.504h-1.602c-5.615 0-9.756-1.594-12.424-4.777-2.67-3.187-4.002-8.221-4.002-15.104V42.822h-9.396z"/></g></svg>