<svg width="149" height="38" viewBox="0 0 149 38" fill="none" xmlns="http://www.w3.org/2000/svg">
<path d="M0.0491354 12.4927L0.085987 24.9976L0.405367 26.2874C0.786166 27.8106 1.33894 29.2355 1.94085 30.2674C3.84484 33.5226 7.12463 35.7951 11.0677 36.6058C12.8366 36.9744 15.5759 36.9007 17.3571 36.4462C21.2633 35.4266 24.6168 32.7364 26.4103 29.1496C27.5158 26.9385 27.9949 23.9166 27.6509 21.251C27.0859 16.8657 24.3589 12.9595 20.3912 10.8221C18.438 9.76565 16.6078 9.33572 14.0036 9.33572C13.0086 9.33572 12.0259 9.37257 11.8171 9.40942L11.4363 9.48312V14.9494C11.4363 17.959 11.4731 20.3912 11.5222 20.3666C13.1928 19.5313 13.2665 19.5067 14.1756 19.5559C14.7038 19.5804 15.2565 19.7033 15.5513 19.8384C16.3007 20.2069 17.0254 20.9931 17.3202 21.7915C18.3521 24.5431 16.3498 27.2087 13.4017 26.9999C11.8048 26.877 10.7484 25.9558 10.2447 24.2606C10.0482 23.585 10.0236 22.5777 9.98676 11.7556L9.94991 0H0L0.0491354 12.4927ZM49.3219 13.5859C48.6709 13.9053 48.0567 14.5563 47.8233 15.1583C47.6636 15.5882 47.6636 16.5218 47.8356 17.1237C48.0076 17.7501 48.9166 18.6223 49.5799 18.8066C52.1104 19.5067 54.2355 17.6396 53.5844 15.3057C53.4248 14.716 52.5772 13.7948 51.9384 13.4999C51.1891 13.156 50.1081 13.1928 49.3219 13.5859ZM116.114 13.5614C115.033 14.065 114.456 14.9617 114.456 16.1778C114.456 17.5413 115.315 18.5854 116.667 18.868C117.44 19.0277 118.386 18.9294 118.964 18.6223C120.045 18.0695 120.647 16.7183 120.352 15.5022C120.18 14.7406 119.418 13.8193 118.693 13.4999C117.981 13.1683 116.888 13.1928 116.114 13.5614ZM57.2339 25.4275V36.3602H63.253V14.4949H57.2339V25.4275ZM66.0671 21.9512C66.1286 29.9112 66.1286 30.0217 66.7673 31.7169C67.7623 34.3825 70.6367 36.3602 73.806 36.569L74.8747 36.6427V30.2551L74.2605 30.1814C72.8478 30.0094 72.3073 29.3829 72.1968 27.786L72.1354 26.9016H74.7518V20.514H72.1722V14.4949H66.018L66.0671 21.9512ZM81.116 22.1969C81.1651 29.7269 81.1651 29.9357 81.4354 30.8816C81.9022 32.5399 82.4918 33.5963 83.6096 34.7141C85.2311 36.3479 87.0982 37.1095 89.4936 37.1218C91.717 37.1341 93.4736 36.4339 95.5618 34.665L96.2006 34.1245L97.0604 34.8493C99.1733 36.6427 101.458 37.4043 103.817 37.0972C105.585 36.8761 106.716 36.4093 108.005 35.3775C109.443 34.2351 110.413 32.8716 111.039 31.115L111.371 30.1568L111.408 22.3197L111.445 14.4949L107.293 14.5195L103.141 14.5563L103.08 21.2756C103.018 27.8475 103.018 27.9949 102.76 28.3388C102.134 29.1741 101.102 29.1496 100.672 28.2774C100.451 27.8597 100.438 27.3684 100.402 21.1528L100.365 14.4949L96.2251 14.5195L92.0855 14.5563L92.0241 21.2756C91.9626 27.8475 91.9626 27.9949 91.7047 28.3388C91.3116 28.867 90.8571 29.0513 90.3043 28.8793C89.4936 28.6336 89.5182 28.8179 89.4445 21.3125L89.383 14.5563L85.2311 14.5195L81.0792 14.4949L81.116 22.1969ZM123.252 21.2142C123.252 28.1914 123.326 29.5672 123.756 31.0167C124.689 34.1614 127.539 36.3479 131.028 36.569L132.096 36.6427V30.2551L131.482 30.1814C130.192 30.0217 129.59 29.4321 129.443 28.1668C129.406 27.8352 129.357 27.4298 129.332 27.2333L129.283 26.9016H131.973V20.514H129.271V14.4949H123.252V21.2142ZM134.996 25.4275V36.3602H141.016V31.6923C141.016 27.8229 141.052 26.9507 141.2 26.6682C141.495 26.0786 142.195 25.9803 142.674 26.4717L142.981 26.7665V36.3602H149V30.6113C149 24.2974 148.963 23.9289 148.251 22.6023C147.587 21.3493 146.592 20.5263 145.352 20.2069C144.086 19.8753 142.834 20.0349 141.679 20.686C141.359 20.858 141.089 21.0054 141.065 21.0054C141.04 21.0054 141.016 19.5436 141.016 17.7501V14.4949H134.996V25.4275ZM47.7005 28.3757V36.3602H53.7196V20.3912H47.7005V28.3757ZM114.456 28.3757V36.3602H120.475V20.3912H114.456V28.3757ZM29.9369 25.5135C29.9369 31.115 29.986 31.5818 30.7353 33.1418C31.5338 34.8124 33.2904 36.2373 35.1084 36.6673C36.1157 36.9007 37.9214 36.9007 38.8181 36.6673C41.1152 36.0654 43.1052 34.1245 43.8545 31.7537C44.1124 30.9184 44.1247 30.7219 44.1247 25.7346V20.5754L41.152 20.5386L38.1793 20.514L38.1425 25.4398L38.1056 30.3657L37.7494 30.6728C37.4546 30.9307 37.2949 30.9676 36.9018 30.9184C35.9805 30.7956 36.0297 31.029 35.956 25.5135L35.8945 20.5754L32.9219 20.5386L29.9369 20.514V25.5135Z" fill="#1A1A1A"/>
</svg>
