<svg width="132" height="32" viewBox="0 0 132 32" fill="none" xmlns="http://www.w3.org/2000/svg">
<path d="M34.8418 24.1317V8.05322H38.02V14.4387H45.7581V8.05322H48.9132V24.1317H45.7581V17.1031H38.02V24.1317H34.8418Z" fill="#040508"/>
<path d="M58.2515 24.1312L58.2054 22.6612C57.8216 23.1971 57.3072 23.6182 56.6624 23.9245C56.0329 24.2308 55.2806 24.3839 54.4054 24.3839C53.8527 24.3839 53.3153 24.3073 52.7933 24.1542C52.2713 24.0011 51.803 23.7714 51.3885 23.4651C50.9893 23.1589 50.6669 22.776 50.4212 22.3167C50.1756 21.8573 50.0527 21.3213 50.0527 20.7088C50.0527 19.4378 50.5287 18.5344 51.4806 17.9984C52.4479 17.4472 53.7145 17.049 55.2806 16.804L57.9981 16.3676V16.2298C57.9981 15.4795 57.7985 14.9512 57.3993 14.6449C57.0155 14.3234 56.4705 14.1626 55.7642 14.1626C55.0579 14.1626 54.4899 14.3234 54.06 14.6449C53.6454 14.9665 53.3767 15.4335 53.2539 16.046H50.4442C50.6131 14.7904 51.2042 13.7951 52.2176 13.06C53.2309 12.325 54.4515 11.9575 55.8794 11.9575C57.3686 11.9575 58.5816 12.2944 59.5181 12.9682C60.4547 13.6419 60.9153 14.798 60.8999 16.4365L60.8539 21.6735C60.8539 21.8726 60.8615 22.1559 60.8769 22.5234C60.8922 22.8756 60.9229 23.4115 60.969 24.1312H58.2515ZM52.9315 20.571C52.9315 21.0916 53.1311 21.4898 53.5303 21.7654C53.9448 22.0257 54.4592 22.1559 55.0733 22.1559C55.8717 22.1559 56.5549 21.9185 57.123 21.4438C57.7064 20.9538 57.9981 20.2341 57.9981 19.2847V18.4578C56.2171 18.6875 54.9274 18.9402 54.1291 19.2158C53.3307 19.4761 52.9315 19.9278 52.9315 20.571Z" fill="#040508"/>
<path d="M65.2213 17.7231V24.1315H62.2734V12.2335H65.1522V14.048C65.275 13.849 65.4132 13.6499 65.5667 13.4508C65.7203 13.2518 65.8968 13.0757 66.0964 12.9226C66.4496 12.6469 66.8104 12.4479 67.1788 12.3254C67.5473 12.2029 67.9926 12.1416 68.5146 12.1416C68.6681 12.1416 68.814 12.1493 68.9522 12.1646C69.1057 12.1799 69.2362 12.1952 69.3437 12.2105V14.9898C69.052 14.9745 68.8217 14.9668 68.6528 14.9668C68.4839 14.9515 68.3227 14.9438 68.1691 14.9438C67.8467 14.9438 67.5089 14.9821 67.1558 15.0587C66.818 15.1199 66.5033 15.2578 66.2116 15.4721C65.9199 15.6712 65.6819 15.9545 65.4977 16.322C65.3134 16.6742 65.2213 17.1412 65.2213 17.7231Z" fill="#040508"/>
<path d="M73.3053 17.5161V24.1312H70.3574V12.2332H73.2362V13.6343C73.5893 13.0983 74.0653 12.6849 74.6641 12.3939C75.2628 12.103 75.9537 11.9575 76.7368 11.9575C77.443 11.9575 78.1186 12.1183 78.7634 12.4399C79.4083 12.7461 79.9226 13.2438 80.3064 13.9329C80.7056 13.2897 81.243 12.7997 81.9185 12.4628C82.6094 12.126 83.3694 11.9575 84.1985 11.9575C84.7819 11.9575 85.3347 12.0417 85.8567 12.2102C86.3941 12.3786 86.8623 12.6466 87.2615 13.0141C87.6607 13.3816 87.9755 13.864 88.2058 14.4612C88.4514 15.0431 88.5742 15.7474 88.5742 16.5743V24.1312H85.6034V17.0567C85.6034 16.1992 85.3884 15.556 84.9585 15.1273C84.5286 14.6985 83.9989 14.4841 83.3694 14.4841C82.7399 14.4841 82.1719 14.7445 81.6652 15.2651C81.1739 15.7704 80.9282 16.5207 80.9282 17.5161V24.1312H77.9804V17.0567C77.9804 16.1992 77.7654 15.556 77.3355 15.1273C76.9057 14.6985 76.376 14.4841 75.7465 14.4841C75.117 14.4841 74.5489 14.7368 74.0422 15.2421C73.5509 15.7474 73.3053 16.5054 73.3053 17.5161Z" fill="#040508"/>
<path d="M95.8536 24.3839C94.9785 24.3839 94.1571 24.2384 93.3894 23.9475C92.6217 23.6565 91.9539 23.2431 91.3858 22.7071C90.8331 22.1559 90.3878 21.4974 90.05 20.7318C89.7276 19.9508 89.5664 19.078 89.5664 18.1133C89.5664 17.1792 89.7276 16.337 90.05 15.5867C90.3878 14.821 90.8407 14.1702 91.4088 13.6343C91.9769 13.0983 92.6448 12.6849 93.4124 12.3939C94.1801 12.103 94.9938 11.9575 95.8536 11.9575C96.7134 11.9575 97.5271 12.103 98.2948 12.3939C99.0625 12.6849 99.7227 13.0983 100.275 13.6343C100.843 14.1549 101.289 14.798 101.611 15.5637C101.949 16.314 102.118 17.1639 102.118 18.1133C102.118 19.0627 101.949 19.9278 101.611 20.7088C101.289 21.4744 100.843 22.1329 100.275 22.6842C99.7073 23.2201 99.0394 23.6412 98.2718 23.9475C97.5195 24.2384 96.7134 24.3839 95.8536 24.3839ZM95.8536 21.9032C96.8055 21.9032 97.5809 21.5587 98.1797 20.8696C98.7784 20.1652 99.0778 19.2464 99.0778 18.1133C99.0778 17.0414 98.7784 16.1609 98.1797 15.4718C97.5809 14.7827 96.8055 14.4382 95.8536 14.4382C94.8864 14.4382 94.1033 14.7827 93.5046 15.4718C92.9058 16.1456 92.6064 17.0261 92.6064 18.1133C92.6064 19.2311 92.9058 20.1422 93.5046 20.8466C94.1033 21.551 94.8864 21.9032 95.8536 21.9032Z" fill="#040508"/>
<path d="M125.398 24.3839C124.553 24.3839 123.755 24.2384 123.003 23.9475C122.266 23.6412 121.621 23.2201 121.068 22.6842C120.516 22.1329 120.078 21.4744 119.756 20.7088C119.448 19.9278 119.295 19.0627 119.295 18.1133C119.295 17.2098 119.456 16.3829 119.779 15.6326C120.116 14.867 120.562 14.2162 121.114 13.6802C121.667 13.129 122.32 12.7078 123.072 12.4169C123.824 12.1106 124.615 11.9575 125.444 11.9575C126.166 11.9575 126.849 12.0724 127.494 12.3021C128.154 12.5164 128.737 12.8227 129.244 13.2208C129.751 13.6036 130.165 14.0783 130.488 14.6449C130.825 15.2115 131.033 15.8317 131.109 16.5054H128.185C128.031 15.8623 127.693 15.357 127.171 14.9895C126.665 14.622 126.081 14.4382 125.421 14.4382C124.515 14.4382 123.77 14.7827 123.187 15.4718C122.619 16.1609 122.335 17.0414 122.335 18.1133C122.335 19.2158 122.627 20.1269 123.21 20.8466C123.809 21.551 124.546 21.9032 125.421 21.9032C126.066 21.9032 126.642 21.7271 127.148 21.3749C127.655 21.0074 128 20.4868 128.185 19.813H131.109C131.002 20.5327 130.772 21.1758 130.418 21.7424C130.065 22.309 129.635 22.7914 129.129 23.1895C128.622 23.5723 128.046 23.8709 127.402 24.0853C126.757 24.2844 126.089 24.3839 125.398 24.3839Z" fill="#040508"/>
<path d="M115.309 10.3501V7.59375H118.303V10.3501H115.309ZM115.332 24.1316V12.2335H118.279V24.1316H115.332Z" fill="#040508"/>
<path d="M106.081 17.6769V24.1312H103.133V12.2332H106.035V13.6572C106.418 13.1213 106.917 12.7078 107.532 12.4169C108.161 12.1106 108.852 11.9575 109.604 11.9575C110.909 11.9575 111.953 12.3633 112.736 13.1749C113.535 13.9865 113.934 15.1656 113.934 16.7122V24.1312H110.986V17.1486C110.986 16.337 110.779 15.6939 110.364 15.2192C109.95 14.7291 109.366 14.4841 108.614 14.4841C107.938 14.4841 107.347 14.7521 106.841 15.2881C106.334 15.8087 106.081 16.605 106.081 17.6769Z" fill="#040508"/>
<path d="M6.49743 1.08252L12.9949 4.83381V12.3364L6.49743 16.0877L0 12.3364V4.83381L6.49743 1.08252Z" fill="#FE5D45"/>
<path d="M6.49743 16.0874L12.9949 19.8387V27.3413L6.49743 31.0926L0 27.3413V19.8387L6.49743 16.0874Z" fill="#FE5D45"/>
<path d="M19.5026 8.58496L26 12.3363V19.8388L19.5026 23.5901L13.0051 19.8388V12.3363L19.5026 8.58496Z" fill="#FE5D45"/>
</svg>
