<svg xmlns="http://www.w3.org/2000/svg" width="154" height="30" fill="none" viewBox="0 0 154 30"><path fill="url(#a)" fill-rule="evenodd" d="M12.119 3c0-.54.434-.978.975-1h3.81c.543.022.976.46.976 1 0 .552-.455 1-1.017 1h-3.728c-.56 0-1.016-.448-1.016-1M8.032 6.52c.019-.647.587-1.145 1.239-1.145h11.508c.67 0 1.21.548 1.19 1.217-.02.647-.588 1.145-1.239 1.145h-2.843a.676.676 0 0 0-.674.74c.033.352.35.61.703.61h8.767c.609 0 1.172.325 1.473.852q.402.701.729 1.447a1.014 1.014 0 0 1-.936 1.413h-4.112a.846.846 0 0 0-.844.928c.043.439.437.76.879.76h4.773c.828 0 1.455.732 1.341 1.547a15 15 0 0 1-.593 2.579 1.36 1.36 0 0 1-1.292.936H16.016c-.571 0-1.033.471-1.016 1.045.016.554.503.981 1.06.981h10.747c.547 0 .873.614.558 1.058A15.14 15.14 0 0 1 15 29a15.14 15.14 0 0 1-12.365-6.367c-.317-.444.012-1.058.557-1.058h2.463c.572 0 1.033-.47 1.016-1.044-.016-.554-.502-.982-1.059-.982H1.9a1.36 1.36 0 0 1-1.293-.936 15 15 0 0 1-.594-2.579A1 1 0 0 1 0 15.881v-.073a1.354 1.354 0 0 1 1.355-1.32h13.988a.846.846 0 0 0 .843-.928c-.043-.439-.438-.76-.881-.76H2.05a1.013 1.013 0 0 1-.935-1.414q.326-.746.729-1.447a1.7 1.7 0 0 1 1.473-.852h8.795c.397 0 .713-.34.675-.74-.034-.352-.349-.61-.704-.61H9.221A1.185 1.185 0 0 1 8.032 6.52" clip-rule="evenodd"/><path fill="#1a1a1a" fill-rule="evenodd" d="M145.352 23c4.549 0 8.236-3.582 8.236-8s-3.687-8-8.236-8c-4.548 0-8.235 3.582-8.235 8s3.687 8 8.235 8m0-1.6c3.639 0 6.589-2.865 6.589-6.4s-2.95-6.4-6.589-6.4c-3.638 0-6.588 2.865-6.588 6.4s2.95 6.4 6.588 6.4" clip-rule="evenodd"/><path fill="#1a1a1a" d="M133.824 7.4c0-.22.185-.4.412-.4h.824c.227 0 .411.18.411.4v15.2c0 .22-.184.4-.411.4h-.824a.406.406 0 0 1-.412-.4zm-3.295 14.4c0-.22.185-.4.412-.4h.824c.227 0 .411.18.411.4v.8c0 .221-.184.4-.411.4h-.824a.406.406 0 0 1-.412-.4zM115.706 15v7.6c0 .22-.184.4-.412.4h-2.47a.406.406 0 0 1-.412-.4V7.4c0-.22.184-.4.412-.4h1.448c.374 0 .716.205.884.53l.462.898a.17.17 0 0 0 .247.058A8.36 8.36 0 0 1 120.647 7c4.549 0 8.236 3.582 8.236 8v7.6c0 .22-.185.4-.412.4H126a.406.406 0 0 1-.411-.4V15c0-2.651-2.213-4.8-4.942-4.8-2.487 0-4.545 1.786-4.89 4.11z"/><path fill="#1a1a1a" fill-rule="evenodd" d="M102.118 7c-4.548 0-8.235 3.582-8.235 8s3.687 8 8.235 8a8.36 8.36 0 0 0 4.782-1.486.17.17 0 0 1 .248.058l.462.897a.99.99 0 0 0 .884.531h1.448c.227 0 .411-.18.411-.4V15c0-4.418-3.687-8-8.235-8m-4.941 8c0-2.651 2.212-4.8 4.941-4.8s4.941 2.149 4.941 4.8-2.212 4.8-4.941 4.8-4.941-2.149-4.941-4.8m-6.416 4.57a.378.378 0 0 0-.155-.562l-2.247-1.091a.446.446 0 0 0-.531.12A4.99 4.99 0 0 1 84 19.8c-2.197 0-4.059-1.393-4.702-3.319-.033-.1.046-.201.155-.201h11.959a.81.81 0 0 0 .823-.8V15c0-4.418-3.687-8-8.235-8s-8.235 3.582-8.235 8 3.687 8 8.235 8c2.8 0 5.272-1.357 6.76-3.43m-2.17-5.85c.106 0 .184-.095.158-.194C88.203 11.5 86.527 9.88 84 9.88s-4.203 1.62-4.748 3.646c-.026.099.052.194.157.194z" clip-rule="evenodd"/><path fill="#1a1a1a" d="M74.323 19.86a.377.377 0 0 1 .072.576A8.32 8.32 0 0 1 68.353 23c-4.549 0-8.236-3.582-8.236-8s3.687-8 8.236-8c2.387 0 4.538.987 6.042 2.564a.377.377 0 0 1-.072.576l-2.053 1.396a.45.45 0 0 1-.548-.046 5 5 0 0 0-3.37-1.29c-2.728 0-4.94 2.149-4.94 4.8s2.212 4.8 4.94 4.8c1.303 0 2.488-.49 3.37-1.29a.45.45 0 0 1 .548-.046z"/><path fill="#1a1a1a" fill-rule="evenodd" d="M50.235 23c4.548 0 8.236-3.582 8.236-8s-3.687-8-8.236-8C45.687 7 42 10.582 42 15s3.687 8 8.235 8m0-3.2c2.73 0 4.941-2.149 4.941-4.8s-2.212-4.8-4.94-4.8c-2.73 0-4.942 2.149-4.942 4.8s2.212 4.8 4.941 4.8" clip-rule="evenodd"/><defs><linearGradient id="a" x1="21.107" x2="40.699" y1="-9.391" y2="22.385" gradientUnits="userSpaceOnUse"><stop stop-color="#96cffa"/><stop offset="1" stop-color="#5177e6"/></linearGradient></defs></svg>