<svg width="220" height="41" viewBox="0 0 220 41" fill="none" xmlns="http://www.w3.org/2000/svg">
<path d="M49.0074 7.63229C47.213 6.51936 45.2209 5.96289 43.0295 5.96289C40.9651 5.96289 39.1953 6.47167 37.7185 7.4892C36.6739 8.20996 35.8569 9.1374 35.266 10.2698V6.53525H28.644V40.257H35.266V27.0785C35.8569 28.2127 36.6739 29.1401 37.7185 29.8592C39.1953 30.8767 40.9651 31.3855 43.0295 31.3855C45.2209 31.3855 47.213 30.836 49.0074 29.739C50.8019 28.6419 52.2152 27.1244 53.2474 25.1848C54.2796 23.2451 54.7949 21.0828 54.7949 18.6981C54.7949 16.3132 54.2777 14.112 53.2474 12.1882C52.2152 10.2645 50.8019 8.74699 49.0074 7.63229ZM47.2447 22.0846C46.689 23.1021 45.9266 23.897 44.9581 24.4693C43.9893 25.0418 42.9007 25.3279 41.6939 25.3279C40.4869 25.3279 39.3983 25.0418 38.4295 24.4693C37.4609 23.897 36.6915 23.1021 36.1199 22.0846C35.5483 21.067 35.2623 19.9382 35.2623 18.6981C35.2623 17.4579 35.5483 16.2814 36.1199 15.2638C36.6915 14.2463 37.4609 13.4513 38.4295 12.879C39.3983 12.3066 40.4851 12.0204 41.6939 12.0204C42.9024 12.0204 43.9876 12.3066 44.9581 12.879C45.9266 13.4513 46.689 14.2463 47.2447 15.2638C47.8005 16.2814 48.0793 17.4261 48.0793 18.6981C48.0793 19.9699 47.8005 21.067 47.2447 22.0846Z" fill="black"/>
<path d="M75.6238 7.87078C73.8293 6.59885 71.6767 5.96289 69.1694 5.96289C66.6622 5.96289 64.6683 6.52819 62.8103 7.65526C60.9523 8.78409 59.5074 10.3192 58.4752 12.2589C57.443 14.1986 56.9277 16.345 56.9277 18.6981C56.9277 21.2419 57.4589 23.4677 58.5227 25.3755C59.5868 27.2835 61.1024 28.762 63.0716 29.8114C65.0406 30.8608 67.2955 31.3855 69.8365 31.3855C71.8691 31.3855 73.6953 31.131 75.315 30.6222C76.9347 30.1135 78.2528 29.398 79.2691 28.4759V22.8C78.094 23.7857 76.7988 24.5647 75.3873 25.1371C73.974 25.7094 72.5061 25.9956 70.9797 25.9956C69.2647 25.9956 67.772 25.6778 66.5016 25.0418C65.2313 24.4058 64.2784 23.5155 63.6432 22.3707C63.2445 21.6535 62.9727 20.8744 62.8228 20.0336H80.0772C80.4266 17.4579 80.2202 15.1048 79.4579 12.9744C78.6957 10.8439 77.4182 9.1427 75.6238 7.87078ZM63.0168 15.6454C63.1316 15.1967 63.2761 14.7745 63.4526 14.3805C63.9608 13.2517 64.6683 12.4002 65.5734 11.8296C66.4786 11.2573 67.5039 10.9711 68.6471 10.9711C69.5681 10.9711 70.401 11.1778 71.1474 11.5911C71.8938 12.0045 72.4972 12.561 72.9577 13.2605C73.4183 13.9601 73.6635 14.755 73.697 15.6454H63.0187H63.0168Z" fill="black"/>
<path d="M102.35 7.27368C100.905 6.39923 99.2287 5.96289 97.3249 5.96289C96.1815 5.96289 95.1175 6.16252 94.133 6.55999C93.1485 6.95746 92.2909 7.53867 91.5604 8.30005C91.0116 8.87241 90.5353 9.52428 90.1312 10.2592V6.53525H83.5093V30.813H90.1312V18.1256C90.1312 16.9809 90.3535 15.9404 90.7981 15.0006C91.2428 14.0626 91.8533 13.3312 92.6332 12.8065C93.4113 12.2819 94.2917 12.0187 95.2764 12.0187C96.769 12.0187 97.9759 12.5274 98.8969 13.545C99.8179 14.5625 100.279 15.9139 100.279 17.5992V30.8113H106.9V16.693C106.9 14.5307 106.503 12.6387 105.71 11.017C104.916 9.39532 103.795 8.14813 102.35 7.27191V7.27368Z" fill="black"/>
<path d="M139.398 5.9616C138.096 5.9616 136.912 6.16829 135.85 6.58168C134.786 6.99504 133.833 7.59214 132.991 8.36942C132.451 8.86936 131.954 9.45233 131.499 10.1165C131.241 9.60072 130.945 9.12905 130.609 8.70331C129.164 6.87492 127.028 5.9616 124.203 5.9616C122.9 5.9616 121.63 6.34319 120.391 7.10635C119.153 7.86949 118.2 8.91883 117.533 10.2543V6.53397H110.911V30.8117H117.533V17.7428C117.533 15.9939 117.946 14.6036 118.772 13.5702C119.597 12.5367 120.693 12.0209 122.059 12.0209C123.329 12.0209 124.321 12.4908 125.037 13.4271C125.752 14.3651 126.108 15.6459 126.108 17.2658V30.8117H132.778V17.7428C132.778 15.9621 133.182 14.563 133.992 13.5454C134.802 12.5279 135.904 12.0191 137.304 12.0191C138.542 12.0191 139.527 12.489 140.257 13.4253C140.988 14.3634 141.353 15.6441 141.353 17.264V30.81H147.975V16.6917C147.975 13.2575 147.22 10.6094 145.711 8.74924C144.203 6.88904 142.098 5.95984 139.4 5.95984L139.398 5.9616Z" fill="black"/>
<path d="M170.608 10.2256C170.002 9.11267 169.185 8.19935 168.153 7.4892C166.676 6.47167 164.905 5.96289 162.842 5.96289C160.78 5.96289 158.705 6.51936 156.912 7.63229C155.118 8.74523 153.695 10.2645 152.647 12.1882C151.599 14.112 151.075 16.2831 151.075 18.6981C151.075 21.1129 151.599 23.2451 152.647 25.1847C153.695 27.1244 155.116 28.6419 156.912 29.739C158.707 30.836 160.683 31.3855 162.842 31.3855C165.002 31.3855 166.676 30.8767 168.153 29.8592C169.184 29.1489 170.001 28.2375 170.608 27.1227V30.813H177.278V6.53525H170.608V10.2256ZM169.773 22.0846C169.217 23.1021 168.455 23.897 167.486 24.4693C166.518 25.0418 165.429 25.3279 164.222 25.3279C163.015 25.3279 161.927 25.0418 160.958 24.4693C159.989 23.897 159.22 23.1021 158.648 22.0846C158.076 21.067 157.791 19.9382 157.791 18.6981C157.791 17.4579 158.076 16.2814 158.648 15.2638C159.22 14.2463 159.989 13.4513 160.958 12.879C161.927 12.3066 163.013 12.0204 164.222 12.0204C165.431 12.0204 166.516 12.3066 167.486 12.879C168.455 13.4513 169.217 14.2463 169.773 15.2638C170.329 16.2814 170.608 17.4261 170.608 18.6981C170.608 19.9699 170.329 21.067 169.773 22.0846Z" fill="black"/>
<path d="M194.966 5.96289C193.918 5.96289 192.933 6.20138 192.013 6.67834C191.092 7.15532 190.305 7.81601 189.653 8.65866C189.003 9.50131 188.534 10.4464 188.249 11.4957V6.53525H181.627V30.813H188.249V19.9382C188.28 18.3801 188.583 17.0127 189.155 15.8362C189.726 14.6596 190.479 13.7534 191.418 13.1175C192.355 12.4815 193.41 12.1635 194.588 12.1635C195.317 12.1635 196.04 12.243 196.754 12.402C197.468 12.561 198.111 12.8313 198.684 13.2129V6.86914C198.144 6.58296 197.548 6.36036 196.899 6.20138C196.247 6.04238 195.601 5.96289 194.966 5.96289Z" fill="black"/>
<path d="M219.582 12.0673V6.53449H211.578V0H204.91V6.53449H201.002V12.0673H204.91V21.082C204.91 23.3397 205.321 25.2406 206.147 26.7828C206.974 28.325 208.101 29.4767 209.529 30.2399C210.959 31.0032 212.595 31.3847 214.436 31.3847C215.23 31.3847 216.079 31.2893 216.985 31.0985C217.889 30.9076 218.754 30.6533 219.582 30.3353V24.5163C219.01 24.866 218.415 25.1293 217.796 25.3041C217.177 25.4791 216.47 25.5657 215.676 25.5657C214.5 25.5657 213.523 25.1611 212.747 24.3503C211.969 23.5393 211.58 22.3398 211.58 20.7483V12.0673H219.582Z" fill="black"/>
<path d="M12.4093 24.6345C8.96338 24.6345 6.17026 21.8379 6.17026 18.3879C6.17026 17.3668 6.41552 16.4023 6.84957 15.5508L1.3498 12.7455C0.486988 14.4396 0 16.3563 0 18.3879V30.812H12.4093C14.4385 30.812 16.3529 30.3245 18.0449 29.4607L15.243 23.9544C14.3926 24.3889 13.4292 24.6345 12.4093 24.6345Z" fill="black"/>
<path d="M12.4093 5.96118C10.3819 5.96118 8.46573 6.44874 6.77539 7.3126L9.57556 12.819C10.426 12.3844 11.3876 12.1388 12.4093 12.1388C15.8552 12.1388 18.6502 14.9371 18.6502 18.3871C18.6502 19.41 18.4048 20.3727 17.9709 21.2242L23.4707 24.0296C24.3334 22.3354 24.8203 20.4187 24.8203 18.3871C24.8203 11.5241 19.2642 5.96118 12.4093 5.96118Z" fill="black"/>
</svg>
