<svg width="278" height="37" viewBox="0 0 278 37" fill="none" xmlns="http://www.w3.org/2000/svg">
<path fill-rule="evenodd" clip-rule="evenodd" d="M91.5743 6.97244V13.9449L89.9449 12.7799C87.9978 11.3868 83.3689 10.8934 80.6631 11.7902C75.2163 13.596 72.2368 22.2057 74.4581 29.7197C76.5566 36.8186 83.4385 39.1342 89.2333 34.6906C91.582 32.8899 92.0859 33.0328 92.0859 35.5005C92.0859 36.2842 92.4522 36.4861 93.8765 36.4861H95.667V18.2431V0H93.6207H91.5743V6.97244ZM250.167 6.97244V13.9449L248.504 12.7537C247.113 11.7573 246.201 11.5625 242.924 11.5625C239.304 11.5625 238.858 11.6838 237.043 13.1592C233.827 15.7738 232.519 18.9471 232.518 24.1374C232.517 29.4196 233.606 32.6772 236.11 34.8859C239.389 37.7775 244.765 37.5463 248.381 34.3571C250.202 32.7517 250.406 32.8231 250.781 35.2014C250.897 35.9414 251.407 36.2744 252.601 36.39L254.259 36.5514V18.2754V0H252.213H250.167V6.97244ZM103.511 1.85771C102.726 3.06124 102.713 3.34336 103.387 4.55563C104.839 7.16721 108.968 6.29976 108.968 3.38344C108.968 0.581209 105.057 -0.512345 103.511 1.85771ZM0 18.702V36.4861H2.30215H4.60429V29.8056V23.125H8.85968C19.0377 23.125 24.1198 18.7991 23.3934 10.7542C23.0281 6.70625 21.3644 4.13115 18.0673 2.51086C15.8787 1.43529 14.7317 1.27856 7.80172 1.10897L0 0.917806V18.702ZM158.592 18.7569V36.4861H168.568H178.544V34.6875V32.8889H170.871H163.197V16.9583V1.02778H160.895H158.592V18.7569ZM142.307 3.98264C142.053 4.477 141.681 6.3825 141.482 8.21606C141.095 11.784 140.712 12.3133 138.513 12.3256C137.355 12.3318 137.106 12.561 137.106 13.6181C137.106 14.7368 137.331 14.9028 138.847 14.9028H140.588L140.774 24.0243C140.977 33.9706 141.213 34.9085 143.863 36.2847C145.787 37.2837 149.678 36.9892 151.645 35.6952C152.859 34.8961 152.884 34.7846 152.126 33.6227C151.493 32.6515 151.13 32.5004 150.389 32.8992C148.943 33.6762 146.517 33.4963 145.737 32.5543C145.206 31.9125 145.035 29.6899 145.035 23.4328V15.1597L148.744 15.0086L152.453 14.8576V13.3385V11.8194H148.616H144.779V7.45139C144.779 3.45179 144.695 3.08333 143.774 3.08333C143.222 3.08333 142.561 3.48828 142.307 3.98264ZM4.60429 12.0168V19.5278H8.71338C15.1763 19.5278 18.3021 17.5642 18.7922 13.1972C19.1365 10.1277 18.1747 7.45704 16.2225 6.06029C14.8836 5.10292 13.7704 4.87526 9.60866 4.70722L4.60429 4.50526V12.0168ZM29.1605 23.8635V36.4861H31.2069H33.2532V28.7572C33.2532 22.1188 33.3934 20.7524 34.2467 19.072C35.6567 16.2964 37.2462 15.4167 40.8529 15.4167H43.8846L44.0918 13.633C44.3296 11.5867 43.9255 11.3045 40.7572 11.3076C38.188 11.3097 35.7488 12.6961 34.4611 14.8848L33.5188 16.4876L33.0015 14.0251C32.5237 11.7501 32.358 11.5502 30.8222 11.4017L29.1605 11.2403V23.8635ZM53.8211 12.3991C48.52 15.0348 46.3125 21.7149 48.3973 28.8127C49.8318 33.6972 54.4048 37 59.7336 37C62.0224 37 66.352 35.5431 67.8023 34.2846C68.9908 33.2538 69.045 33.0497 68.3753 32.134C67.6432 31.1329 67.6064 31.1355 65.0009 32.3611C58.5881 35.3782 52.9105 32.7656 51.8853 26.3255L51.5435 24.1774L60.4319 24.0366L69.3202 23.8958L69.4778 22.2627C69.8604 18.295 67.0922 13.4701 63.5894 11.9998C61.0407 10.9304 56.3934 11.12 53.8211 12.3991ZM103.852 23.8958V36.4861H105.899H107.945V23.8958V11.3056H105.899H103.852V23.8958ZM120.986 12.264C118.407 13.4408 115.836 16.3453 115.138 18.8715C114.413 21.4939 114.456 26.9036 115.221 29.471C116.057 32.2727 119.414 35.7122 122.014 36.4296C125.976 37.5231 130.362 36.7538 132.953 34.5112C134.392 33.2645 134.464 33.06 133.779 32.1587C133.045 31.1936 132.968 31.2018 130.327 32.5441C127.274 34.0955 126.019 34.2214 123.66 33.2121C120.091 31.6848 118.398 28.083 118.813 22.8989C118.952 21.1604 119.452 18.9872 119.925 18.0688C121.727 14.5672 126.45 13.3642 130.415 15.3961C132.344 16.3843 132.396 16.3853 133.258 15.4285C134.37 14.1941 133.933 13.4978 131.287 12.2912C128.523 11.0306 123.717 11.0178 120.986 12.264ZM187.461 12.2783C183.452 14.1073 181.102 18.2908 181.102 23.5993C181.102 28.1298 182.046 30.7552 184.638 33.4393C187.081 35.9686 189.458 36.9918 192.904 36.9969C195.516 37.001 199.799 35.6156 201.289 34.2846C202.432 33.2625 202.488 33.0461 201.828 32.1751C201.111 31.228 201.026 31.2331 198.388 32.395C194.949 33.909 190.819 33.9732 188.864 32.5441C187.193 31.322 185.195 27.5321 185.195 25.5855V24.1528H193.574C203.187 24.1528 203.429 24.0557 202.832 20.4451C201.847 14.4865 198.236 11.2948 192.506 11.3169C190.739 11.3235 188.703 11.7115 187.461 12.2783ZM213.588 11.9258C212.744 12.2218 211.304 13.0261 210.388 13.7121C208.993 14.7568 208.809 15.1217 209.255 15.9588C209.954 17.2713 210.742 17.2199 213.637 15.6736C218.885 12.8709 223.052 14.9912 223.052 20.4636V22.4785L219.855 22.8228C211.806 23.6898 207.705 26.2119 207.705 30.2937C207.705 31.4664 208.04 33.077 208.45 33.873C210.276 37.4198 216.617 37.9805 220.868 34.9712C222.086 34.1083 223.162 33.4028 223.259 33.4028C223.356 33.4028 223.574 34.0965 223.743 34.9444C224.005 36.26 224.283 36.4861 225.637 36.4861H227.223L227.056 26.5937C226.901 17.3653 226.812 16.5755 225.73 14.8288C225.093 13.7995 223.792 12.5851 222.839 12.1309C220.884 11.1992 215.968 11.0897 213.588 11.9258ZM264.372 12.3637C262.47 13.3729 261.118 15.264 260.904 17.2153C260.431 21.5468 262.063 23.4272 268.027 25.4226C270.238 26.1621 272.419 27.1801 272.874 27.6842C274.082 29.026 273.894 31.1987 272.444 32.6551C270.757 34.3504 266.788 34.4126 263.912 32.7887C262.071 31.7496 261.848 31.7265 261.086 32.4917C259.198 34.3889 262.355 36.519 267.557 36.8582C270.317 37.0375 271.274 36.871 273.158 35.8813C276.278 34.2425 277.453 32.4716 277.499 29.3389C277.551 25.8168 275.869 24.1065 270.629 22.3537C264.607 20.3392 263.117 18.2929 265.747 15.6505C267.27 14.1201 270.531 13.9459 273.713 15.225C275.686 16.0179 275.83 16.0112 276.492 15.1022C277.389 13.8704 277.106 13.4654 274.532 12.2912C271.675 10.988 266.902 11.0219 264.372 12.3637ZM57.4048 14.3935C54.6924 15.0184 52.182 17.9681 52.182 20.5299C52.182 21.5381 52.469 21.5833 58.8485 21.5833C66.3904 21.5833 66.7459 21.3906 65.1487 18.1624C63.5782 14.9881 60.7654 13.6191 57.4048 14.3935ZM191.078 14.3961C190.234 14.5775 189.019 15.0549 188.378 15.4568C187.253 16.1628 185.195 19.7297 185.195 20.9749C185.195 21.4137 187.137 21.5833 192.169 21.5833H199.142L198.857 19.4492C198.37 15.8 194.932 13.5667 191.078 14.3961ZM81.7293 15.1952C79.4947 16.4131 78.1584 19.6326 78.1318 23.8635C78.0878 30.766 79.9132 33.4028 84.7354 33.4028C87.1726 33.4028 87.7088 33.1936 89.5413 31.5312L91.604 29.6591L91.4612 23.1995L91.3185 16.7404L89.5801 15.5647C87.5358 14.1818 83.902 14.0107 81.7293 15.1952ZM240.303 15.3021C238.009 16.7291 236.865 19.7462 236.865 24.366C236.865 30.9114 238.627 33.4028 243.255 33.4028C246.214 33.4028 249.449 31.5893 249.925 29.6627C250.081 29.0347 250.141 25.8702 250.059 22.6301L249.911 16.7399L248.173 15.5642C246.049 14.1283 242.384 14.006 240.303 15.3021ZM217.592 25.7171C215.213 26.1898 212.566 27.4309 212.01 28.3343C211.369 29.3754 211.703 31.9325 212.611 32.9408C213.625 34.0657 217.773 34.3005 219.633 33.3385C222.306 31.9557 223.052 30.7722 223.052 27.9175V25.1806L221.39 25.2371C220.475 25.2679 218.766 25.4837 217.592 25.7171Z" fill="black"/>
</svg>
