<svg width="136" height="44" viewBox="0 0 136 44" fill="none" xmlns="http://www.w3.org/2000/svg">
<path d="M14.2487 6.84974C9.33443 6.84974 6.9267 11.1713 6.9267 16.9434V31.4079H0V0.885695H6.80315V8.80485H6.9212C8.37628 3.9349 11.2727 0.00274091 15.7395 0.00274091C18.8803 0.00274091 20.2063 1.09684 20.2063 1.09684L17.0765 7.38445C17.0765 7.37897 16.0827 6.84974 14.2487 6.84974ZM97.9732 11.0397V31.4052H91.2249V13.5185C91.2249 8.38531 89.6133 5.66516 85.4925 5.66516C81.2288 5.66516 79.1643 9.10374 79.1643 15.7012V31.4024H72.4792V13.5185C72.4792 8.58274 70.8868 5.66516 66.8071 5.66516C62.1536 5.66516 60.3609 9.7399 60.3609 15.7012V31.4024H53.5577V0.882953H60.3609V7.79576H60.4213C61.481 3.01356 64.3747 0.0630679 69.256 0.0630679C74.099 0.0630679 77.2534 2.65982 78.4504 7.26654C79.5898 2.83258 82.6235 0.0603278 87.2852 0.0603278C93.7919 0.0603278 97.9732 4.13507 97.9732 11.0397ZM33.8181 0C27.5586 0 23.4596 2.93678 21.5927 8.23998L27.3554 10.3322C28.4041 7.13492 30.595 5.31417 33.9389 5.31417C37.7001 5.31417 39.9102 6.96765 39.9102 9.50408C39.9102 12.1008 38.1531 12.6438 34.1778 13.2854C29.7576 13.9956 19.2509 14.2287 19.2509 23.0829C19.2509 28.271 23.5942 32.1729 30.1173 32.1729C35.0206 32.1729 38.3618 30.1712 39.9075 26.4447H39.9679V31.4079H46.7134V12.6301C46.7134 4.41751 42.5733 0 33.8181 0ZM40.0859 17.0393C40.0859 23.4394 36.915 27.5498 31.8497 27.5498C28.2641 27.5498 26.1172 25.5426 26.1172 22.6469C26.1172 19.9323 28.3245 18.0457 32.5635 17.2697C36.9012 16.4745 39.0838 15.4928 40.0859 13.1374V17.0393ZM121.971 0.0603278C116.809 0.0603278 113.402 2.89291 111.942 7.14863V0.885695H104.776V43.155H111.881V25.145H111.942C113.523 29.7544 116.815 32.2909 121.971 32.2909C130.15 32.2909 136 25.5618 136 16.0549C136 6.61392 130.15 0.0603278 121.971 0.0603278ZM120.208 26.6257C114.545 26.6257 111.404 22.5208 111.404 16.1454C111.404 9.77007 114.918 5.66516 120.208 5.66516C125.496 5.66516 129.016 9.97024 129.016 16.1454C129.016 22.3234 125.502 26.6257 120.208 26.6257Z" fill="black"/>
</svg>
