<svg width="225" height="51" viewBox="0 0 225 51" fill="none" xmlns="http://www.w3.org/2000/svg">
<path d="M0.067517 35.1857C-0.119731 35.6717 0.135606 35.7731 0.195185 35.8577C0.756929 36.2634 1.32719 36.555 1.9017 36.8805C4.94873 38.4865 7.82554 38.9557 10.8343 38.9557C16.9624 38.9557 20.7669 35.7182 20.7669 30.5069V30.4055C20.7669 25.5873 16.473 23.8375 12.4429 22.5738L11.9195 22.4047C8.88094 21.4242 6.25947 20.5789 6.25947 18.5924V18.4868C6.25947 16.7877 7.7915 15.5367 10.1661 15.5367C12.8046 15.5367 15.9368 16.4073 17.954 17.5147C17.954 17.5147 18.5455 17.895 18.7625 17.3245C18.8817 17.0202 19.903 14.2898 20.0094 13.994C20.1243 13.6728 19.9201 13.4361 19.7115 13.3093C17.4092 11.9188 14.226 10.9678 10.9322 10.9678L10.3193 10.972C4.71042 10.972 0.795232 14.3363 0.795232 19.1588V19.2602C0.795232 24.3447 5.1147 25.993 9.16181 27.1426L9.81293 27.3413C12.7621 28.2415 15.3027 29.015 15.3027 31.0775V31.1789C15.3027 33.0639 13.6515 34.4671 10.9875 34.4671C9.95336 34.4671 6.65524 34.446 3.09328 32.2102C2.66346 31.9608 2.41237 31.7791 2.08043 31.5804C1.90595 31.4706 1.46762 31.2804 1.27612 31.8552L0.067517 35.1857Z" fill="black"/>
<path d="M89.7804 35.1857C89.5932 35.6717 89.8485 35.7731 89.9081 35.8577C90.4698 36.2634 91.0401 36.555 91.6146 36.8805C94.6616 38.4865 97.5384 38.9557 100.547 38.9557C106.675 38.9557 110.48 35.7182 110.48 30.5069V30.4055C110.48 25.5873 106.186 23.8375 102.156 22.5738L101.632 22.4047C98.5938 21.4242 95.9724 20.5789 95.9724 18.5924V18.4868C95.9724 16.7877 97.5044 15.5367 99.879 15.5367C102.518 15.5367 105.65 16.4073 107.667 17.5147C107.667 17.5147 108.258 17.895 108.475 17.3245C108.595 17.0202 109.616 14.2898 109.722 13.994C109.837 13.6728 109.633 13.4361 109.424 13.3093C107.122 11.9188 103.939 10.9678 100.645 10.9678L100.032 10.972C94.4233 10.972 90.5081 14.3363 90.5081 19.1588V19.2602C90.5081 24.3447 94.8276 25.993 98.8747 27.1426L99.5258 27.3413C102.475 28.2415 105.02 29.015 105.02 31.0775V31.1789C105.02 33.0639 103.364 34.4671 100.7 34.4671C99.6663 34.4671 96.3681 34.446 92.8062 32.2102C92.3763 31.9608 92.121 31.7875 91.7976 31.5804C91.6869 31.5086 91.1677 31.31 90.989 31.8552L89.7804 35.1857Z" fill="black"/>
<path d="M151.025 24.9778C151.025 27.9237 150.472 30.2441 149.383 31.8839C148.306 33.5069 146.676 34.2973 144.404 34.2973C142.127 34.2973 140.506 33.5111 139.446 31.8839C138.373 30.2483 137.829 27.9237 137.829 24.9778C137.829 22.0362 138.373 19.7201 139.446 18.0971C140.506 16.491 142.127 15.7091 144.404 15.7091C146.676 15.7091 148.306 16.491 149.387 18.0971C150.472 19.7201 151.025 22.0362 151.025 24.9778ZM156.141 19.5172C155.639 17.8308 154.856 16.3431 153.813 15.1047C152.77 13.8622 151.451 12.8647 149.885 12.1377C148.323 11.415 146.476 11.0473 144.404 11.0473C142.327 11.0473 140.48 11.415 138.918 12.1377C137.352 12.8647 136.033 13.8622 134.986 15.1047C133.948 16.3473 133.165 17.8351 132.658 19.5172C132.16 21.1951 131.909 23.0294 131.909 24.9778C131.909 26.9263 132.16 28.7648 132.658 30.4385C133.165 32.1206 133.943 33.6084 134.99 34.8509C136.033 36.0935 137.356 37.0868 138.918 37.7926C140.484 38.4984 142.327 38.8577 144.404 38.8577C146.476 38.8577 148.319 38.4984 149.885 37.7926C151.447 37.0868 152.77 36.0935 153.813 34.8509C154.856 33.6126 155.639 32.1249 156.141 30.4385C156.643 28.7606 156.894 26.922 156.894 24.9778C156.894 23.0337 156.643 21.1951 156.141 19.5172Z" fill="black"/>
<path d="M198.147 33.5106C197.976 33.0161 197.495 33.2021 197.495 33.2021C196.751 33.4853 195.959 33.7473 195.117 33.8783C194.261 34.0094 193.321 34.077 192.312 34.077C189.835 34.077 187.869 33.3458 186.461 31.9003C185.048 30.4549 184.256 28.1176 184.265 24.9562C184.273 22.078 184.971 19.914 186.227 18.2657C187.473 16.6258 189.371 15.7847 191.904 15.7847C194.014 15.7847 195.623 16.0256 197.308 16.5539C197.308 16.5539 197.713 16.7272 197.904 16.2031C198.351 14.969 198.683 14.0857 199.159 12.7289C199.296 12.3443 198.964 12.1795 198.845 12.133C198.181 11.8752 196.615 11.4568 195.432 11.2793C194.325 11.1102 193.031 11.0214 191.593 11.0214C189.444 11.0214 187.529 11.3849 185.89 12.1119C184.256 12.8346 182.869 13.8321 181.771 15.0747C180.673 16.3172 179.839 17.805 179.281 19.4871C178.728 21.165 178.447 23.0078 178.447 24.9562C178.447 29.17 179.592 32.5766 181.852 35.0702C184.116 37.5723 187.516 38.8445 191.95 38.8445C194.572 38.8445 197.261 38.3162 199.194 37.5596C199.194 37.5596 199.564 37.3821 199.402 36.9552L198.147 33.5106Z" fill="black"/>
<path d="M207.097 22.1558C207.339 20.5201 207.795 19.1592 208.497 18.0983C209.557 16.488 211.174 15.6047 213.446 15.6047C215.719 15.6047 217.221 16.4923 218.298 18.0983C219.013 19.1592 219.323 20.5793 219.447 22.1558H207.097ZM224.319 18.559C223.885 16.9318 222.809 15.2877 222.102 14.5354C220.987 13.3435 219.898 12.5109 218.817 12.046C217.404 11.4458 215.71 11.0485 213.855 11.0485C211.693 11.0485 209.731 11.4078 208.14 12.1517C206.544 12.8955 205.203 13.9099 204.152 15.1736C203.101 16.4331 202.309 17.9335 201.807 19.6368C201.301 21.3316 201.045 23.1786 201.045 25.127C201.045 27.1092 201.309 28.9562 201.833 30.6172C202.36 32.2909 203.203 33.766 204.344 34.9874C205.48 36.2173 206.944 37.181 208.697 37.853C210.438 38.5208 212.553 38.8673 214.983 38.8631C219.983 38.8462 222.617 37.7389 223.702 37.1429C223.894 37.0373 224.077 36.8513 223.847 36.3188L222.715 33.17C222.545 32.7009 222.064 32.8742 222.064 32.8742C220.826 33.3306 219.064 34.1506 214.957 34.1421C212.272 34.1379 210.28 33.3518 209.033 32.1219C207.752 30.8624 207.127 29.0112 207.016 26.3992L224.332 26.4161C224.332 26.4161 224.788 26.4076 224.834 25.9681C224.851 25.7821 225.43 22.4347 224.319 18.559Z" fill="black"/>
<path d="M68.4192 22.1558C68.666 20.5201 69.1171 19.1592 69.8193 18.0983C70.879 16.488 72.4961 15.6047 74.7686 15.6047C77.0411 15.6047 78.5434 16.4923 79.6243 18.0983C80.335 19.1592 80.6456 20.5793 80.769 22.1558H68.4192ZM85.6375 18.559C85.2034 16.9318 84.131 15.2877 83.4246 14.5354C82.3096 13.3435 81.2202 12.5109 80.1392 12.046C78.7263 11.4458 77.0326 11.0485 75.1771 11.0485C73.0195 11.0485 71.0534 11.4078 69.4618 12.1517C67.866 12.8955 66.5254 13.9099 65.4743 15.1736C64.4231 16.4331 63.6316 17.9335 63.1294 19.6368C62.6273 21.3316 62.3677 23.1786 62.3677 25.127C62.3677 27.1092 62.6315 28.9562 63.155 30.6172C63.6827 32.2909 64.5253 33.766 65.6658 34.9874C66.8021 36.2173 68.266 37.181 70.0193 37.853C71.7599 38.5208 73.8749 38.8673 76.3049 38.8631C81.3053 38.8462 83.9395 37.7389 85.0247 37.1429C85.2162 37.0373 85.3992 36.8513 85.1694 36.3188L84.0416 33.17C83.8672 32.7009 83.3863 32.8742 83.3863 32.8742C82.1479 33.3306 80.3903 34.1506 76.2751 34.1421C73.5941 34.1379 71.6024 33.3518 70.3555 32.1219C69.0746 30.8624 68.449 29.0112 68.3383 26.3992L85.6545 26.4161C85.6545 26.4161 86.1099 26.4076 86.1567 25.9681C86.1737 25.7821 86.7525 22.4347 85.6375 18.559Z" fill="black"/>
<path d="M30.9905 33.4164C30.3138 32.8796 30.2202 32.7444 29.9904 32.3978C29.65 31.8695 29.4755 31.1172 29.4755 30.162C29.4755 28.6489 29.9777 27.5627 31.0203 26.8315C31.0075 26.8357 32.5098 25.5424 36.0419 25.5889C38.523 25.6227 40.7402 25.9862 40.7402 25.9862V33.8052H40.7444C40.7444 33.8052 38.5442 34.2744 36.0675 34.4223C32.5438 34.6336 30.9777 33.4122 30.9905 33.4164ZM37.8804 21.3328C37.1782 21.2821 36.2675 21.2525 35.178 21.2525C33.6928 21.2525 32.2587 21.4385 30.9139 21.7977C29.5606 22.157 28.3435 22.7191 27.2966 23.463C26.2455 24.2111 25.3986 25.1663 24.7858 26.299C24.173 27.4317 23.8623 28.7672 23.8623 30.2634C23.8623 31.7849 24.1262 33.1078 24.6539 34.1898C25.1816 35.276 25.9433 36.1805 26.9136 36.8779C27.8754 37.5753 29.0627 38.0867 30.4415 38.3952C31.7991 38.7037 33.3396 38.8601 35.0248 38.8601C36.7994 38.8601 38.5698 38.7164 40.2848 38.4248C41.9828 38.1374 44.0681 37.7189 44.6468 37.5879C45.2213 37.4527 45.8597 37.2794 45.8597 37.2794C46.2895 37.1737 46.2555 36.7173 46.2555 36.7173L46.247 20.9905C46.247 17.5416 45.3192 14.9846 43.4936 13.3997C41.6764 11.819 38.9996 11.0202 35.5398 11.0202C34.2418 11.0202 32.1523 11.1977 30.9011 11.447C30.9011 11.447 27.1179 12.174 25.5603 13.3828C25.5603 13.3828 25.2198 13.5941 25.4071 14.0675L26.6327 17.3388C26.7859 17.7614 27.1987 17.6177 27.1987 17.6177C27.1987 17.6177 27.3306 17.567 27.4839 17.4782C30.816 15.6778 35.0291 15.7327 35.0291 15.7327C36.9016 15.7327 38.34 16.1046 39.3103 16.8443C40.255 17.5628 40.7359 18.649 40.7359 20.9398V21.6667C39.2464 21.4554 37.8804 21.3328 37.8804 21.3328Z" fill="black"/>
<path d="M177.542 12.4716C177.674 12.0827 177.397 11.8968 177.283 11.8545C176.989 11.7404 175.516 11.4318 174.38 11.36C172.206 11.229 170.997 11.5924 169.916 12.0743C168.844 12.5561 167.652 13.3338 166.988 14.2171V12.125C166.988 11.8333 166.78 11.6009 166.49 11.6009H162.052C161.762 11.6009 161.554 11.8333 161.554 12.125V37.7756C161.554 38.063 161.792 38.2997 162.081 38.2997H166.631C166.92 38.2997 167.154 38.063 167.154 37.7756V24.9609C167.154 23.2407 167.346 21.5247 167.729 20.447C168.103 19.3819 168.614 18.5281 169.244 17.9153C169.878 17.3067 170.597 16.8798 171.384 16.6389C172.189 16.3937 173.078 16.3134 173.708 16.3134C174.614 16.3134 175.61 16.5459 175.61 16.5459C175.942 16.5839 176.129 16.3811 176.24 16.081C176.538 15.2949 177.38 12.9407 177.542 12.4716Z" fill="black"/>
<path d="M134.84 0.583259C134.287 0.414199 133.785 0.300088 133.129 0.17752C132.466 0.0591771 131.674 2.03656e-07 130.776 2.03656e-07C127.644 2.03656e-07 125.176 0.879117 123.444 2.61198C121.72 4.33639 120.55 6.96104 119.963 10.4141L119.75 11.5764H115.818C115.818 11.5764 115.341 11.5595 115.239 12.0751L114.596 15.655C114.549 15.9931 114.698 16.2086 115.158 16.2086H118.984L115.103 37.73C114.8 39.4628 114.451 40.8872 114.064 41.9691C113.685 43.0342 113.315 43.833 112.856 44.4163C112.413 44.9742 111.996 45.3884 111.273 45.6293C110.677 45.8279 109.987 45.9209 109.234 45.9209C108.817 45.9209 108.26 45.8533 107.847 45.7688C107.438 45.6885 107.221 45.5997 106.91 45.4687C106.91 45.4687 106.464 45.2996 106.285 45.7434C106.144 46.1111 105.123 48.8964 105 49.2387C104.881 49.5811 105.051 49.8473 105.268 49.9276C105.778 50.1051 106.157 50.2235 106.851 50.3883C107.813 50.6123 108.625 50.625 109.387 50.625C110.979 50.625 112.434 50.401 113.639 49.9699C114.847 49.5346 115.903 48.778 116.839 47.7552C117.847 46.6479 118.482 45.4898 119.086 43.9049C119.686 42.3411 120.201 40.3969 120.609 38.1315L124.512 16.2086H130.214C130.214 16.2086 130.695 16.2255 130.793 15.7057L131.44 12.1301C131.483 11.7877 131.338 11.5764 130.874 11.5764H125.337C125.367 11.4538 125.618 9.51808 126.252 7.69646C126.525 6.92301 127.035 6.29326 127.465 5.86215C127.891 5.4395 128.38 5.13942 128.916 4.96614C129.465 4.78862 130.091 4.7041 130.776 4.7041C131.295 4.7041 131.81 4.76326 132.197 4.84357C132.734 4.95768 132.942 5.01686 133.083 5.05912C133.649 5.22818 133.725 5.06334 133.836 4.79285L135.159 1.18342C135.296 0.794586 134.959 0.629751 134.84 0.583259Z" fill="black"/>
<path d="M57.4838 37.7769C57.4838 38.0643 57.2753 38.2968 56.9859 38.2968H52.394C52.1047 38.2968 51.9004 38.0643 51.9004 37.7769V1.07398C51.9004 0.786577 52.1047 0.554121 52.394 0.554121H56.9859C57.2753 0.554121 57.4838 0.786577 57.4838 1.07398V37.7769Z" fill="black"/>
</svg>
