<svg width="220" height="43" viewBox="0 0 220 43" fill="none" xmlns="http://www.w3.org/2000/svg">
<path d="M167.941 9.3363H161.785V32.0226H167.941V9.3363Z" fill="black"/>
<path d="M18.6098 15.6837C17.3216 15.0469 15.6283 14.3869 13.531 13.7038C12.1228 13.2885 11.0143 12.9035 10.2054 12.5473C9.39683 12.1913 8.73 11.7395 8.20495 11.1911C7.68017 10.6424 7.41843 9.96799 7.41843 9.16743C7.41843 8.54498 7.59084 7.98934 7.93464 7.50001C8.27844 7.01078 8.77285 6.64021 9.41761 6.38832C10.0611 6.13646 10.8172 6.0105 11.6871 6.0105C12.7359 6.0105 13.5824 6.18126 14.2261 6.52153C14.8696 6.86303 15.364 7.34501 15.7088 7.96749C16.0529 8.58995 16.2398 9.27281 16.2705 10.014H22.8323C22.8016 8.02789 22.2781 6.29994 21.2589 4.83223C20.2398 3.36455 18.8913 2.25288 17.2139 1.49602C15.5351 0.740379 13.7231 0.361328 11.7754 0.361328C9.67805 0.361328 7.79027 0.731899 6.11282 1.47301C4.43407 2.21413 3.13106 3.24586 2.20249 4.56461C1.27366 5.88457 0.808864 7.37405 0.808864 9.0356C0.808864 11.0821 1.28119 12.7495 2.2243 14.0392C3.16767 15.3288 4.2923 16.2928 5.59531 16.9309C6.89832 17.5693 8.58433 18.2293 10.6508 18.9109C12.0885 19.3856 13.2043 19.7865 13.9997 20.1124C14.7938 20.4393 15.4606 20.8764 16.0002 21.4249C16.5398 21.9736 16.8088 22.6639 16.8088 23.4932C16.8088 24.2054 16.6218 24.8204 16.2474 25.3387C15.8729 25.8584 15.3185 26.2506 14.5845 26.5171C13.8504 26.7834 12.9439 26.9178 11.8657 26.9178C10.7879 26.9178 9.85073 26.7399 9.05667 26.384C8.26261 26.0278 7.67031 25.5022 7.28132 24.8047C6.89105 24.1085 6.66695 23.2704 6.60722 22.292H0C0.0293424 24.3675 0.546859 26.184 1.55021 27.7415C2.55357 29.2986 3.95447 30.4927 5.75318 31.3223C7.55034 32.1516 9.61833 32.5682 11.9551 32.5682C14.2921 32.5682 16.2767 32.1747 18.0006 31.3901C19.7233 30.6042 21.0497 29.5299 21.9782 28.1652C22.9071 26.8016 23.3719 25.3038 23.3719 23.6726C23.3719 21.5678 22.8995 19.8687 21.9564 18.5791C21.013 17.2895 19.896 16.3254 18.6075 15.6873L18.6098 15.6837Z" fill="black"/>
<path d="M33.2169 18.9425H45.3958V13.0706H33.2169V6.75421H45.8447V0.883423H26.6992V32.0198H46.295V26.1491H33.2169V18.9425Z" fill="black"/>
<path d="M78.3403 19.7444C80.1081 18.8845 81.4638 17.6976 82.4072 16.1852C83.3506 14.6727 83.8229 12.9387 83.8229 10.9804C83.8229 9.02228 83.3506 7.24344 82.4072 5.73214C81.4638 4.21964 80.1071 3.03412 78.3403 2.17311C76.5722 1.31331 74.459 0.883423 72.0036 0.883423H61.3516V32.0211H67.8679V21.034H70.5095L79.6433 32.0211H87.6426L77.6514 20.0494C77.8864 19.9538 78.1162 19.8534 78.3403 19.7444ZM67.8679 6.75542H71.913C73.0509 6.75542 74.0173 6.94069 74.8117 7.31124C75.6057 7.68181 76.1965 8.18677 76.5867 8.82387C76.976 9.46201 77.1718 10.1801 77.1718 10.9817C77.1718 11.7832 76.976 12.4651 76.5867 13.1166C76.1978 13.7694 75.6057 14.2731 74.8117 14.629C74.0173 14.9852 73.0509 15.1631 71.913 15.1631H67.8679V6.75542Z" fill="black"/>
<path d="M104.316 11.6383C103.905 11.2047 103.472 10.8246 103.013 10.5049C102.204 9.9418 101.305 9.51903 100.316 9.23684C99.3273 8.95594 98.2042 8.81433 96.9451 8.81433C94.9973 8.81433 93.1399 9.31934 91.3719 10.3268C89.604 11.3355 88.1738 12.7439 87.0798 14.5532C85.9861 16.3622 85.439 18.4087 85.439 20.6914C85.439 22.9741 85.9848 25.0219 87.0798 26.8299C88.1738 28.6392 89.604 30.0475 91.3719 31.0563C93.1399 32.0637 94.9973 32.5687 96.9451 32.5687C98.8931 32.5687 100.436 32.2503 101.754 31.6119C102.691 31.1591 103.545 30.5209 104.316 29.6998V32.0347H110.203V9.34838H104.316V11.6383ZM103.462 23.8944C102.922 24.8438 102.165 25.5922 101.192 26.1409C100.218 26.6893 99.1476 26.9643 97.9791 26.9643C96.8106 26.9643 95.6935 26.6906 94.7208 26.1409C93.7468 25.5922 92.982 24.8438 92.4292 23.8944C91.8748 22.9463 91.597 21.8782 91.597 20.6914C91.597 19.5048 91.8735 18.4755 92.4292 17.5115C92.9833 16.5475 93.7468 15.7919 94.7208 15.2432C95.6948 14.6948 96.7799 14.4198 97.9791 14.4198C99.1782 14.4198 100.218 14.6948 101.192 15.2432C102.165 15.7919 102.922 16.5488 103.462 17.5115C104.001 18.4755 104.27 19.5349 104.27 20.6914C104.27 21.8479 104.001 22.945 103.462 23.8944Z" fill="black"/>
<path d="M130.993 10.0821C129.585 9.23684 127.966 8.81433 126.139 8.81433C125.09 8.81433 124.11 8.96314 123.196 9.25869C122.282 9.55552 121.42 9.98523 120.611 10.5483C120.17 10.856 119.75 11.2145 119.353 11.62V9.3471H113.465V32.0334H119.622V19.7117C119.622 18.6739 119.831 17.7549 120.25 16.9543C120.67 16.154 121.269 15.5316 122.048 15.0859C122.827 14.6416 123.68 14.4188 124.61 14.4188C125.599 14.4188 126.453 14.6341 127.172 15.0641C127.891 15.4941 128.431 16.1091 128.79 16.9096C129.148 17.7102 129.329 18.6449 129.329 19.7117V32.0334H135.486V18.5552C135.486 16.7171 135.088 15.0569 134.295 13.5735C133.501 12.0911 132.401 10.9274 130.993 10.0821Z" fill="black"/>
<path d="M160.303 9.34149H153.201L144.932 18.8523V0H138.775V32.0265H144.932V22.1376L153.65 32.0265H161.021L150.471 20.3237L160.303 9.34149Z" fill="black"/>
<path d="M188.8 10.0821C187.39 9.23684 185.772 8.81433 183.947 8.81433C182.895 8.81433 181.916 8.96314 181.002 9.25869C180.088 9.55552 179.226 9.98523 178.418 10.5483C177.977 10.856 177.556 11.2145 177.159 11.62V9.3471H171.271V32.0334H177.429V19.7117C177.429 18.6739 177.637 17.7549 178.057 16.9543C178.475 16.154 179.075 15.5316 179.854 15.0859C180.633 14.6416 181.488 14.4188 182.417 14.4188C183.404 14.4188 184.258 14.6341 184.978 15.0641C185.697 15.4941 186.237 16.1091 186.595 16.9096C186.954 17.7102 187.135 18.6449 187.135 19.7117V32.0334H193.292V18.5552C193.292 16.7171 192.895 15.0569 192.103 13.5735C191.308 12.0911 190.207 10.9274 188.8 10.0821Z" fill="black"/>
<path d="M213.697 9.3471V11.6624C213.287 11.2337 212.853 10.8547 212.396 10.5267C211.586 9.94771 210.695 9.51903 209.719 9.23684C208.745 8.95594 207.631 8.81433 206.372 8.81433C204.453 8.81433 202.648 9.28182 200.955 10.2155C199.262 11.1489 197.891 12.4774 196.845 14.197C195.793 15.9179 195.271 17.9037 195.271 20.1574C195.271 22.411 195.801 24.4056 196.865 26.1409C197.93 27.8761 199.309 29.2107 200.999 30.1444C202.692 31.0779 204.497 31.5454 206.416 31.5454C208.184 31.5454 209.734 31.2341 211.067 30.6117C211.996 30.1771 212.78 29.632 213.427 28.9818V30.7001C213.427 31.7972 213.201 32.7903 212.752 33.6803C212.303 34.5705 211.635 35.2667 210.752 35.7705C209.867 36.2742 208.797 36.5273 207.538 36.5273C206.579 36.5273 205.764 36.3942 205.089 36.1264C204.414 35.8602 203.837 35.5114 203.36 35.0814C202.879 34.6515 202.474 34.1102 202.144 33.4574H195.853C196.242 35.1177 196.938 36.6001 197.943 37.9054C198.945 39.2097 200.257 40.2328 201.874 40.9753C203.492 41.7164 205.38 42.0868 207.538 42.0868C210.173 42.0868 212.399 41.5527 214.211 40.4859C216.024 39.4178 217.371 37.9732 218.257 36.1495C219.14 34.3259 219.584 32.2719 219.584 29.9892V9.34966H213.694L213.697 9.3471ZM212.866 23.2478C212.342 24.1524 211.614 24.8646 210.687 25.3827C209.758 25.9024 208.709 26.1614 207.54 26.1614C206.372 26.1614 205.279 25.9024 204.349 25.3827C203.422 24.8646 202.703 24.1524 202.194 23.2478C201.682 22.3432 201.428 21.3128 201.428 20.1563C201.428 19.0592 201.682 18.043 202.194 17.1093C202.703 16.1759 203.422 15.4491 204.349 14.9297C205.279 14.4113 206.343 14.151 207.54 14.151C208.74 14.151 209.758 14.4113 210.687 14.9297C211.614 15.4491 212.342 16.1759 212.866 17.1093C213.391 18.043 213.653 19.0592 213.653 20.1563C213.653 21.3128 213.391 22.3432 212.866 23.2478Z" fill="black"/>
<path d="M167.941 0H161.785V6.09358H167.941V0Z" fill="black"/>
</svg>
