<svg preserveAspectRatio="none" width="100%" height="100%" overflow="visible" style="display: block;" viewBox="0 0 122 23" fill="none" xmlns="http://www.w3.org/2000/svg">
<g id="Snitcher">
<path id="Vector" d="M111.355 22.3096V6.75327H115.425V10.7931C116.48 6.75327 118.952 5.96943 121.243 6.69298V10.5519C117.957 9.40628 115.425 10.9137 115.425 13.5968V22.3096H111.355Z" fill="var(--fill-0, #4133F5)"/>
<path id="Vector_2" d="M92.3508 14.5314C92.3508 9.94897 95.8781 6.45182 100.521 6.45182C105.736 6.45182 109.384 10.7931 108.54 15.9785H96.5414C97.084 17.8176 98.6517 19.1139 100.792 19.1139C102.48 19.1139 103.897 18.2999 104.651 16.9433L107.998 18.4507C106.641 20.8926 104.048 22.6111 100.672 22.6111C95.9384 22.6111 92.3508 19.1139 92.3508 14.5314ZM96.6016 12.8733H104.47C103.928 11.1247 102.45 9.94897 100.521 9.94897C98.6818 9.94897 97.1745 11.1247 96.6016 12.8733Z" fill="var(--fill-0, #4133F5)"/>
<path id="Vector_3" d="M74.6123 22.3094V0H78.6823V10.7326C79.4963 8.10977 81.486 6.45164 84.0787 6.45164C87.5457 6.45164 89.8068 9.16494 89.8068 12.8731V22.3094H85.7369V13.5967C85.7369 11.5768 84.2898 10.1598 82.3603 10.1598C80.1897 10.1598 78.6823 11.5768 78.6823 13.5967V22.3094H74.6123Z" fill="var(--fill-0, #4133F5)"/>
<path id="Vector_4" d="M56.4031 14.5314C56.4031 9.94897 59.9907 6.45182 64.7239 6.45182C68.0402 6.45182 70.8741 8.23055 72.2006 11.3961L68.4622 12.6924C67.7688 11.0946 66.382 10.1902 64.7239 10.1902C62.4025 10.1902 60.6238 12.0593 60.6238 14.5314C60.6238 17.0337 62.4025 18.8727 64.7239 18.8727C66.382 18.8727 67.7688 17.9683 68.4622 16.3705L72.2006 17.6668C70.8741 20.8323 68.0402 22.6111 64.7239 22.6111C59.9907 22.6111 56.4031 19.1139 56.4031 14.5314Z" fill="var(--fill-0, #4133F5)"/>
<path id="Vector_5" d="M43.7587 10.3408V6.75319H46.8941V2.17072L50.964 0.904514V6.75319H55.0038V10.3408H50.964V16.5211C50.964 18.0285 51.6574 18.7219 53.1648 18.7219H55.0038V22.3095H53.1648C48.8838 22.3095 46.8941 20.3197 46.8941 16.2799V10.3408H43.7587Z" fill="var(--fill-0, #4133F5)"/>
<path id="Vector_6" d="M37.634 22.3094V6.75311H41.704V22.3094H37.634ZM37.2119 2.44197C37.2119 1.08532 38.3274 0 39.6841 0C41.0106 0 42.126 1.08532 42.126 2.44197C42.126 3.76848 41.0106 4.88395 39.6841 4.88395C38.3274 4.88395 37.2119 3.76848 37.2119 2.44197Z" fill="var(--fill-0, #4133F5)"/>
<path id="Vector_7" d="M19.2918 22.3096V6.7533H23.3617V10.7328C24.1757 8.10995 26.1655 6.45182 28.7582 6.45182C32.2252 6.45182 34.4863 9.16513 34.4863 12.8733V22.3096H30.4163V13.5969C30.4163 11.577 28.9692 10.16 27.0398 10.16C24.8691 10.16 23.3617 11.577 23.3617 13.5969V22.3096H19.2918Z" fill="var(--fill-0, #4133F5)"/>
<path id="Vector_8" d="M4.37144 15.8578C4.70306 17.727 6.05971 18.8726 8.41125 18.8726C10.5216 18.8726 11.9084 17.7873 11.9084 16.4306C11.9084 12.3607 0.482365 14.9534 0.482365 7.14512C0.482365 3.58767 3.88907 0.904514 8.23036 0.904514C12.6922 0.904514 15.6769 3.34649 16.1894 6.78334L11.818 7.65763C11.4863 5.84876 10.1598 4.6127 8.07962 4.6127C6.21045 4.6127 4.94424 5.57743 4.94424 6.90393C4.94424 10.793 16.3703 8.20029 16.3703 16.3101C16.3703 19.9278 12.8128 22.611 8.29065 22.611C3.70818 22.611 0.542661 20.2896 0 16.7321L4.37144 15.8578Z" fill="var(--fill-0, #4133F5)"/>
</g>
</svg>
