<svg width="240" height="32" viewBox="0 0 240 32" fill="none" xmlns="http://www.w3.org/2000/svg">
<path fill-rule="evenodd" clip-rule="evenodd" d="M214.311 0.447326C213.331 0.679463 212.228 0.940319 211.86 1.02647C211.204 1.18083 211.192 1.2622 211.192 5.69704C211.192 9.88269 211.154 10.1941 210.672 9.9832C208.135 8.87277 206.779 8.59367 204.496 8.71213C194.482 9.23205 189.781 21.378 196.841 28.489C200.266 31.9378 205.471 32.8894 209.557 30.8133C210.454 30.3577 211.255 30.0535 211.338 30.137C211.421 30.2207 211.489 30.603 211.489 30.9871C211.489 31.6692 211.553 31.685 214.311 31.685H217.132V15.8303C217.132 0.920574 217.102 -0.0229315 216.613 0.000401899C216.327 0.0141626 215.291 0.215488 214.311 0.447326ZM10.575 0.890062C6.05797 1.42404 2.74742 3.63832 1.5139 6.95016C1.00184 8.32504 1.13966 11.9282 1.75597 13.2876C2.44 14.7962 3.91202 16.2494 5.57978 17.0625C6.30925 17.4179 9.00499 18.0637 11.7598 18.543C16.8965 19.4362 19.0546 20.1595 19.5898 21.1671C19.7674 21.5009 19.9124 22.3346 19.9124 23.0197C19.9124 24.0254 19.736 24.4314 18.9979 25.126C17.8428 26.2125 16.4741 26.5957 13.7398 26.5978C10.9234 26.6002 8.50481 25.7781 5.69086 23.8627L3.49858 22.3702L2.57217 23.4923C2.06249 24.1092 1.2754 25.1161 0.82274 25.7296L0 26.8452L1.11976 27.7875C2.62802 29.0567 6.54984 30.9216 8.94173 31.5071C10.014 31.7694 12.091 31.9842 13.5574 31.9842C21.3113 31.9842 26.1545 28.2523 26.148 22.2823C26.1453 19.7443 25.6484 18.5205 23.9397 16.8414C21.9591 14.8952 20.4357 14.3208 14.5661 13.3064C9.00499 12.3453 9.13597 12.3827 8.03017 11.4454C6.76903 10.3766 6.76933 8.64183 8.03136 7.45452C10.4137 5.21332 15.7749 5.61148 20.311 8.36662C21.4257 9.04388 22.369 9.55333 22.407 9.49829C22.4448 9.44354 23.1689 8.42465 24.0157 7.23435C24.8628 6.04405 25.5557 5.0105 25.5557 4.93781C25.5557 4.86481 24.7603 4.31857 23.7879 3.72357C20.0015 1.40699 15.0971 0.355189 10.575 0.890062ZM122.087 16.4286V31.685H133.522H144.957V28.8432V26.0013H136.641H128.324V13.5867V1.17216H125.205H122.087V16.4286ZM34.095 2.45101L31.4961 3.05947V6.00456V8.94995H29.12H26.7438V11.4927V14.0354H29.1048H31.4655L31.5552 21.0133L31.6446 27.9912L32.4362 29.195C33.6637 31.0619 35.4776 31.8149 38.773 31.8256C40.2433 31.8307 41.9476 31.7275 42.56 31.5968L43.6738 31.3587V28.9885V26.6184L41.3719 26.7928C39.3041 26.9493 38.9869 26.9005 38.2533 26.313L37.4365 25.6588V19.8469V14.0354H40.5551H43.6738V11.4927V8.94995H40.5647H37.4552L37.3717 5.45952C37.3233 3.44357 37.1626 1.94216 36.9909 1.90566C36.8276 1.87096 35.5246 2.11626 34.095 2.45101ZM54.6956 8.67534C50.9659 9.41303 47.5574 12.0611 45.9567 15.4639C45.0995 17.286 45.0104 17.7433 45.0104 20.3175C45.0104 22.7843 45.1171 23.3882 45.8174 24.8938C47.3432 28.1737 49.6766 30.262 53.0961 31.408C54.6516 31.9295 55.521 32.0303 57.5963 31.9303C62.1692 31.7102 65.9042 29.3382 67.8066 25.4461C68.7101 23.5973 68.7719 23.2701 68.7719 20.3238C68.7719 17.5351 68.6813 16.9814 67.9759 15.4659C66.3295 11.9279 63.0026 9.41393 58.9899 8.67593C57.0034 8.31038 56.5404 8.31038 54.6956 8.67534ZM81.9874 8.63106C80.7874 8.99871 79.5055 9.7391 78.8981 10.4152C78.0985 11.3045 77.8309 11.1998 77.8309 9.99696V8.94995H74.8572H71.8834L71.9612 20.2427L72.0391 31.5355L74.935 31.621L77.8309 31.7066V24.4116V17.1166L78.6875 15.9257C79.1586 15.2709 80.0606 14.4853 80.6924 14.1802C81.8885 13.6023 84.2222 13.4324 85.6276 13.8209L86.4444 14.0468V11.4909C86.4444 9.02265 86.4183 8.92512 85.6826 8.64333C84.8031 8.30649 83.0653 8.3008 81.9874 8.63106ZM178.223 8.66786C176.514 8.92243 172.152 10.239 171.401 10.7272C171.031 10.9674 171.12 11.3359 171.978 13.1215C172.535 14.2822 173.082 15.232 173.193 15.232C173.304 15.232 173.98 14.9718 174.695 14.6541C176.561 13.8242 179.652 13.3157 181.308 13.5661C182.211 13.7025 183.045 14.0746 183.634 14.6047C184.408 15.3017 184.574 15.6993 184.693 17.1504L184.835 18.8702L183.386 18.6216C182.588 18.4849 180.532 18.3805 178.817 18.3895C176.226 18.403 175.435 18.5229 174.141 19.0982C169.582 21.1264 168.528 26.1879 171.948 29.6365C172.989 30.6868 173.758 31.1541 175.082 31.5418C177.549 32.2642 180.802 32.0461 183.056 31.0072L184.757 30.2225V30.9536C184.757 31.6809 184.774 31.685 187.748 31.685H190.739L190.643 23.0846C190.559 15.5847 190.478 14.331 190.012 13.2876C188.906 10.8094 186.558 9.20871 183.231 8.66487C181.117 8.31935 180.561 8.31965 178.223 8.66786ZM95.5035 9.06722C86.4346 11.9411 84.4719 24.3679 92.2363 29.7538C96.4961 32.7087 102.572 32.7521 107.237 29.8609C108.053 29.3553 108.721 28.9096 108.721 28.8707C108.721 28.8318 107.86 28.0337 106.807 27.0973L104.894 25.3946L103.614 26.0683C101.703 27.0746 98.4927 27.1787 96.6761 26.2929C95.3425 25.6426 93.5729 23.6596 93.5729 22.8154C93.5729 22.486 95.1117 22.4115 101.927 22.4115H110.28L110.134 19.9436C109.919 16.3395 109.057 14.3486 106.656 11.9142C104.2 9.4235 102.349 8.64153 98.9822 8.67085C97.7225 8.68192 96.1569 8.86021 95.5035 9.06722ZM153.554 9.06781C150.56 10.2267 148.088 12.2956 146.873 14.6615C144.975 18.3572 145.18 23.1681 147.385 26.666C148.58 28.5617 150.031 29.7932 152.369 30.8956C156.14 32.674 161.559 32.2582 165.229 29.9093C166.004 29.4124 166.624 28.9021 166.606 28.775C166.587 28.6478 165.792 27.8222 164.838 26.9397L163.103 25.3354L161.546 26.117C160.359 26.7126 159.54 26.8987 158.107 26.8987C155.127 26.8987 153.226 25.8427 152.05 23.5333L151.479 22.4115H159.811C167.345 22.4115 168.162 22.3634 168.335 21.9084C168.654 21.0707 167.887 16.7636 167.118 15.0705C166.131 12.8996 164.193 10.8714 162.047 9.76333C160.476 8.95264 159.904 8.8267 157.432 8.74863C155.563 8.6897 154.254 8.79739 153.554 9.06781ZM225.458 9.26076C222.507 10.3293 220.781 12.3288 220.479 15.0289C220.165 17.8367 221.608 20.336 224.189 21.4546C224.969 21.7923 227.25 22.3376 229.258 22.6661C233.521 23.3637 234.437 23.8178 234.303 25.1676C234.169 26.5095 232.982 27.2798 230.801 27.4387C228.652 27.5951 226.79 27.162 224.428 25.9564L222.665 25.0563L222.133 25.7533C221.841 26.1365 221.196 27.0118 220.702 27.698L219.802 28.9464L220.571 29.5557C223.49 31.8681 231.041 32.695 234.989 31.1343C240.368 29.0086 241.773 22.4929 237.449 19.7312C235.628 18.5684 234.886 18.35 230.795 17.7742C226.929 17.2297 225.946 16.7397 225.802 15.2841C225.724 14.4988 225.868 14.2511 226.693 13.7444C228.432 12.6761 232.56 13.1227 235.203 14.6648L236.195 15.2437L236.837 14.4345C237.189 13.9894 237.853 13.1174 238.311 12.4966L239.145 11.3685L237.396 10.4798C233.687 8.59367 228.705 8.08512 225.458 9.26076ZM97.0195 13.7477C96.5466 13.8903 95.7658 14.3836 95.2846 14.8437C94.4372 15.6544 93.1876 17.735 93.4116 17.962C93.4722 18.0236 95.9392 18.0344 98.8937 17.986C102.968 17.9195 104.266 17.8074 104.266 17.5214C104.266 16.7394 102.415 14.6538 101.192 14.0573C99.8649 13.4105 98.4799 13.3076 97.0195 13.7477ZM154.498 14.086C153.292 14.687 151.492 16.8857 151.491 17.7586C151.491 17.9713 153.268 18.0455 156.955 17.9866C163.211 17.8866 163.155 17.9231 160.945 15.3945C159.177 13.3716 156.87 12.9035 154.498 14.086ZM54.515 14.1515C53.4781 14.6071 51.4973 16.7209 51.0859 17.8098C50.93 18.2232 50.8023 19.3659 50.8023 20.3489C50.8023 26.9376 59.0077 29.3227 62.2954 23.6895C63.8013 21.1093 63.2827 17.326 61.1486 15.3212C59.5693 13.8377 56.4715 13.2915 54.515 14.1515ZM202.943 14.3693C198.132 16.7675 198.179 23.6198 203.024 26.234C204.374 26.9624 207.756 26.879 209.281 26.0796C211.216 25.0655 211.217 25.0652 211.126 19.978L211.044 15.3816L209.431 14.5589C207.362 13.5033 204.829 13.4294 202.943 14.3693ZM177.429 22.5288C175.33 23.4926 175.038 25.6785 176.835 26.9693C178.103 27.8802 181.635 27.9149 183.421 27.0342C184.578 26.4635 184.611 26.4039 184.697 24.7473C184.776 23.2443 184.709 23.0044 184.122 22.6882C183.072 22.1222 178.548 22.0146 177.429 22.5288Z" fill="black"/>
</svg>
