<svg width="171" height="57" viewBox="0 0 171 57" fill="none" xmlns="http://www.w3.org/2000/svg">
<path d="M5.80261 18.7405V2.79967H0.0317383V0.999634H13.4579V2.79967H7.68703V18.7405H5.80261Z" fill="black"/>
<path d="M17.4492 18.7406H15.6919V0H17.4492V8.34532C18.2977 6.77938 19.6673 5.998 21.5644 5.998C22.8387 5.94422 24.0781 6.42507 24.9806 7.32034C25.8608 8.20296 26.3025 9.40509 26.2994 10.9204V18.7406H24.542V11.1767C24.5897 10.2371 24.2815 9.31335 23.6777 8.58891C23.0898 7.94988 22.2477 7.60189 21.3801 7.63986C20.287 7.61455 19.2478 8.10173 18.5678 8.95271C17.8337 9.82583 17.4651 11.0216 17.4651 12.537L17.4492 18.7406Z" fill="black"/>
<path d="M34.6157 18.9905C32.9283 19.0412 31.3012 18.3673 30.1477 17.1399C28.9656 15.884 28.3364 14.2137 28.3904 12.4927C28.3332 10.7813 28.9465 9.11726 30.0969 7.84553C31.2345 6.61493 32.7662 5.99805 34.6919 5.99805C36.6177 5.99805 38.1144 6.69402 39.1822 8.08279C40.2594 9.48106 40.752 11.24 40.5518 12.9925H30.1986C30.17 14.1757 30.6562 15.3146 31.53 16.1149C32.3467 16.9279 33.459 17.3835 34.6157 17.3803C36.4238 17.3803 37.7299 16.5989 38.5307 15.033H40.3389C40.0243 16.175 39.3347 17.1779 38.3814 17.8802C37.3931 18.6204 36.1378 18.9905 34.6157 18.9905ZM34.6157 7.62092C33.6051 7.60827 32.62 7.9436 31.8288 8.56997C31.028 9.20267 30.5195 10.1739 30.3002 11.4804H38.7309C38.607 10.3985 38.1112 9.39248 37.3263 8.63324C36.5891 7.95942 35.6167 7.59878 34.6157 7.62092Z" fill="black"/>
<path d="M13.5088 56.9999C9.63823 56.9999 6.46044 56.0508 3.97541 54.1527C1.49038 52.2546 0.165245 49.8567 0 46.9558H9.21559C9.24419 47.9839 9.76216 48.9393 10.6106 49.5277C11.5544 50.1446 12.673 50.4514 13.8011 50.404C15.9684 50.404 17.052 49.7871 17.052 48.5565C17.0774 47.9902 16.801 47.4493 16.3243 47.1393C15.5171 46.6806 14.6464 46.3389 13.7408 46.1269L7.87774 44.6243C3.00619 43.3589 0.568822 40.3346 0.568822 35.5514C0.568822 32.9699 1.65245 30.8694 3.8197 29.2528C5.98695 27.6363 8.95183 26.8264 12.7175 26.8264C16.0446 26.8264 18.8189 27.6458 21.0465 29.2813C23.2741 30.9168 24.5007 33.2199 24.7327 36.1872H15.8889C15.5426 34.4157 14.4208 33.5299 12.5237 33.5299C10.5503 33.5299 9.56196 34.1468 9.56196 35.3774C9.56196 36.4561 10.5503 37.209 12.5237 37.6329L17.8051 39.0154C20.7096 39.7873 22.8006 40.904 24.0749 42.3687C25.3492 43.8334 25.9848 45.741 25.9816 48.0915C25.9816 50.7488 24.8154 52.8968 22.486 54.5355C20.1567 56.1742 17.1632 56.9967 13.5088 56.9999Z" fill="black"/>
<path d="M53.5109 56.3642L48.5186 41.1066L43.5835 56.3642H34.7588L25.1777 27.4656H34.584L39.6335 45.2097L45.1501 27.4656H51.8839L57.3941 45.2097L62.4437 27.4656H71.8499L62.3165 56.3642H53.5109Z" fill="black"/>
<path d="M84.5703 57C80.8141 57 77.63 55.5164 75.0178 52.549C72.4057 49.5816 71.0996 46.0385 71.0996 41.9165C71.0996 37.7944 72.4057 34.2513 75.0178 31.2808C77.63 28.3102 80.8141 26.8297 84.5703 26.8329C87.8974 26.8329 90.5286 28.0065 92.4639 30.357V27.4656H101.247V56.3642H92.4639V53.4759C90.5286 55.8264 87.8974 57 84.5703 57ZM81.7547 47.0603C82.9718 48.408 84.5671 49.0818 86.5437 49.0818C88.5202 49.0818 90.1155 48.408 91.3326 47.0603C92.5529 45.7127 93.163 43.998 93.163 41.9165C93.163 39.8349 92.5529 38.1203 91.3326 36.7726C90.1123 35.425 88.5171 34.7511 86.5437 34.748C84.5703 34.7448 82.975 35.4218 81.7547 36.7726C80.5345 38.1203 79.9243 39.8349 79.9243 41.9165C79.9243 43.998 80.5345 45.7127 81.7547 47.0603Z" fill="black"/>
<path d="M104.25 56.3642V27.4656H113.005V31.8027C113.507 30.4487 114.419 29.2877 115.621 28.4779C116.869 27.5826 118.373 27.1049 119.914 27.1207C120.877 27.1144 121.84 27.2283 122.774 27.4656V36.3234C121.525 35.8805 120.209 35.6432 118.884 35.6274C117.025 35.6274 115.582 36.2728 114.559 37.5635C113.536 38.8542 113.018 40.5561 113.005 42.6662V56.3642H104.25Z" fill="black"/>
<path d="M162.261 56.3641V41.3944C162.261 36.9655 160.866 34.7511 158.079 34.7511C154.752 34.7511 153.011 37.1585 152.855 41.9765V56.3673H144.078V41.3944C144.078 36.9655 142.683 34.7511 139.896 34.7511C138.383 34.6973 136.944 35.4028 136.064 36.6302C135.136 37.883 134.672 39.7811 134.672 42.3245V56.3673H125.904V27.4655H134.672V30.4139C136.528 28.0255 139.003 26.8328 142.101 26.8328C146.166 26.8328 149.147 28.5285 151.044 31.9166C151.876 30.2716 153.221 28.9397 154.876 28.1204C156.449 27.2852 158.2 26.8392 159.983 26.8202C163.504 26.8202 166.224 27.9812 168.14 30.3C170.056 32.6189 171.01 35.8172 171 39.8918V56.3641H162.261Z" fill="black"/>
</svg>
