<svg width="198" height="48" viewBox="0 0 198 48" fill="none" xmlns="http://www.w3.org/2000/svg">
<path d="M24.2062 11.9171H15.5904V38.4045H8.61581V11.9171H0V5.46655H24.2062V11.9171Z" fill="black"/>
<path d="M44.0808 12.4506L41.994 18.8983C34.2998 17.9784 33.3256 22.893 33.3256 27.7053V38.4047H26.8132V12.4506H33.3256V16.6993C35.2741 13.4727 39.7909 10.956 44.0808 12.4506Z" fill="black"/>
<path d="M46.4037 5.17937C46.4087 4.49564 46.6168 3.82873 47.0015 3.26307C47.3862 2.69738 47.9307 2.25836 48.5656 2.00149C49.2002 1.74466 49.8971 1.68156 50.568 1.82019C51.2389 1.95881 51.8533 2.29294 52.3338 2.78026C52.8142 3.2676 53.1392 3.88625 53.2673 4.55794C53.3954 5.22962 53.321 5.92416 53.0536 6.55363C52.7863 7.18311 52.3376 7.71926 51.7647 8.09425C51.1921 8.46924 50.5207 8.66618 49.8356 8.66019C49.3804 8.65988 48.9298 8.56922 48.5099 8.39349C48.0901 8.21777 47.7092 7.96049 47.3898 7.63658C47.0707 7.3127 46.8189 6.92865 46.6498 6.50683C46.4804 6.08499 46.3968 5.63376 46.4037 5.17937ZM46.6085 12.4504H53.1209V38.4046H46.6085V12.4504Z" fill="black"/>
<path d="M91.0184 5.17942C91.0234 4.49591 91.2313 3.82922 91.6157 3.26367C92.0004 2.6981 92.5442 2.25904 93.1789 2.00204C93.8132 1.74502 94.5101 1.68159 95.1808 1.81977C95.8514 1.95793 96.4658 2.2915 96.9465 2.77829C97.4273 3.26506 97.7525 3.88321 97.8815 4.55453C98.0102 5.22584 97.9365 5.9202 97.67 6.54979C97.4035 7.1794 96.9557 7.71594 96.3836 8.0916C95.8115 8.46725 95.1406 8.66513 94.4559 8.66024C94.0003 8.66027 93.5492 8.56991 93.1288 8.39437C92.7084 8.21884 92.3273 7.96167 92.0076 7.63776C91.6877 7.31388 91.4355 6.92975 91.2656 6.50771C91.0959 6.08568 91.0118 5.63417 91.0184 5.17942ZM91.226 12.4505H97.7384V38.4046H91.226V12.4505Z" fill="black"/>
<path d="M112.252 12.4504H119.471V18.3927H112.252V38.4102H105.743V18.3927H100.935L105.665 12.456H105.743C105.743 7.12977 108.101 0.00514248 115.128 0.00514248C116.039 -0.0202178 116.949 0.0482664 117.846 0.209572V5.6297C117.486 5.6297 117.126 5.57721 116.717 5.57721C113.382 5.57721 112.252 9.27627 112.252 12.4504Z" fill="black"/>
<path d="M147.023 12.4504L133.04 47.8497H126.373L130.929 36.8686L120.157 12.4504H127.184L133.904 29.5976L139.993 12.4504H147.023Z" fill="black"/>
<path d="M154.049 35.2802C154.045 36.0242 153.819 36.7502 153.401 37.3662C152.982 37.982 152.391 38.4605 151.7 38.7406C151.01 39.021 150.251 39.0906 149.521 38.9409C148.791 38.7911 148.122 38.4287 147.598 37.8991C147.074 37.3698 146.719 36.6974 146.578 35.9667C146.437 35.236 146.517 34.4802 146.806 33.7945C147.095 33.1088 147.582 32.524 148.204 32.1143C148.827 31.7049 149.556 31.4883 150.302 31.4927C151.302 31.5002 152.258 31.903 152.96 32.613C153.663 33.3229 154.055 34.2824 154.049 35.2802Z" fill="black"/>
<path d="M159.228 5.17942C159.233 4.49591 159.44 3.82922 159.825 3.26367C160.21 2.6981 160.753 2.25904 161.388 2.00204C162.023 1.74502 162.719 1.68159 163.39 1.81977C164.061 1.95793 164.675 2.2915 165.156 2.77829C165.637 3.26506 165.962 3.88321 166.091 4.55453C166.219 5.22584 166.146 5.9202 165.879 6.54979C165.613 7.1794 165.165 7.71594 164.593 8.0916C164.021 8.46725 163.35 8.66513 162.665 8.66024C162.21 8.66027 161.758 8.56991 161.338 8.39437C160.918 8.21884 160.537 7.96167 160.217 7.63776C159.897 7.31388 159.645 6.92975 159.475 6.50771C159.305 6.08568 159.221 5.63417 159.228 5.17942ZM159.432 12.4505H165.948V38.4046H159.435L159.432 12.4505Z" fill="black"/>
<path d="M198 25.451C198 33.0287 192.102 39.0677 184.255 39.0677C176.459 39.0677 170.561 33.0287 170.561 25.451C170.561 17.8236 176.459 11.8344 184.255 11.8344C192.094 11.8344 198 17.8236 198 25.451ZM191.333 25.451C191.333 21.4067 188.612 18.0805 184.255 18.0805C179.946 18.0805 177.228 21.3956 177.228 25.451C177.228 29.5065 179.946 32.8243 184.255 32.8243C188.612 32.8243 191.333 29.4954 191.333 25.451Z" fill="black"/>
<path d="M78.5578 12.4504V15.8291C76.9692 13.5748 74.4063 11.8344 70.3516 11.8344C62.5052 11.8344 57.7365 17.8236 57.7365 24.5421C57.7365 31.2607 62.5052 37.2499 70.3516 37.2499C74.4035 37.2499 76.9692 35.5095 78.5578 33.258V35.1531C78.5578 40.2196 76.2496 42.0899 71.2234 42.0899C68.7519 42.0899 67.1632 41.4462 65.9178 40.6174C65.4882 40.3329 65.1016 39.9887 64.7692 39.5953L64.7443 39.5649C64.69 39.4972 64.6402 39.426 64.5948 39.3522H57.7227C57.8871 40.2945 58.2563 41.1893 58.8048 41.9739C59.7273 43.2789 60.8958 44.3916 62.2451 45.2503C63.6095 46.1149 65.098 46.7672 66.6595 47.184C68.2069 47.633 69.8111 47.8573 71.4227 47.8498C80.6529 47.8498 85.0646 42.8579 85.0646 35.5868V12.4504H78.5578ZM71.3258 31.4402C67.1217 31.4402 64.4066 28.4208 64.4066 24.5339C64.4066 20.6469 67.1245 17.6275 71.3258 17.6275C75.6877 17.6275 78.2451 20.7519 78.2451 24.5339C78.2451 28.3158 75.6877 31.4402 71.3258 31.4402Z" fill="black"/>
</svg>
