<svg width="146" height="43" viewBox="0 0 146 43" fill="none" xmlns="http://www.w3.org/2000/svg">
<path d="M132.785 33.5514V9.35656H137.337V13.2H137.589C138.031 11.8978 138.808 10.874 139.921 10.1284C141.044 9.37231 142.315 8.99426 143.733 8.99426C144.027 8.99426 144.373 9.00476 144.772 9.02577C145.182 9.04677 145.502 9.07302 145.733 9.10453V13.6095C145.544 13.557 145.208 13.4993 144.725 13.4363C144.242 13.3628 143.759 13.326 143.276 13.326C142.163 13.326 141.17 13.5623 140.299 14.0348C139.438 14.4969 138.755 15.1427 138.251 15.9723C137.747 16.7914 137.495 17.726 137.495 18.7761V33.5514H132.785Z" fill="black"/>
<path d="M118.066 34.0397C115.682 34.0397 113.629 33.5303 111.907 32.5117C110.195 31.4826 108.872 30.0387 107.938 28.18C107.014 26.3108 106.552 24.1213 106.552 21.6115C106.552 19.1332 107.014 16.9489 107.938 15.0587C108.872 13.1685 110.174 11.6931 111.844 10.6324C113.524 9.57182 115.488 9.0415 117.735 9.0415C119.1 9.0415 120.424 9.26728 121.705 9.71883C122.986 10.1704 124.136 10.8792 125.154 11.8453C126.173 12.8114 126.976 14.0663 127.564 15.61C128.153 17.1432 128.447 19.0072 128.447 21.2019V22.8716H109.214V19.3432H123.831C123.831 18.1041 123.579 17.0067 123.075 16.0511C122.571 15.085 121.862 14.3236 120.949 13.767C120.046 13.2105 118.985 12.9322 117.767 12.9322C116.444 12.9322 115.289 13.2577 114.301 13.9088C113.325 14.5494 112.569 15.3895 112.033 16.4291C111.508 17.4582 111.246 18.5766 111.246 19.7842V22.5408C111.246 24.158 111.529 25.5337 112.096 26.6678C112.674 27.8019 113.477 28.6683 114.506 29.2668C115.535 29.8549 116.738 30.149 118.113 30.149C119.006 30.149 119.82 30.0229 120.555 29.7709C121.29 29.5084 121.925 29.1198 122.461 28.6053C122.996 28.0907 123.406 27.4554 123.689 26.6993L128.147 27.5026C127.79 28.8153 127.15 29.9652 126.226 30.9523C125.312 31.9289 124.162 32.6902 122.776 33.2363C121.4 33.7719 119.83 34.0397 118.066 34.0397Z" fill="black"/>
<path d="M104.922 9.35657L96.1487 33.5514H91.1081L82.3186 9.35657H87.3749L93.5024 27.9752H93.7544L99.8661 9.35657H104.922Z" fill="black"/>
<path d="M74.0656 33.5514V9.35659H78.7754V33.5514H74.0656ZM76.4441 5.6234C75.625 5.6234 74.9215 5.35037 74.3334 4.80431C73.7558 4.24774 73.467 3.58617 73.467 2.81958C73.467 2.04249 73.7558 1.38091 74.3334 0.834846C74.9215 0.278283 75.625 0 76.4441 0C77.2632 0 77.9616 0.278283 78.5391 0.834846C79.1272 1.38091 79.4212 2.04249 79.4212 2.81958C79.4212 3.58617 79.1272 4.24774 78.5391 4.80431C77.9616 5.35037 77.2632 5.6234 76.4441 5.6234Z" fill="black"/>
<path d="M57.929 33.5514V9.35656H62.4812V13.2H62.7333C63.1743 11.8978 63.9514 10.874 65.0645 10.1284C66.1882 9.37231 67.4588 8.99426 68.8765 8.99426C69.1705 8.99426 69.517 9.00476 69.9161 9.02577C70.3256 9.04677 70.6459 9.07302 70.877 9.10453V13.6095C70.6879 13.557 70.3519 13.4993 69.8688 13.4363C69.3858 13.3628 68.9027 13.326 68.4197 13.326C67.3065 13.326 66.3142 13.5623 65.4426 14.0348C64.5815 14.4969 63.8989 15.1427 63.3948 15.9723C62.8908 16.7914 62.6388 17.726 62.6388 18.7761V33.5514H57.929Z" fill="black"/>
<path d="M31.4395 42.6244V9.35654H36.039V13.2787H36.4328C36.7058 12.7747 37.0996 12.1919 37.6142 11.5303C38.1287 10.8687 38.8428 10.2911 39.7564 9.79759C40.67 9.29353 41.8777 9.0415 43.3793 9.0415C45.3326 9.0415 47.0758 9.53506 48.6089 10.5222C50.1421 11.5093 51.3445 12.9322 52.2161 14.7909C53.0982 16.6496 53.5393 18.8864 53.5393 21.5012C53.5393 24.116 53.1035 26.358 52.2319 28.2272C51.3603 30.0859 50.1631 31.5194 48.6404 32.5275C47.1178 33.5251 45.3798 34.0239 43.4266 34.0239C41.9564 34.0239 40.754 33.7771 39.8194 33.2836C38.8953 32.79 38.1707 32.2124 37.6457 31.5509C37.1206 30.8893 36.7163 30.3012 36.4328 29.7867H36.1492V42.6244H31.4395ZM36.0547 21.4539C36.0547 23.1551 36.3015 24.6463 36.7951 25.9275C37.2886 27.2086 38.0027 28.2115 38.9373 28.9361C39.8719 29.6501 41.0166 30.0072 42.3712 30.0072C43.7784 30.0072 44.9545 29.6344 45.8996 28.8888C46.8447 28.1327 47.5588 27.1088 48.0419 25.8172C48.5354 24.5255 48.7822 23.0711 48.7822 21.4539C48.7822 19.8578 48.5407 18.4243 48.0576 17.1537C47.5851 15.883 46.871 14.8802 45.9154 14.1451C44.9703 13.41 43.7889 13.0425 42.3712 13.0425C41.0061 13.0425 39.8509 13.3943 38.9058 14.0978C37.9712 14.8014 37.2624 15.7833 36.7793 17.0434C36.2963 18.3036 36.0547 19.7737 36.0547 21.4539Z" fill="black"/>
<path d="M20.7452 1.29163H25.6282V22.5093C25.6282 24.7671 25.0979 26.7676 24.0373 28.5108C22.9767 30.2435 21.4855 31.6086 19.5638 32.6063C17.642 33.5934 15.3895 34.0869 12.8062 34.0869C10.2334 34.0869 7.98618 33.5934 6.06445 32.6063C4.14273 31.6086 2.65156 30.2435 1.59093 28.5108C0.530311 26.7676 0 24.7671 0 22.5093V1.29163H4.86731V22.1155C4.86731 23.5752 5.1876 24.8721 5.82818 26.0062C6.47925 27.1404 7.39811 28.033 8.58474 28.6841C9.77138 29.3246 11.1785 29.6449 12.8062 29.6449C14.4444 29.6449 15.8568 29.3246 17.0435 28.6841C18.2406 28.033 19.1542 27.1404 19.7843 26.0062C20.4249 24.8721 20.7452 23.5752 20.7452 22.1155V1.29163Z" fill="black"/>
</svg>
