<svg width="228" height="31" viewBox="0 0 228 31" fill="none" xmlns="http://www.w3.org/2000/svg">
<path fill-rule="evenodd" clip-rule="evenodd" d="M10.2371 24.7379H16.6473C16.9343 24.7379 17.1256 24.8338 17.2213 25.1214L19.6132 28.9567C19.8045 29.3402 19.7088 29.7238 19.4218 30.0114C19.3261 30.1073 19.1348 30.1073 19.0391 30.1073H0.765391C0.382695 30.1073 0 29.8197 0 29.3402V26.0802C0 25.8885 0.0956711 25.6967 0.191345 25.6008L9.5674 14.7661C9.85442 14.4784 9.75874 13.999 9.47172 13.7113C9.37605 13.6155 9.1847 13.5196 8.99335 13.5196H1.14808C0.765389 13.5196 0.382694 13.2319 0.382694 12.7525V8.9172C0.382694 8.53367 0.669715 8.15015 1.14808 8.15015H18.5608C18.9434 8.15015 19.3261 8.43779 19.3261 8.9172V12.0813C19.3261 12.2731 19.2305 12.4649 19.1348 12.5608L9.75874 23.3955C9.47172 23.6832 9.5674 24.1626 9.85442 24.4502C9.95009 24.642 10.0458 24.7379 10.2371 24.7379Z" fill="black"/>
<path fill-rule="evenodd" clip-rule="evenodd" d="M34.347 17.259C34.7297 17.259 35.1124 16.9714 35.1124 16.492V16.3961C34.9211 14.2867 33.1033 12.7525 30.9984 12.8484C28.8936 12.8484 27.1715 14.2867 26.6931 16.3002C26.5974 16.6837 26.7888 17.0673 27.1715 17.259H27.3628H34.347ZM41.0442 20.9985H27.6498C27.2671 20.9985 26.8845 21.2861 26.8845 21.6696C26.8845 21.7655 26.8844 21.8614 26.9801 21.9573C27.7455 23.8749 29.659 25.1214 31.7638 25.0255C33.486 25.0255 35.1124 24.3544 36.4518 23.2996C36.7389 23.012 37.1216 23.012 37.4086 23.2996L40.0875 25.9844C40.3745 26.272 40.3745 26.7514 40.0875 27.0391C37.5999 29.2444 34.5384 30.4909 31.1898 30.395C24.971 30.395 20.7613 26.8473 19.9003 21.4779C18.5608 13.0402 24.971 7.19133 33.2946 8.43781C39.1307 9.39664 42.0966 13.8072 41.9053 20.519C41.7139 20.6149 41.4269 20.9026 41.0442 20.9985Z" fill="black"/>
<path fill-rule="evenodd" clip-rule="evenodd" d="M51.664 10.9306C52.9077 9.39643 54.6299 8.34172 56.5433 7.95819C56.926 7.86231 57.3087 8.14996 57.4044 8.62937V8.72526V13.4235C57.4044 13.807 57.1174 14.1906 56.639 14.1906C53.0034 14.0947 50.7072 16.0123 50.3245 18.793V29.1483C50.3245 29.5318 50.0375 29.9154 49.5591 29.9154H44.1057C43.723 29.9154 43.3403 29.6277 43.3403 29.1483V9.0129C43.3403 8.62937 43.6274 8.24584 44.1057 8.24584H49.5591C49.9418 8.24584 50.3245 8.53349 50.3245 9.0129V10.547C50.3245 10.9306 50.7072 11.3141 51.0899 11.3141C51.377 11.2182 51.5683 11.1223 51.664 10.9306Z" fill="black"/>
<path fill-rule="evenodd" clip-rule="evenodd" d="M63.7188 19.1767C63.7188 22.5326 65.728 24.7379 68.5982 24.7379C71.4684 24.7379 73.4776 22.4368 73.4776 19.1767C73.4776 15.8208 71.4684 13.6155 68.5982 13.6155C65.728 13.6155 63.7188 15.8208 63.7188 19.1767ZM80.4618 19.0808C80.4618 25.6968 75.6781 30.1074 68.6939 30.1074C61.7097 30.1074 56.8303 25.6968 56.8303 19.0808C56.8303 12.4649 61.614 8.05432 68.6939 8.05432C75.7738 8.05432 80.4618 12.4649 80.4618 19.0808Z" fill="black"/>
<path fill-rule="evenodd" clip-rule="evenodd" d="M106.198 18.8889C106.198 15.533 104.189 13.3277 101.319 13.3277C98.4485 13.3277 96.535 15.7248 96.535 18.8889C96.535 22.1489 98.5442 24.546 101.319 24.546C104.093 24.546 106.198 22.2448 106.198 18.8889ZM113.182 19.0807C113.182 25.6007 109.26 30.0113 103.232 30.0113C101.223 30.0113 99.3095 29.3401 97.8744 28.0937C97.5874 27.806 97.1091 27.9019 96.822 28.1895C96.7264 28.2854 96.6307 28.4772 96.6307 28.669V29.0525C96.6307 29.436 96.3437 29.8196 95.8653 29.8196H90.4119C90.0292 29.8196 89.6465 29.5319 89.6465 29.0525V0.767062C89.6465 0.383531 89.9335 0 90.4119 0H95.8653C96.248 0 96.6307 0.287648 96.6307 0.767062V9.20475C96.6307 9.58828 96.9177 9.97181 97.3961 9.97181C97.5874 9.97181 97.7788 9.87593 97.8744 9.78005C99.4052 8.53357 101.223 7.86239 103.041 7.86239C109.164 7.95827 113.182 12.3689 113.182 19.0807Z" fill="black"/>
<path fill-rule="evenodd" clip-rule="evenodd" d="M119.975 19.1767C119.975 22.5326 121.984 24.7379 124.855 24.7379C127.725 24.7379 129.734 22.4368 129.734 19.1767C129.734 15.8208 127.725 13.6155 124.855 13.6155C121.984 13.6155 119.975 15.8208 119.975 19.1767ZM136.527 19.0808C136.527 25.6968 131.743 30.1074 124.759 30.1074C118.062 30.1074 112.895 25.3132 112.895 19.0808C112.895 12.4649 117.679 8.05432 124.759 8.05432C131.934 8.05432 136.527 12.4649 136.527 19.0808Z" fill="black"/>
<path fill-rule="evenodd" clip-rule="evenodd" d="M159.106 25.0256L153.652 29.0527C153.365 29.2444 152.887 29.2444 152.6 28.8609C152.504 28.765 152.504 28.5732 152.504 28.4774C152.504 28.0938 152.122 27.7103 151.739 27.7103C151.548 27.7103 151.356 27.8062 151.165 27.9021C149.634 29.4362 147.529 30.2033 145.424 30.1074C140.736 30.1074 137.771 26.8474 137.771 21.8614V8.82139C137.771 8.43786 138.058 8.05432 138.44 8.05432H143.894C144.276 8.05432 144.659 8.34197 144.659 8.82139V19.752C144.659 22.3409 146.094 23.875 148.295 23.875C150.974 23.875 152.504 21.6697 152.504 18.6973V8.82139C152.504 8.43786 152.791 8.05432 153.174 8.05432H158.627C159.01 8.05432 159.393 8.34197 159.393 8.82139V24.3544C159.393 24.642 159.297 24.8338 159.106 25.0256Z" fill="black"/>
<path fill-rule="evenodd" clip-rule="evenodd" d="M184.842 16.3002V29.2444C184.842 29.6279 184.555 30.0114 184.077 30.0114H178.719C178.337 30.0114 177.954 29.7238 177.954 29.2444V18.2178C177.954 15.629 176.423 14.0949 174.127 14.0949C171.544 14.0949 170.013 15.9166 169.726 18.5055V28.4773C169.726 28.8608 169.439 29.2444 168.961 29.2444C168.769 29.2444 168.673 29.1485 168.482 29.1485L163.029 25.1214C162.837 25.0255 162.742 24.7379 162.742 24.5461V9.01308C162.742 8.62955 163.029 8.24603 163.507 8.24603H168.961C169.343 8.24603 169.726 8.53367 169.726 9.01308V9.68427C169.726 10.0678 170.013 10.4513 170.491 10.4513C170.683 10.4513 170.874 10.3554 170.97 10.2596C172.596 8.72544 174.797 7.95837 176.901 7.95837C181.685 8.05426 184.842 11.2184 184.842 16.3002Z" fill="black"/>
<path fill-rule="evenodd" clip-rule="evenodd" d="M206.082 13.3278L202.255 15.629C201.968 15.8208 201.585 15.7249 201.298 15.5331C200.246 14.3825 198.811 13.7113 197.28 13.7113C194.601 13.7113 192.687 15.9166 192.687 19.0808C192.687 22.2449 194.601 24.5461 197.28 24.5461C198.906 24.642 200.437 23.8749 201.394 22.6284C201.585 22.3408 202.063 22.2449 202.35 22.4367L206.177 24.7379C206.56 24.9296 206.656 25.409 206.464 25.6967C204.551 28.4773 201.298 30.1073 197.088 30.1073C190.487 30.1073 185.99 25.6967 185.99 19.0808C185.99 12.4649 190.583 7.95837 197.184 7.95837C201.202 7.95837 204.36 9.4925 206.369 12.1772C206.464 12.6566 206.369 13.0402 206.082 13.3278Z" fill="black"/>
<path fill-rule="evenodd" clip-rule="evenodd" d="M220.529 17.259C220.911 17.259 221.294 16.9714 221.294 16.492V16.3961C221.103 14.2867 219.285 12.7525 217.18 12.8484C215.075 12.8484 213.353 14.2867 212.875 16.3002C212.779 16.6837 212.97 17.0673 213.353 17.259H213.544H220.529ZM227.226 20.9985H213.736C213.353 20.9985 212.97 21.2861 212.97 21.6696C212.97 21.7655 212.97 21.8614 213.066 21.9573C213.831 23.8749 215.745 25.1214 217.85 25.0255C219.572 25.0255 221.198 24.3544 222.538 23.2996C222.825 23.012 223.208 23.012 223.495 23.2996L226.173 25.9844C226.46 26.272 226.46 26.7514 226.173 27.0391C223.686 29.2444 220.624 30.4909 217.276 30.395C211.057 30.395 206.847 26.8473 205.986 21.4779C204.647 13.0402 211.057 7.19133 219.381 8.43781C225.217 9.39664 228.183 13.8072 227.991 20.519C227.896 20.6149 227.609 20.9985 227.226 20.9985Z" fill="black"/>
</svg>
